{
.appVersion = "3099";
classes = (
{
automatic = 1;
code = "A Aacute Abreve Acaron Acircumflex Adieresis Agrave Amacron Aogonek Aring Aringacute Atilde AE B C Cacute Ccaron Ccedilla Cdotaccent D Eth Dcaron Dcroat E Eacute Ecaron Ecircumflex Edieresis Edotaccent Egrave Emacron Eogonek F Fhook G Gbreve Gcommaaccent Gdotaccent H Hbar I Iacute Icaron Icircumflex Idieresis Idotaccent Igrave Imacron Iogonek J K Kcommaaccent L Lacute Lcaron Lcommaaccent Ldot Lslash M N Nacute Ncaron Ncommaaccent Ntilde Eng O Oacute Ocaron Ocircumflex Odieresis Ograve Ohungarumlaut Omacron Oslash Otilde OE P Thorn Q R Racute Rcaron Rcommaaccent S Sacute Scaron Scedilla Scommaaccent T Tbar Tcaron Tcedilla Tcommaaccent U Uacute Ucaron Ucircumflex Udieresis Udieresisacute Udieresiscaron Udieresisgrave Udieresismacron Ugrave Uhungarumlaut Umacron Uogonek Uring Utilde V W Wacute Wcircumflex Wdieresis Wgrave X Y Yacute Ycircumflex Ydieresis Ygrave Ytilde Z Zacute Zcaron Zdotaccent";
name = Uppercase;
}
);
copyright = "Copyright 2018 The Baskervville Project Authors (https://github.com/anrt-type/ANRT-Baskervville)";
customParameters = (
{
name = fsType;
value = (
);
},
{
name = "Use Typo Metrics";
value = 1;
},
{
name = "Disable Last Change";
value = 1;
},
{
name = "Use Line Breaks";
value = 1;
},
{
name = panose;
value = (
0,
0,
0,
0,
0,
0,
0,
0,
0,
0
);
},
{
name = license;
value = "This Font Software is licensed under the SIL Open Font License, Version 1.1. This license is available with a FAQ at: https://scripts.sil.org/OFL";
},
{
name = licenseURL;
value = "https://scripts.sil.org/OFL";
}
);
date = "2018-12-14 11:04:06 +0000";
designer = ANRT;
designerURL = "https://anrt-nancy.fr";
familyName = Baskervville;
featurePrefixes = (
{
automatic = 1;
code = "languagesystem DFLT dflt;

languagesystem latn dflt;
languagesystem latn AZE;
languagesystem latn CRT;
languagesystem latn KAZ;
languagesystem latn TAT;
languagesystem latn TRK;
languagesystem latn ROM;
languagesystem latn MOL;

glyphs = (
{
color = 6;
glyphname = A;
layers = (
{
anchors = (
{
name = bottom;
position = "{344, 0}";
},
{
name = ogonek;
position = "{649, 0}";
},
{
name = top;
position = "{374, 710}";
}
);
layerId = "9372F035-DA38-4B54-966C-CEBA9B53DD02";
paths = (
{
closed = 1;
nodes = (
"106 0 LINE",
"233 -3 LINE",
"233 22 LINE",
"213 24 LINE SMOOTH",
"162 28 OFFCURVE",
"142 41 OFFCURVE",
"142 66 CURVE SMOOTH",
"142 81 OFFCURVE",
"149 100 OFFCURVE",
"159 124 CURVE SMOOTH",
"369 633 LINE",
"345 633 LINE",
"547 124 LINE SMOOTH",
"556 102 OFFCURVE",
"561 84 OFFCURVE",
"561 70 CURVE SMOOTH",
"561 43 OFFCURVE",
"543 29 OFFCURVE",
"496 24 CURVE SMOOTH",
"476 22 LINE",
"476 -3 LINE",
"636 0 LINE",
"760 -3 LINE",
"760 22 LINE",
"740 24 LINE SMOOTH",
"686 29 OFFCURVE",
"660 58 OFFCURVE",
"634 123 CURVE SMOOTH",
"398 710 LINE",
"364 710 LINE",
"122 123 LINE SMOOTH",
"92 50 OFFCURVE",
"63 32 OFFCURVE",
"-6 23 CURVE SMOOTH",
"-15 22 LINE",
"-15 -3 LINE"
);
},
{
closed = 1;
nodes = (
"501 254 LINE",
"489 286 LINE",
"221 286 LINE",
"208 254 LINE"
);
}
);
width = 745;
}
);
leftKerningGroup = A;
rightKerningGroup = A;
unicode = 0041;
},
{
color = 6;
glyphname = Aogonek;
layers = (
{
layerId = "9372F035-DA38-4B54-966C-CEBA9B53DD02";
paths = (
{
closed = 1;
nodes = (
"577 -294 OFFCURVE",
"618 -234 OFFCURVE",
"627 -183 CURVE",
"610 -170 LINE",
"588 -211 OFFCURVE",
"551 -238 OFFCURVE",
"513 -238 CURVE SMOOTH",
"464 -238 OFFCURVE",
"439 -196 OFFCURVE",
"439 -150 CURVE SMOOTH",
"439 -58 OFFCURVE",
"517 0 OFFCURVE",
"613 0 CURVE SMOOTH",
"627 0 LINE",
"745 -3 LINE",
"745 22 LINE",
"725 24 LINE SMOOTH",
"671 29 OFFCURVE",
"645 58 OFFCURVE",
"619 123 CURVE SMOOTH",
"380 717 LINE",
"352 717 LINE",
"107 123 LINE SMOOTH",
"77 50 OFFCURVE",
"48 32 OFFCURVE",
"-21 23 CURVE SMOOTH",
"-30 22 LINE",
"-30 -3 LINE",
"91 0 LINE",
"218 -3 LINE",
"218 22 LINE",
"198 24 LINE SMOOTH",
"150 28 OFFCURVE",
"133 42 OFFCURVE",
"133 68 CURVE SMOOTH",
"133 82 OFFCURVE",
"139 101 OFFCURVE",
"148 124 CURVE SMOOTH",
"201 255 LINE",
"478 255 LINE",
"520 147 LINE SMOOTH",
"529 125 OFFCURVE",
"532 106 OFFCURVE",
"532 89 CURVE SMOOTH",
"532 56 OFFCURVE",
"526 36 OFFCURVE",
"479 -16 CURVE SMOOTH",
"444 -54 OFFCURVE",
"384 -123 OFFCURVE",
"384 -191 CURVE SMOOTH",
"384 -255 OFFCURVE",
"438 -294 OFFCURVE",
"495 -294 CURVE SMOOTH"
);
},
{
closed = 1;
nodes = (
"343 604 LINE",
"466 286 LINE",
"214 286 LINE"
);
}
);
width = 715;
}
);
leftKerningGroup = A;
rightKerningGroup = A;
unicode = 0104;
},
{
color = 6;
glyphname = AE;
layers = (
{
anchors = (
{
name = bottom;
position = "{566, 0}";
},
{
name = ogonek;
position = "{947, 10}";
},
{
name = top;
position = "{708, 710}";
},
{
name = topleft;
position = "{360, 710}";
}
);
layerId = "9372F035-DA38-4B54-966C-CEBA9B53DD02";
paths = (
{
closed = 1;
nodes = (
"20 -1 OFFCURVE",
"69 0 OFFCURVE",
"117 0 CURVE SMOOTH",
"165 0 OFFCURVE",
"213 -1 OFFCURVE",
"244 -3 CURVE",
"244 19 LINE",
"213 22 LINE SMOOTH",
"184 25 OFFCURVE",
"159 37 OFFCURVE",
"159 67 CURVE SMOOTH",
"159 81 OFFCURVE",
"165 101 OFFCURVE",
"180 125 CURVE SMOOTH",
"504 664 LINE",
"504 199 LINE SMOOTH",
"504 48 OFFCURVE",
"490 29 OFFCURVE",
"440 24 CURVE SMOOTH",
"368 17 LINE",
"368 -3 LINE",
"523 0 LINE",
"967 0 LINE",
"970 90 LINE",
"977 210 LINE",
"952 210 LINE",
"939 52 OFFCURVE",
"907 25 OFFCURVE",
"781 25 CURVE SMOOTH",
"688 25 LINE SMOOTH",
"612 25 OFFCURVE",
"591 54 OFFCURVE",
"591 107 CURVE SMOOTH",
"591 683 LINE",
"721 683 LINE SMOOTH",
"869 683 OFFCURVE",
"901 669 OFFCURVE",
"920 546 CURVE",
"944 546 LINE",
"936 638 LINE",
"934 710 LINE",
"505 710 LINE",
"396 713 LINE",
"396 690 LINE",
"432 688 LINE SMOOTH",
"455 687 OFFCURVE",
"464 679 OFFCURVE",
"464 667 CURVE SMOOTH",
"464 652 OFFCURVE",
"451 630 OFFCURVE",
"435 603 CURVE SMOOTH",
"146 123 LINE SMOOTH",
"92 33 OFFCURVE",
"58 27 OFFCURVE",
"11 22 CURVE SMOOTH",
"-15 19 LINE",
"-15 -3 LINE"
);
},
{
closed = 1;
nodes = (
"511 310 LINE",
"511 336 LINE",
"299 336 LINE",
"283 310 LINE"
);
},
{
closed = 1;
nodes = (
"797 226 LINE",
"794 374 LINE",
"797 508 LINE",
"772 508 LINE",
"767 408 OFFCURVE",
"740 387 OFFCURVE",
"701 387 CURVE SMOOTH",
"585 387 LINE",
"585 362 LINE",
"701 362 LINE SMOOTH",
"747 362 OFFCURVE",
"772 324 OFFCURVE",
"772 226 CURVE"
);
}
);
width = 1017;
}
);
leftKerningGroup = AE;
leftMetricsKey = A;
rightKerningGroup = E;
rightMetricsKey = E;
unicode = 00C6;
},
{
color = 6;
glyphname = B;
layers = (
{
anchors = (
{
name = bottom;
position = "{332, 0}";
},
{
name = top;
position = "{332, 710}";
}
);
layerId = "9372F035-DA38-4B54-966C-CEBA9B53DD02";
paths = (
{
closed = 1;
nodes = (
"188 0 LINE",
"366 0 LINE SMOOTH",
"491 0 OFFCURVE",
"626 46 OFFCURVE",
"626 202 CURVE SMOOTH",
"626 328 OFFCURVE",
"537 371 OFFCURVE",
"441 380 CURVE",
"510 404 OFFCURVE",
"584 454 OFFCURVE",
"584 547 CURVE SMOOTH",
"584 707 OFFCURVE",
"401 710 OFFCURVE",
"310 710 CURVE SMOOTH",
"188 710 LINE",
"40 713 LINE",
"40 688 LINE",
"60 686 LINE SMOOTH",
"129 678 OFFCURVE",
"146 676 OFFCURVE",
"146 577 CURVE SMOOTH",
"146 133 LINE SMOOTH",
"146 34 OFFCURVE",
"129 32 OFFCURVE",
"60 24 CURVE SMOOTH",
"40 22 LINE",
"40 -3 LINE"
);
},
{
closed = 1;
nodes = (
"254 28 OFFCURVE",
"227 49 OFFCURVE",
"227 129 CURVE SMOOTH",
"227 682 LINE",
"340 682 LINE SMOOTH",
"435 682 OFFCURVE",
"491 660 OFFCURVE",
"491 547 CURVE SMOOTH",
"491 440 OFFCURVE",
"442 387 OFFCURVE",
"360 387 CURVE SMOOTH",
"221 387 LINE",
"221 359 LINE",
"320 359 LINE SMOOTH",
"464 359 OFFCURVE",
"532 337 OFFCURVE",
"532 201 CURVE SMOOTH",
"532 60 OFFCURVE",
"466 28 OFFCURVE",
"366 28 CURVE SMOOTH",
"310 28 LINE SMOOTH"
);
}
);
width = 686;
}
);
leftKerningGroup = H;
leftMetricsKey = I;
rightKerningGroup = B;
unicode = 0042;
},
{
color = 6;
glyphname = C;
layers = (
{
anchors = (
{
name = bottom;
position = "{381, 0}";
},
{
name = top;
position = "{394, 710}";
}
);
layerId = "9372F035-DA38-4B54-966C-CEBA9B53DD02";
paths = (
{
closed = 1;
nodes = (
"466 -11 OFFCURVE",
"522 16 OFFCURVE",
"557 33 CURVE SMOOTH",
"573 41 OFFCURVE",
"585 47 OFFCURVE",
"595 47 CURVE SMOOTH",
"612 47 OFFCURVE",
"618 28 OFFCURVE",
"623 11 CURVE SMOOTH",
"626 0 LINE",
"650 0 LINE",
"647 117 LINE",
"649 239 LINE",
"625 239 LINE",
"612 119 OFFCURVE",
"528 19 OFFCURVE",
"399 19 CURVE SMOOTH",
"225 19 OFFCURVE",
"164 145 OFFCURVE",
"164 355 CURVE SMOOTH",
"164 541 OFFCURVE",
"224 694 OFFCURVE",
"399 694 CURVE SMOOTH",
"524 694 OFFCURVE",
"602 614 OFFCURVE",
"622 476 CURVE",
"647 476 LINE",
"645 593 LINE",
"647 710 LINE",
"622 710 LINE",
"619 682 OFFCURVE",
"609 672 OFFCURVE",
"595 672 CURVE SMOOTH",
"589 672 OFFCURVE",
"573 679 OFFCURVE",
"556 687 CURVE SMOOTH",
"529 700 OFFCURVE",
"477 724 OFFCURVE",
"396 724 CURVE SMOOTH",
"213 724 OFFCURVE",
"62 567 OFFCURVE",
"62 355 CURVE SMOOTH",
"62 141 OFFCURVE",
"186 -11 OFFCURVE",
"390 -11 CURVE SMOOTH"
);
}
);
width = 720;
}
);
leftKerningGroup = O;
leftMetricsKey = O;
rightKerningGroup = C;
unicode = 0043;
},
{
color = 6;
glyphname = D;
layers = (
{
anchors = (
{
name = bottom;
position = "{381, 0}";
},
{
name = center;
position = "{231, 367}";
},
{
name = top;
position = "{361, 710}";
}
);
layerId = "9372F035-DA38-4B54-966C-CEBA9B53DD02";
paths = (
{
closed = 1;
nodes = (
"188 0 LINE",
"380 0 LINE SMOOTH",
"574 0 OFFCURVE",
"750 120 OFFCURVE",
"750 358 CURVE SMOOTH",
"750 607 OFFCURVE",
"599 710 OFFCURVE",
"330 710 CURVE SMOOTH",
"189 710 LINE",
"41 713 LINE",
"41 688 LINE",
"61 686 LINE SMOOTH",
"130 678 OFFCURVE",
"147 676 OFFCURVE",
"147 577 CURVE SMOOTH",
"147 133 LINE SMOOTH",
"147 34 OFFCURVE",
"129 32 OFFCURVE",
"60 24 CURVE SMOOTH",
"40 22 LINE",
"40 -3 LINE"
);
},
{
closed = 1;
nodes = (
"238 30 OFFCURVE",
"233 88 OFFCURVE",
"233 146 CURVE SMOOTH",
"233 680 LINE",
"359 680 LINE SMOOTH",
"576 680 OFFCURVE",
"654 559 OFFCURVE",
"654 356 CURVE SMOOTH",
"654 133 OFFCURVE",
"547 30 OFFCURVE",
"384 30 CURVE SMOOTH",
"299 30 LINE SMOOTH"
);
}
);
width = 792;
}
);
leftKerningGroup = H;
leftMetricsKey = I;
rightKerningGroup = O;
rightMetricsKey = "=O-20";
unicode = 0044;
},
{
color = 6;
glyphname = E;
layers = (
{
anchors = (
{
name = bottom;
position = "{353, 0}";
},
{
name = ogonek;
position = "{559, 0}";
},
{
name = top;
position = "{363, 710}";
},
{
name = topleft;
position = "{2, 710}";
}
);
layerId = "9372F035-DA38-4B54-966C-CEBA9B53DD02";
paths = (
{
closed = 1;
nodes = (
"188 0 LINE",
"599 0 LINE",
"602 90 LINE",
"609 210 LINE",
"584 210 LINE",
"571 55 OFFCURVE",
"539 28 OFFCURVE",
"423 28 CURVE SMOOTH",
"330 28 LINE SMOOTH",
"254 28 OFFCURVE",
"231 43 OFFCURVE",
"231 107 CURVE SMOOTH",
"231 681 LINE",
"363 681 LINE SMOOTH",
"511 681 OFFCURVE",
"543 667 OFFCURVE",
"562 546 CURVE",
"586 546 LINE",
"578 638 LINE",
"576 710 LINE",
"188 710 LINE",
"40 713 LINE",
"40 688 LINE",
"60 686 LINE SMOOTH",
"129 678 OFFCURVE",
"146 676 OFFCURVE",
"146 577 CURVE SMOOTH",
"146 133 LINE SMOOTH",
"146 34 OFFCURVE",
"129 32 OFFCURVE",
"60 24 CURVE SMOOTH",
"40 22 LINE",
"40 -3 LINE"
);
},
{
closed = 1;
nodes = (
"439 226 LINE",
"436 374 LINE",
"439 508 LINE",
"414 508 LINE",
"409 409 OFFCURVE",
"382 388 OFFCURVE",
"343 388 CURVE SMOOTH",
"225 388 LINE",
"225 360 LINE",
"343 360 LINE SMOOTH",
"389 360 OFFCURVE",
"414 323 OFFCURVE",
"414 226 CURVE"
);
}
);
width = 649;
}
);
leftKerningGroup = H;
leftMetricsKey = I;
rightKerningGroup = H;
unicode = 0045;
},
{
color = 3;
glyphname = Eogonek;
layers = (
{
components = (
{
name = E;
}
);
layerId = "9372F035-DA38-4B54-966C-CEBA9B53DD02";
paths = (
{
closed = 1;
nodes = (
"580 -294 OFFCURVE",
"617 -234 OFFCURVE",
"624 -183 CURVE",
"607 -170 LINE",
"588 -212 OFFCURVE",
"552 -239 OFFCURVE",
"515 -239 CURVE SMOOTH",
"474 -239 OFFCURVE",
"439 -210 OFFCURVE",
"439 -154 CURVE SMOOTH",
"439 -69 OFFCURVE",
"527 0 OFFCURVE",
"599 0 CURVE",
"593 29 LINE",
"460 -14 OFFCURVE",
"386 -112 OFFCURVE",
"386 -191 CURVE SMOOTH",
"386 -250 OFFCURVE",
"433 -294 OFFCURVE",
"494 -294 CURVE SMOOTH"
);
}
);
width = 649;
}
);
leftKerningGroup = H;
rightKerningGroup = H;
unicode = 0118;
},
{
color = 6;
glyphname = F;
layers = (
{
anchors = (
{
name = bottom;
position = "{197, 0}";
},
{
name = top;
position = "{337, 710}";
}
);
layerId = "9372F035-DA38-4B54-966C-CEBA9B53DD02";
paths = (
{
closed = 1;
nodes = (
"188 0 LINE",
"189 0 LINE",
"351 -3 LINE",
"351 22 LINE",
"317 24 LINE SMOOTH",
"252 28 OFFCURVE",
"231 34 OFFCURVE",
"231 133 CURVE SMOOTH",
"231 681 LINE",
"395 681 LINE SMOOTH",
"461 681 OFFCURVE",
"567 681 OFFCURVE",
"578 548 CURVE",
"602 548 LINE",
"593 637 LINE",
"590 710 LINE",
"188 710 LINE",
"40 713 LINE",
"40 688 LINE",
"60 686 LINE SMOOTH",
"129 678 OFFCURVE",
"146 676 OFFCURVE",
"146 577 CURVE SMOOTH",
"146 133 LINE SMOOTH",
"146 34 OFFCURVE",
"129 32 OFFCURVE",
"60 24 CURVE SMOOTH",
"40 22 LINE",
"40 -3 LINE"
);
},
{
closed = 1;
nodes = (
"439 226 LINE",
"436 374 LINE",
"439 508 LINE",
"414 508 LINE",
"409 409 OFFCURVE",
"382 388 OFFCURVE",
"343 388 CURVE SMOOTH",
"225 388 LINE",
"225 360 LINE",
"343 360 LINE SMOOTH",
"389 360 OFFCURVE",
"414 323 OFFCURVE",
"414 226 CURVE"
);
}
);
width = 607;
}
);
leftKerningGroup = H;
leftMetricsKey = I;
rightKerningGroup = F;
unicode = 0046;
},
{
color = 6;
glyphname = Fhook;
layers = (
{
anchors = (
{
name = top;
position = "{337, 710}";
}
);
layerId = "9372F035-DA38-4B54-966C-CEBA9B53DD02";
paths = (
{
closed = 1;
nodes = (
"141 -290 OFFCURVE",
"231 -273 OFFCURVE",
"231 -138 CURVE SMOOTH",
"231 353 LINE",
"354 353 LINE SMOOTH",
"400 353 OFFCURVE",
"425 314 OFFCURVE",
"425 216 CURVE",
"450 216 LINE",
"447 364 LINE",
"450 498 LINE",
"425 498 LINE",
"420 399 OFFCURVE",
"393 378 OFFCURVE",
"354 378 CURVE SMOOTH",
"231 378 LINE",
"231 683 LINE",
"395 683 LINE SMOOTH",
"461 683 OFFCURVE",
"567 683 OFFCURVE",
"578 548 CURVE",
"602 548 LINE",
"593 637 LINE",
"590 710 LINE",
"188 710 LINE",
"40 713 LINE",
"40 688 LINE",
"60 686 LINE SMOOTH",
"129 678 OFFCURVE",
"146 676 OFFCURVE",
"146 577 CURVE SMOOTH",
"146 -156 LINE SMOOTH",
"146 -180 OFFCURVE",
"146 -266 OFFCURVE",
"72 -266 CURVE SMOOTH",
"45 -266 OFFCURVE",
"37 -251 OFFCURVE",
"37 -238 CURVE SMOOTH",
"37 -231 OFFCURVE",
"39 -225 OFFCURVE",
"42 -217 CURVE",
"45 -210 OFFCURVE",
"48 -202 OFFCURVE",
"48 -190 CURVE SMOOTH",
"48 -166 OFFCURVE",
"28 -149 OFFCURVE",
"3 -149 CURVE SMOOTH",
"-32 -149 OFFCURVE",
"-49 -175 OFFCURVE",
"-49 -202 CURVE SMOOTH",
"-49 -255 OFFCURVE",
"7 -290 OFFCURVE",
"66 -290 CURVE SMOOTH"
);
}
);
width = 607;
}
);
leftKerningGroup = H;
rightKerningGroup = F;
unicode = 0191;
},
{
color = 6;
glyphname = G;
layers = (
{
anchors = (
{
name = bottom;
position = "{399, 0}";
},
{
name = top;
position = "{399, 710}";
}
);
layerId = "9372F035-DA38-4B54-966C-CEBA9B53DD02";
paths = (
{
closed = 1;
nodes = (
"493 -11 OFFCURVE",
"541 23 OFFCURVE",
"576 48 CURVE SMOOTH",
"596 63 OFFCURVE",
"612 75 OFFCURVE",
"633 75 CURVE SMOOTH",
"645 75 OFFCURVE",
"662 67 OFFCURVE",
"680 39 CURVE",
"703 54 LINE",
"689 79 LINE SMOOTH",
"679 97 OFFCURVE",
"667 125 OFFCURVE",
"667 156 CURVE SMOOTH",
"667 174 LINE SMOOTH",
"667 237 OFFCURVE",
"692 258 OFFCURVE",
"728 261 CURVE SMOOTH",
"773 265 LINE",
"773 289 LINE",
"619 285 LINE",
"453 289 LINE",
"453 265 LINE",
"496 261 LINE SMOOTH",
"569 254 OFFCURVE",
"592 233 OFFCURVE",
"592 174 CURVE SMOOTH",
"592 146 LINE SMOOTH",
"592 81 OFFCURVE",
"511 19 OFFCURVE",
"400 19 CURVE SMOOTH",
"250 19 OFFCURVE",
"164 126 OFFCURVE",
"164 355 CURVE SMOOTH",
"164 572 OFFCURVE",
"241 694 OFFCURVE",
"397 694 CURVE SMOOTH",
"504 694 OFFCURVE",
"617 614 OFFCURVE",
"621 478 CURVE",
"646 478 LINE",
"644 595 LINE",
"646 710 LINE",
"621 710 LINE",
"621 694 OFFCURVE",
"614 673 OFFCURVE",
"596 673 CURVE SMOOTH",
"579 673 OFFCURVE",
"570 677 OFFCURVE",
"536 692 CURVE SMOOTH",
"506 705 OFFCURVE",
"459 724 OFFCURVE",
"400 724 CURVE SMOOTH",
"218 724 OFFCURVE",
"62 572 OFFCURVE",
"62 355 CURVE SMOOTH",
"62 131 OFFCURVE",
"210 -11 OFFCURVE",
"394 -11 CURVE SMOOTH"
);
}
);
width = 785;
}
);
leftKerningGroup = O;
leftMetricsKey = O;
rightKerningGroup = G;
unicode = 0047;
},
{
color = 3;
glyphname = H;
layers = (
{
anchors = (
{
name = bottom;
position = "{420, 0}";
},
{
name = center;
position = "{420, 521}";
},
{
name = top;
position = "{425, 710}";
},
{
name = topleft;
position = "{-10, 710}";
}
);
components = (
{
locked = 1;
name = I;
transform = "{1, 0, 0, 1, 466, 0}";
},
{
locked = 1;
name = I;
}
);
layerId = "9372F035-DA38-4B54-966C-CEBA9B53DD02";
paths = (
{
closed = 1;
nodes = (
"640 352 LINE",
"640 384 LINE",
"198 384 LINE",
"198 352 LINE"
);
}
);
width = 843;
}
);
leftKerningGroup = H;
leftMetricsKey = I;
rightKerningGroup = H;
rightMetricsKey = I;
unicode = 0048;
},
{
color = 6;
glyphname = I;
layers = (
{
anchors = (
{
name = bottom;
position = "{180, 0}";
},
{
name = ogonek;
position = "{214, 0}";
},
{
name = top;
position = "{187, 710}";
},
{
name = topleft;
position = "{-5, 710}";
}
);
layerId = "9372F035-DA38-4B54-966C-CEBA9B53DD02";
paths = (
{
closed = 1;
nodes = (
"188 0 LINE",
"189 0 LINE",
"337 -3 LINE",
"337 22 LINE",
"317 24 LINE SMOOTH",
"248 32 OFFCURVE",
"231 34 OFFCURVE",
"231 133 CURVE SMOOTH",
"231 577 LINE SMOOTH",
"231 676 OFFCURVE",
"248 678 OFFCURVE",
"317 686 CURVE SMOOTH",
"337 688 LINE",
"337 713 LINE",
"189 710 LINE",
"188 710 LINE",
"40 713 LINE",
"40 688 LINE",
"60 686 LINE SMOOTH",
"129 678 OFFCURVE",
"146 676 OFFCURVE",
"146 577 CURVE SMOOTH",
"146 133 LINE SMOOTH",
"146 34 OFFCURVE",
"129 32 OFFCURVE",
"60 24 CURVE SMOOTH",
"40 22 LINE",
"40 -3 LINE"
);
}
);
width = 377;
}
);
leftKerningGroup = H;
rightKerningGroup = H;
unicode = 0049;
},
{
color = 6;
glyphname = J;
layers = (
{
anchors = (
{
name = bottom;
position = "{193, 0}";
},
{
name = top;
position = "{253, 710}";
}
);
layerId = "9372F035-DA38-4B54-966C-CEBA9B53DD02";
paths = (
{
closed = 1;
nodes = (
"205 -11 OFFCURVE",
"295 6 OFFCURVE",
"295 141 CURVE SMOOTH",
"295 577 LINE SMOOTH",
"295 676 OFFCURVE",
"312 678 OFFCURVE",
"381 686 CURVE SMOOTH",
"401 688 LINE",
"401 713 LINE",
"253 710 LINE",
"252 710 LINE",
"104 713 LINE",
"104 688 LINE",
"124 686 LINE SMOOTH",
"193 678 OFFCURVE",
"210 676 OFFCURVE",
"210 577 CURVE SMOOTH",
"210 123 LINE SMOOTH",
"210 99 OFFCURVE",
"210 13 OFFCURVE",
"136 13 CURVE SMOOTH",
"109 13 OFFCURVE",
"101 28 OFFCURVE",
"101 41 CURVE SMOOTH",
"101 48 OFFCURVE",
"103 54 OFFCURVE",
"106 62 CURVE",
"109 69 OFFCURVE",
"112 77 OFFCURVE",
"112 89 CURVE SMOOTH",
"112 113 OFFCURVE",
"92 130 OFFCURVE",
"67 130 CURVE SMOOTH",
"32 130 OFFCURVE",
"15 104 OFFCURVE",
"15 77 CURVE SMOOTH",
"15 24 OFFCURVE",
"71 -11 OFFCURVE",
"130 -11 CURVE SMOOTH"
);
}
);
width = 431;
}
);
leftKerningGroup = J;
rightKerningGroup = J;
unicode = 004A;
},
{
color = 6;
glyphname = K;
layers = (
{
anchors = (
{
name = bottom;
position = "{393, 0}";
},
{
name = top;
position = "{371, 710}";
}
);
layerId = "9372F035-DA38-4B54-966C-CEBA9B53DD02";
paths = (
{
closed = 1;
nodes = (
"522 606 LINE SMOOTH",
"560 651 OFFCURVE",
"594 679 OFFCURVE",
"634 684 CURVE SMOOTH",
"668 688 LINE",
"668 713 LINE",
"547 710 LINE",
"419 713 LINE",
"419 687 LINE",
"451 684 LINE SMOOTH",
"480 681 OFFCURVE",
"497 671 OFFCURVE",
"497 652 CURVE SMOOTH",
"497 635 OFFCURVE",
"485 611 OFFCURVE",
"457 578 CURVE SMOOTH",
"219 300 LINE",
"219 249 LINE"
);
},
{
closed = 1;
nodes = (
"188 0 LINE",
"189 0 LINE",
"324 -3 LINE",
"324 22 LINE",
"306 24 LINE SMOOTH",
"242 32 OFFCURVE",
"227 34 OFFCURVE",
"227 133 CURVE SMOOTH",
"227 577 LINE SMOOTH",
"227 667 OFFCURVE",
"240 678 OFFCURVE",
"301 685 CURVE SMOOTH",
"321 687 LINE",
"321 713 LINE",
"188 710 LINE",
"40 713 LINE",
"40 688 LINE",
"60 686 LINE SMOOTH",
"129 678 OFFCURVE",
"146 676 OFFCURVE",
"146 577 CURVE SMOOTH",
"146 133 LINE SMOOTH",
"146 34 OFFCURVE",
"129 32 OFFCURVE",
"60 24 CURVE SMOOTH",
"40 22 LINE",
"40 -3 LINE"
);
},
{
closed = 1;
nodes = (
"609 0 LINE",
"761 -3 LINE",
"761 22 LINE",
"740 24 LINE SMOOTH",
"668 31 OFFCURVE",
"626 82 OFFCURVE",
"558 171 CURVE SMOOTH",
"356 435 LINE",
"297 365 LINE",
"497 107 LINE SMOOTH",
"514 85 OFFCURVE",
"524 66 OFFCURVE",
"524 52 CURVE SMOOTH",
"524 36 OFFCURVE",
"510 25 OFFCURVE",
"476 23 CURVE SMOOTH",
"461 22 LINE",
"461 -3 LINE"
);
}
);
width = 741;
}
);
leftKerningGroup = H;
leftMetricsKey = I;
rightKerningGroup = K;
unicode = 004B;
},
{
color = 6;
glyphname = L;
layers = (
{
anchors = (
{
name = bottom;
position = "{359, 0}";
},
{
name = center;
position = "{212, 375}";
},
{
name = top;
position = "{188, 710}";
},
{
name = topright;
position = "{409, 710}";
}
);
layerId = "9372F035-DA38-4B54-966C-CEBA9B53DD02";
paths = (
{
closed = 1;
nodes = (
"188 0 LINE",
"606 -3 LINE",
"616 210 LINE",
"594 210 LINE",
"584 92 OFFCURVE",
"539 29 OFFCURVE",
"423 29 CURVE SMOOTH",
"348 29 LINE SMOOTH",
"235 29 OFFCURVE",
"231 73 OFFCURVE",
"231 172 CURVE SMOOTH",
"231 589 LINE SMOOTH",
"231 679 OFFCURVE",
"245 681 OFFCURVE",
"303 688 CURVE SMOOTH",
"319 690 LINE",
"319 713 LINE",
"190 710 LINE",
"40 713 LINE",
"40 688 LINE",
"60 686 LINE SMOOTH",
"129 679 OFFCURVE",
"146 676 OFFCURVE",
"146 577 CURVE SMOOTH",
"146 133 LINE SMOOTH",
"146 34 OFFCURVE",
"129 31 OFFCURVE",
"60 24 CURVE SMOOTH",
"40 22 LINE",
"40 -3 LINE"
);
}
);
width = 651;
}
);
leftKerningGroup = H;
leftMetricsKey = I;
rightKerningGroup = L;
unicode = 004C;
},
{
color = 6;
glyphname = M;
layers = (
{
anchors = (
{
name = bottom;
position = "{443, 0}";
},
{
name = top;
position = "{497, 710}";
}
);
guideLines = (
{
position = "{547, 642}";
}
);
layerId = "9372F035-DA38-4B54-966C-CEBA9B53DD02";
paths = (
{
closed = 1;
nodes = (
"155 0 LINE",
"282 -3 LINE",
"282 22 LINE",
"262 24 LINE SMOOTH",
"196 31 OFFCURVE",
"176 41 OFFCURVE",
"176 105 CURVE SMOOTH",
"176 681 LINE",
"159 679 LINE",
"434 0 LINE",
"453 0 LINE",
"765 682 LINE",
"749 684 LINE",
"749 133 LINE SMOOTH",
"749 34 OFFCURVE",
"732 31 OFFCURVE",
"663 24 CURVE SMOOTH",
"643 22 LINE",
"643 -3 LINE",
"792 0 LINE",
"940 -3 LINE",
"940 22 LINE",
"920 24 LINE SMOOTH",
"851 31 OFFCURVE",
"834 34 OFFCURVE",
"834 133 CURVE SMOOTH",
"834 577 LINE SMOOTH",
"834 676 OFFCURVE",
"851 678 OFFCURVE",
"920 686 CURVE SMOOTH",
"940 688 LINE",
"940 713 LINE",
"800 710 LINE",
"740 710 LINE",
"462 101 LINE",
"490 101 LINE",
"239 710 LINE",
"183 710 LINE",
"35 713 LINE",
"35 688 LINE",
"55 686 LINE SMOOTH",
"124 678 OFFCURVE",
"141 676 OFFCURVE",
"141 577 CURVE SMOOTH",
"141 133 LINE SMOOTH",
"141 34 OFFCURVE",
"124 32 OFFCURVE",
"55 24 CURVE SMOOTH",
"35 22 LINE",
"35 -3 LINE"
);
}
);
width = 980;
}
);
leftKerningGroup = M;
rightKerningGroup = H;
rightMetricsKey = I;
unicode = 004D;
},
{
color = 6;
glyphname = N;
layers = (
{
anchors = (
{
name = bottom;
position = "{436, 0}";
},
{
name = top;
position = "{402, 710}";
}
);
layerId = "9372F035-DA38-4B54-966C-CEBA9B53DD02";
paths = (
{
closed = 1;
nodes = (
"163 0 LINE",
"291 -4 LINE",
"291 21 LINE",
"271 23 LINE SMOOTH",
"202 30 OFFCURVE",
"185 33 OFFCURVE",
"185 133 CURVE SMOOTH",
"185 648 LINE",
"168 626 LINE",
"255 527 OFFCURVE",
"556 139 OFFCURVE",
"625 0 CURVE",
"655 0 LINE",
"655 577 LINE SMOOTH",
"655 676 OFFCURVE",
"672 678 OFFCURVE",
"741 686 CURVE SMOOTH",
"761 688 LINE",
"761 713 LINE",
"639 710 LINE",
"509 713 LINE",
"509 688 LINE",
"529 686 LINE SMOOTH",
"598 679 OFFCURVE",
"615 676 OFFCURVE",
"615 577 CURVE SMOOTH",
"615 156 LINE",
"629 181 LINE",
"589 232 OFFCURVE",
"308 601 OFFCURVE",
"229 710 CURVE",
"35 713 LINE",
"35 687 LINE",
"65 687 LINE SMOOTH",
"111 687 OFFCURVE",
"133 664 OFFCURVE",
"145 649 CURVE",
"145 133 LINE SMOOTH",
"145 33 OFFCURVE",
"128 30 OFFCURVE",
"59 23 CURVE SMOOTH",
"39 21 LINE",
"39 -4 LINE"
);
}
);
width = 781;
}
);
leftKerningGroup = M;
leftMetricsKey = M;
rightKerningGroup = N;
unicode = 004E;
},
{
color = 6;
glyphname = Eng;
layers = (
{
anchors = (
{
name = bottom;
position = "{437, 0}";
},
{
name = top;
position = "{403, 710}";
}
);
layerId = "9372F035-DA38-4B54-966C-CEBA9B53DD02";
paths = (
{
closed = 1;
nodes = (
"588 -264 OFFCURVE",
"656 -229 OFFCURVE",
"656 -60 CURVE SMOOTH",
"656 577 LINE SMOOTH",
"656 676 OFFCURVE",
"673 678 OFFCURVE",
"742 686 CURVE SMOOTH",
"762 688 LINE",
"762 713 LINE",
"641 711 LINE",
"520 713 LINE",
"520 688 LINE",
"540 686 LINE SMOOTH",
"609 678 OFFCURVE",
"626 676 OFFCURVE",
"626 577 CURVE SMOOTH",
"626 187 LINE",
"573 255 OFFCURVE",
"307 604 OFFCURVE",
"230 710 CURVE",
"35 713 LINE",
"36 684 LINE",
"58 684 LINE SMOOTH",
"110 684 OFFCURVE",
"131 664 OFFCURVE",
"146 649 CURVE",
"146 133 LINE SMOOTH",
"146 34 OFFCURVE",
"129 32 OFFCURVE",
"60 24 CURVE SMOOTH",
"40 22 LINE",
"40 -3 LINE",
"161 -1 LINE",
"282 -3 LINE",
"282 22 LINE",
"262 24 LINE SMOOTH",
"193 32 OFFCURVE",
"176 34 OFFCURVE",
"176 133 CURVE SMOOTH",
"176 617 LINE",
"272 506 OFFCURVE",
"559 135 OFFCURVE",
"626 0 CURVE",
"626 -58 LINE SMOOTH",
"626 -150 OFFCURVE",
"605 -223 OFFCURVE",
"554 -223 CURVE SMOOTH",
"534 -223 OFFCURVE",
"534 -210 OFFCURVE",
"534 -187 CURVE SMOOTH",
"534 -160 OFFCURVE",
"516 -137 OFFCURVE",
"486 -137 CURVE SMOOTH",
"456 -137 OFFCURVE",
"438 -161 OFFCURVE",
"438 -187 CURVE SMOOTH",
"438 -237 OFFCURVE",
"474 -264 OFFCURVE",
"524 -264 CURVE SMOOTH"
);
}
);
width = 782;
}
);
leftKerningGroup = H;
leftMetricsKey = N;
rightKerningGroup = N;
rightMetricsKey = N;
unicode = 014A;
},
{
color = 6;
glyphname = O;
layers = (
{
anchors = (
{
name = bottom;
position = "{410, 0}";
},
{
name = center;
position = "{410, 355}";
},
{
name = ogonek;
position = "{484, 0}";
},
{
name = top;
position = "{409, 710}";
},
{
name = topleft;
position = "{22, 710}";
}
);
layerId = "9372F035-DA38-4B54-966C-CEBA9B53DD02";
paths = (
{
closed = 1;
nodes = (
"609 -11 OFFCURVE",
"756 141 OFFCURVE",
"756 357 CURVE SMOOTH",
"756 572 OFFCURVE",
"609 724 OFFCURVE",
"409 724 CURVE SMOOTH",
"209 724 OFFCURVE",
"62 572 OFFCURVE",
"62 357 CURVE SMOOTH",
"62 141 OFFCURVE",
"209 -11 OFFCURVE",
"409 -11 CURVE SMOOTH"
);
},
{
closed = 1;
nodes = (
"236 19 OFFCURVE",
"164 147 OFFCURVE",
"164 357 CURVE SMOOTH",
"164 566 OFFCURVE",
"236 694 OFFCURVE",
"409 694 CURVE SMOOTH",
"582 694 OFFCURVE",
"654 566 OFFCURVE",
"654 357 CURVE SMOOTH",
"654 147 OFFCURVE",
"582 19 OFFCURVE",
"409 19 CURVE SMOOTH"
);
}
);
width = 818;
}
);
leftKerningGroup = O;
rightKerningGroup = O;
unicode = 004F;
},
{
color = 6;
glyphname = OE;
layers = (
{
layerId = "9372F035-DA38-4B54-966C-CEBA9B53DD02";
paths = (
{
closed = 1;
nodes = (
"431 -11 OFFCURVE",
"458 -8 OFFCURVE",
"484 -2 CURVE",
"569 0 LINE",
"960 0 LINE",
"963 90 LINE",
"970 210 LINE",
"945 210 LINE",
"932 52 OFFCURVE",
"900 25 OFFCURVE",
"774 25 CURVE SMOOTH",
"682 25 LINE SMOOTH",
"629 25 OFFCURVE",
"614 54 OFFCURVE",
"614 107 CURVE SMOOTH",
"614 683 LINE",
"714 683 LINE SMOOTH",
"862 683 OFFCURVE",
"894 669 OFFCURVE",
"913 546 CURVE",
"937 546 LINE",
"929 638 LINE",
"927 710 LINE",
"511 710 LINE",
"480 719 OFFCURVE",
"447 725 OFFCURVE",
"414 725 CURVE SMOOTH",
"227 725 OFFCURVE",
"62 572 OFFCURVE",
"62 355 CURVE SMOOTH",
"62 141 OFFCURVE",
"209 -11 OFFCURVE",
"404 -11 CURVE SMOOTH"
);
},
{
closed = 1;
nodes = (
"243 19 OFFCURVE",
"164 145 OFFCURVE",
"164 355 CURVE SMOOTH",
"164 558 OFFCURVE",
"242 695 OFFCURVE",
"414 695 CURVE SMOOTH",
"489 695 OFFCURVE",
"528 672 OFFCURVE",
"528 577 CURVE SMOOTH",
"528 133 LINE SMOOTH",
"528 37 OFFCURVE",
"497 19 OFFCURVE",
"404 19 CURVE SMOOTH"
);
},
{
closed = 1;
nodes = (
"790 226 LINE",
"787 374 LINE",
"790 508 LINE",
"765 508 LINE",
"760 408 OFFCURVE",
"733 387 OFFCURVE",
"694 387 CURVE SMOOTH",
"608 387 LINE",
"608 362 LINE",
"694 362 LINE SMOOTH",
"740 362 OFFCURVE",
"765 324 OFFCURVE",
"765 226 CURVE"
);
}
);
width = 1010;
}
);
leftMetricsKey = O;
rightMetricsKey = E;
unicode = 0152;
},
{
color = 6;
glyphname = P;
layers = (
{
anchors = (
{
name = bottom;
position = "{187, 0}";
},
{
name = top;
position = "{297, 710}";
}
);
layerId = "9372F035-DA38-4B54-966C-CEBA9B53DD02";
paths = (
{
closed = 1;
nodes = (
"185 0 LINE",
"354 -3 LINE",
"354 22 LINE",
"332 24 LINE SMOOTH",
"251 32 OFFCURVE",
"231 34 OFFCURVE",
"231 133 CURVE SMOOTH",
"231 682 LINE",
"363 682 LINE SMOOTH",
"425 682 OFFCURVE",
"515 666 OFFCURVE",
"515 514 CURVE SMOOTH",
"515 408 OFFCURVE",
"486 345 OFFCURVE",
"348 345 CURVE SMOOTH",
"225 345 LINE",
"225 315 LINE",
"348 315 LINE SMOOTH",
"519 315 OFFCURVE",
"610 395 OFFCURVE",
"610 514 CURVE SMOOTH",
"610 680 OFFCURVE",
"485 710 OFFCURVE",
"324 710 CURVE SMOOTH",
"188 710 LINE",
"40 713 LINE",
"40 688 LINE",
"60 686 LINE SMOOTH",
"129 678 OFFCURVE",
"146 676 OFFCURVE",
"146 577 CURVE SMOOTH",
"146 133 LINE SMOOTH",
"146 34 OFFCURVE",
"129 32 OFFCURVE",
"60 24 CURVE SMOOTH",
"40 22 LINE",
"40 -3 LINE"
);
}
);
width = 635;
}
);
leftKerningGroup = H;
leftMetricsKey = I;
rightKerningGroup = P;
unicode = 0050;
},
{
color = 6;
glyphname = Thorn;
layers = (
{
anchors = (
{
name = bottom;
position = "{285, 0}";
},
{
name = top;
position = "{285, 710}";
}
);
layerId = "9372F035-DA38-4B54-966C-CEBA9B53DD02";
paths = (
{
closed = 1;
nodes = (
"191 0 LINE",
"333 -3 LINE",
"333 22 LINE",
"313 24 LINE SMOOTH",
"244 32 OFFCURVE",
"226 34 OFFCURVE",
"226 133 CURVE SMOOTH",
"226 577 LINE SMOOTH",
"226 676 OFFCURVE",
"243 678 OFFCURVE",
"312 686 CURVE SMOOTH",
"332 688 LINE",
"332 713 LINE",
"187 710 LINE",
"40 713 LINE",
"40 688 LINE",
"60 686 LINE SMOOTH",
"129 678 OFFCURVE",
"146 676 OFFCURVE",
"146 577 CURVE SMOOTH",
"146 133 LINE SMOOTH",
"146 34 OFFCURVE",
"130 32 OFFCURVE",
"61 24 CURVE SMOOTH",
"41 22 LINE",
"41 -3 LINE"
);
},
{
closed = 1;
nodes = (
"298 179 LINE SMOOTH",
"469 179 OFFCURVE",
"565 256 OFFCURVE",
"565 370 CURVE SMOOTH",
"565 539 OFFCURVE",
"420 556 OFFCURVE",
"313 556 CURVE SMOOTH",
"220 556 LINE",
"220 531 LINE",
"313 531 LINE SMOOTH",
"426 531 OFFCURVE",
"465 490 OFFCURVE",
"465 370 CURVE SMOOTH",
"465 267 OFFCURVE",
"436 205 OFFCURVE",
"298 205 CURVE SMOOTH",
"221 205 LINE",
"221 179 LINE"
);
}
);
width = 555;
}
);
leftMetricsKey = I;
rightMetricsKey = R;
unicode = 00DE;
},
{
color = 3;
glyphname = Q;
layers = (
{
anchors = (
{
name = top;
position = "{410, 710}";
}
);
components = (
{
name = O;
}
);
layerId = "9372F035-DA38-4B54-966C-CEBA9B53DD02";
paths = (
{
closed = 1;
nodes = (
"743 -294 OFFCURVE",
"784 -233 OFFCURVE",
"794 -124 CURVE",
"774 -124 LINE",
"763 -200 OFFCURVE",
"719 -221 OFFCURVE",
"674 -221 CURVE SMOOTH",
"623 -221 OFFCURVE",
"573 -187 OFFCURVE",
"524 -147 CURVE SMOOTH",
"470 -103 OFFCURVE",
"416 -65 OFFCURVE",
"331 -65 CURVE SMOOTH",
"318 -65 OFFCURVE",
"306 -65 OFFCURVE",
"284 -74 CURVE",
"294 -79 LINE",
"482 8 LINE",
"423 6 LINE",
"242 -77 LINE",
"153 -77 OFFCURVE",
"89 -103 OFFCURVE",
"89 -152 CURVE SMOOTH",
"89 -174 OFFCURVE",
"101 -185 OFFCURVE",
"118 -185 CURVE SMOOTH",
"140 -185 OFFCURVE",
"161 -170 OFFCURVE",
"180 -151 CURVE SMOOTH",
"199 -132 OFFCURVE",
"221 -116 OFFCURVE",
"247 -100 CURVE",
"324 -104 OFFCURVE",
"382 -138 OFFCURVE",
"459 -202 CURVE SMOOTH",
"505 -240 OFFCURVE",
"558 -294 OFFCURVE",
"653 -294 CURVE SMOOTH"
);
}
);
width = 804;
}
);
leftKerningGroup = O;
leftMetricsKey = O;
rightKerningGroup = O;
unicode = 0051;
},
{
color = 6;
glyphname = R;
layers = (
{
anchors = (
{
name = bottom;
position = "{401, 0}";
},
{
name = top;
position = "{313, 710}";
}
);
layerId = "9372F035-DA38-4B54-966C-CEBA9B53DD02";
paths = (
{
closed = 1;
nodes = (
"644 -11 OFFCURVE",
"684 1 OFFCURVE",
"705 12 CURVE",
"698 37 LINE",
"687 31 OFFCURVE",
"673 25 OFFCURVE",
"658 25 CURVE SMOOTH",
"624 25 OFFCURVE",
"589 56 OFFCURVE",
"572 169 CURVE SMOOTH",
"553 293 OFFCURVE",
"482 354 OFFCURVE",
"374 354 CURVE",
"373 351 LINE",
"482 362 OFFCURVE",
"583 408 OFFCURVE",
"583 535 CURVE SMOOTH",
"583 670 OFFCURVE",
"463 710 OFFCURVE",
"328 710 CURVE SMOOTH",
"188 710 LINE",
"40 713 LINE",
"40 688 LINE",
"60 686 LINE SMOOTH",
"129 678 OFFCURVE",
"146 676 OFFCURVE",
"146 577 CURVE SMOOTH",
"146 133 LINE SMOOTH",
"146 34 OFFCURVE",
"129 32 OFFCURVE",
"60 24 CURVE SMOOTH",
"40 22 LINE",
"40 -3 LINE",
"188 0 LINE",
"189 0 LINE",
"337 -3 LINE",
"337 22 LINE",
"317 24 LINE SMOOTH",
"248 32 OFFCURVE",
"231 34 OFFCURVE",
"231 133 CURVE SMOOTH",
"231 684 LINE",
"330 684 LINE SMOOTH",
"447 684 OFFCURVE",
"488 627 OFFCURVE",
"488 529 CURVE SMOOTH",
"488 425 OFFCURVE",
"443 373 OFFCURVE",
"315 373 CURVE SMOOTH",
"225 373 LINE",
"225 346 LINE",
"274 346 LINE SMOOTH",
"448 346 OFFCURVE",
"477 226 OFFCURVE",
"491 119 CURVE SMOOTH",
"501 45 OFFCURVE",
"533 -11 OFFCURVE",
"607 -11 CURVE SMOOTH"
);
}
);
width = 695;
}
);
leftKerningGroup = H;
leftMetricsKey = I;
rightKerningGroup = R;
unicode = 0052;
},
{
color = 6;
glyphname = S;
layers = (
{
anchors = (
{
name = bottom;
position = "{313, 0}";
},
{
name = top;
position = "{285, 710}";
}
);
guideLines = (
{
angle = 90;
position = "{287, 121}";
}
);
layerId = "9372F035-DA38-4B54-966C-CEBA9B53DD02";
paths = (
{
closed = 1;
nodes = (
"419 -11 OFFCURVE",
"506 68 OFFCURVE",
"506 187 CURVE SMOOTH",
"506 300 OFFCURVE",
"439 350 OFFCURVE",
"329 404 CURVE SMOOTH",
"288 424 LINE SMOOTH",
"209 462 OFFCURVE",
"155 499 OFFCURVE",
"155 575 CURVE SMOOTH",
"155 646 OFFCURVE",
"208 696 OFFCURVE",
"287 696 CURVE SMOOTH",
"366 696 OFFCURVE",
"441 630 OFFCURVE",
"454 519 CURVE",
"479 519 LINE",
"477 616 LINE",
"480 712 LINE",
"455 712 LINE",
"453 690 OFFCURVE",
"448 681 OFFCURVE",
"436 681 CURVE SMOOTH",
"425 681 OFFCURVE",
"413 685 OFFCURVE",
"395 694 CURVE SMOOTH",
"374 705 OFFCURVE",
"336 724 OFFCURVE",
"282 724 CURVE SMOOTH",
"164 724 OFFCURVE",
"80 649 OFFCURVE",
"80 543 CURVE SMOOTH",
"80 452 OFFCURVE",
"128 400 OFFCURVE",
"228 352 CURVE SMOOTH",
"270 332 LINE SMOOTH",
"373 283 OFFCURVE",
"434 235 OFFCURVE",
"434 146 CURVE SMOOTH",
"434 56 OFFCURVE",
"370 18 OFFCURVE",
"309 18 CURVE SMOOTH",
"197 18 OFFCURVE",
"119 111 OFFCURVE",
"98 200 CURVE SMOOTH",
"87 247 LINE",
"62 247 LINE",
"65 118 LINE",
"60 0 LINE",
"85 0 LINE",
"88 15 LINE SMOOTH",
"92 33 OFFCURVE",
"97 52 OFFCURVE",
"116 52 CURVE SMOOTH",
"130 52 OFFCURVE",
"148 44 OFFCURVE",
"178 28 CURVE SMOOTH",
"212 10 OFFCURVE",
"256 -11 OFFCURVE",
"309 -11 CURVE SMOOTH"
);
}
);
width = 561;
}
);
leftKerningGroup = S;
rightKerningGroup = S;
unicode = 0053;
},
{
color = 6;
glyphname = T;
layers = (
{
anchors = (
{
name = bottom;
position = "{374, 0}";
},
{
name = center;
position = "{371, 355}";
},
{
name = top;
position = "{377, 710}";
}
);
layerId = "9372F035-DA38-4B54-966C-CEBA9B53DD02";
paths = (
{
closed = 1;
nodes = (
"374 0 LINE",
"537 -3 LINE",
"537 22 LINE",
"515 24 LINE SMOOTH",
"434 32 OFFCURVE",
"414 34 OFFCURVE",
"414 133 CURVE SMOOTH",
"414 701 LINE",
"329 701 LINE",
"329 133 LINE SMOOTH",
"329 34 OFFCURVE",
"309 32 OFFCURVE",
"228 24 CURVE SMOOTH",
"206 22 LINE",
"206 -3 LINE"
);
},
{
closed = 1;
nodes = (
"741 510 LINE",
"716 633 LINE",
"705 713 LINE",
"419 710 LINE",
"324 710 LINE",
"39 713 LINE",
"28 633 LINE",
"3 510 LINE",
"24 505 LINE",
"76 635 OFFCURVE",
"96 683 OFFCURVE",
"188 683 CURVE SMOOTH",
"562 683 LINE SMOOTH",
"648 683 OFFCURVE",
"673 620 OFFCURVE",
"719 504 CURVE"
);
}
);
width = 744;
}
);
leftKerningGroup = T;
rightKerningGroup = T;
unicode = 0054;
},
{
color = 6;
glyphname = U;
layers = (
{
anchors = (
{
name = bottom;
position = "{403, 0}";
},
{
name = ogonek;
position = "{519, 0}";
},
{
name = top;
position = "{409, 710}";
},
{
name = topright;
position = "{746, 710}";
}
);
layerId = "9372F035-DA38-4B54-966C-CEBA9B53DD02";
paths = (
{
closed = 1;
nodes = (
"558 -11 OFFCURVE",
"639 74 OFFCURVE",
"639 229 CURVE SMOOTH",
"639 577 LINE SMOOTH",
"639 676 OFFCURVE",
"656 678 OFFCURVE",
"725 686 CURVE SMOOTH",
"745 688 LINE",
"745 713 LINE",
"646 711 LINE",
"498 713 LINE",
"498 688 LINE",
"518 686 LINE SMOOTH",
"587 678 OFFCURVE",
"604 676 OFFCURVE",
"604 577 CURVE SMOOTH",
"604 229 LINE SMOOTH",
"604 101 OFFCURVE",
"547 22 OFFCURVE",
"413 22 CURVE SMOOTH",
"297 22 OFFCURVE",
"216 88 OFFCURVE",
"216 223 CURVE SMOOTH",
"216 577 LINE SMOOTH",
"216 676 OFFCURVE",
"233 678 OFFCURVE",
"302 686 CURVE SMOOTH",
"322 688 LINE",
"322 713 LINE",
"174 710 LINE",
"173 710 LINE",
"25 713 LINE",
"25 688 LINE",
"45 686 LINE SMOOTH",
"114 678 OFFCURVE",
"131 676 OFFCURVE",
"131 577 CURVE SMOOTH",
"131 223 LINE SMOOTH",
"131 57 OFFCURVE",
"227 -11 OFFCURVE",
"394 -11 CURVE SMOOTH"
);
}
);
width = 750;
}
);
leftKerningGroup = U;
rightKerningGroup = U;
unicode = 0055;
},
{
color = 6;
glyphname = V;
layers = (
{
anchors = (
{
name = bottom;
position = "{373, 0}";
},
{
name = top;
position = "{409, 710}";
}
);
layerId = "9372F035-DA38-4B54-966C-CEBA9B53DD02";
paths = (
{
closed = 1;
nodes = (
"388 -10 LINE",
"628 587 LINE SMOOTH",
"651 644 OFFCURVE",
"674 673 OFFCURVE",
"725 684 CURVE SMOOTH",
"748 689 LINE",
"748 713 LINE",
"648 710 LINE",
"508 713 LINE",
"508 688 LINE",
"543 684 LINE SMOOTH",
"580 680 OFFCURVE",
"603 666 OFFCURVE",
"603 634 CURVE SMOOTH",
"603 622 OFFCURVE",
"600 607 OFFCURVE",
"592 588 CURVE SMOOTH",
"385 75 LINE",
"412 75 LINE",
"196 587 LINE SMOOTH",
"189 604 OFFCURVE",
"185 619 OFFCURVE",
"185 632 CURVE SMOOTH",
"185 665 OFFCURVE",
"211 681 OFFCURVE",
"253 685 CURVE SMOOTH",
"283 688 LINE",
"283 713 LINE",
"134 710 LINE",
"-15 713 LINE",
"-15 688 LINE",
"5 684 LINE SMOOTH",
"54 674 OFFCURVE",
"77 648 OFFCURVE",
"94 607 CURVE SMOOTH",
"356 -10 LINE"
);
}
);
width = 733;
}
);
leftKerningGroup = V;
rightKerningGroup = V;
unicode = 0056;
},
{
color = 6;
glyphname = W;
layers = (
{
anchors = (
{
name = bottom;
position = "{522, 0}";
},
{
name = top;
position = "{544, 710}";
}
);
guideLines = (
{
position = "{259, 687}";
}
);
layerId = "9372F035-DA38-4B54-966C-CEBA9B53DD02";
paths = (
{
closed = 1;
nodes = (
"327 -9 LINE",
"532 547 LINE",
"520 546 LINE",
"728 -9 LINE",
"760 -9 LINE",
"952 621 LINE SMOOTH",
"963 658 OFFCURVE",
"996 676 OFFCURVE",
"1040 683 CURVE SMOOTH",
"1064 687 LINE",
"1064 713 LINE",
"958 710 LINE",
"826 713 LINE",
"826 687 LINE",
"859 683 LINE SMOOTH",
"897 678 OFFCURVE",
"918 668 OFFCURVE",
"918 639 CURVE SMOOTH",
"918 631 OFFCURVE",
"916 621 OFFCURVE",
"913 610 CURVE SMOOTH",
"756 95 LINE",
"779 95 LINE",
"599 582 LINE SMOOTH",
"592 600 OFFCURVE",
"589 616 OFFCURVE",
"589 629 CURVE SMOOTH",
"589 662 OFFCURVE",
"611 681 OFFCURVE",
"654 684 CURVE SMOOTH",
"692 687 LINE",
"690 713 LINE",
"653 711 LINE SMOOTH",
"612 709 OFFCURVE",
"560 702 OFFCURVE",
"545 646 CURVE",
"555 656 LINE",
"548 684 OFFCURVE",
"520 702 OFFCURVE",
"464 708 CURVE SMOOTH",
"422 713 LINE",
"418 687 LINE",
"458 681 LINE SMOOTH",
"497 675 OFFCURVE",
"521 660 OFFCURVE",
"521 629 CURVE SMOOTH",
"521 621 OFFCURVE",
"519 611 OFFCURVE",
"515 599 CURVE SMOOTH",
"328 91 LINE",
"352 91 LINE",
"188 598 LINE SMOOTH",
"183 612 OFFCURVE",
"181 623 OFFCURVE",
"181 633 CURVE SMOOTH",
"181 674 OFFCURVE",
"219 681 OFFCURVE",
"255 685 CURVE SMOOTH",
"283 688 LINE",
"283 713 LINE",
"135 710 LINE",
"-15 713 LINE",
"-15 688 LINE",
"8 683 LINE SMOOTH",
"51 674 OFFCURVE",
"81 651 OFFCURVE",
"99 594 CURVE SMOOTH",
"295 -9 LINE"
);
}
);
width = 1049;
}
);
leftKerningGroup = V;
leftMetricsKey = V;
rightKerningGroup = V;
rightMetricsKey = V;
unicode = 0057;
},
{
color = 6;
glyphname = X;
layers = (
{
anchors = (
{
name = bottom;
position = "{327, 0}";
},
{
name = top;
position = "{390, 710}";
}
);
guideLines = (
{
angle = 90;
position = "{-13, 553}";
},
{
angle = 90;
position = "{702, 554}";
}
);
layerId = "9372F035-DA38-4B54-966C-CEBA9B53DD02";
paths = (
{
closed = 1;
nodes = (
"568 0 LINE",
"717 -3 LINE",
"717 22 LINE",
"687 27 LINE SMOOTH",
"645 34 OFFCURVE",
"608 56 OFFCURVE",
"566 119 CURVE SMOOTH",
"260 577 LINE SMOOTH",
"240 607 OFFCURVE",
"230 630 OFFCURVE",
"230 647 CURVE SMOOTH",
"230 668 OFFCURVE",
"247 679 OFFCURVE",
"282 683 CURVE SMOOTH",
"324 688 LINE",
"324 713 LINE",
"169 710 LINE",
"4 713 LINE",
"4 688 LINE",
"24 684 LINE SMOOTH",
"75 674 OFFCURVE",
"104 664 OFFCURVE",
"150 594 CURVE SMOOTH",
"459 129 LINE SMOOTH",
"476 103 OFFCURVE",
"485 81 OFFCURVE",
"485 64 CURVE SMOOTH",
"485 43 OFFCURVE",
"470 29 OFFCURVE",
"438 26 CURVE SMOOTH",
"397 22 LINE",
"397 -3 LINE"
);
},
{
closed = 1;
nodes = (
"114 0 LINE",
"238 -3 LINE",
"238 22 LINE",
"200 26 LINE SMOOTH",
"178 28 OFFCURVE",
"166 42 OFFCURVE",
"166 62 CURVE SMOOTH",
"166 75 OFFCURVE",
"170 92 OFFCURVE",
"182 109 CURVE SMOOTH",
"339 328 LINE",
"318 354 LINE",
"152 126 LINE SMOOTH",
"90 40 OFFCURVE",
"50 31 OFFCURVE",
"11 25 CURVE SMOOTH",
"-10 22 LINE",
"-10 -3 LINE"
);
},
{
closed = 1;
nodes = (
"539 583 LINE SMOOTH",
"592 657 OFFCURVE",
"639 682 OFFCURVE",
"677 686 CURVE SMOOTH",
"698 688 LINE",
"698 713 LINE",
"582 710 LINE",
"450 713 LINE",
"450 688 LINE",
"483 684 LINE SMOOTH",
"514 680 OFFCURVE",
"527 666 OFFCURVE",
"527 646 CURVE SMOOTH",
"527 633 OFFCURVE",
"521 617 OFFCURVE",
"509 600 CURVE SMOOTH",
"367 402 LINE",
"388 375 LINE"
);
}
);
width = 707;
}
);
leftKerningGroup = X;
rightKerningGroup = X;
unicode = 0058;
},
{
color = 6;
glyphname = Y;
layers = (
{
anchors = (
{
name = bottom;
position = "{325, 0}";
},
{
name = top;
position = "{375, 710}";
},
{
name = topleft;
position = "{-55, 710}";
}
);
layerId = "9372F035-DA38-4B54-966C-CEBA9B53DD02";
paths = (
{
closed = 1;
nodes = (
"336 0 LINE",
"337 0 LINE",
"485 -3 LINE",
"485 22 LINE",
"465 24 LINE SMOOTH",
"396 32 OFFCURVE",
"379 34 OFFCURVE",
"379 133 CURVE SMOOTH",
"379 288 LINE",
"561 606 LINE SMOOTH",
"589 655 OFFCURVE",
"612 675 OFFCURVE",
"655 683 CURVE SMOOTH",
"682 688 LINE",
"682 713 LINE",
"576 708 LINE",
"444 713 LINE",
"444 688 LINE",
"473 685 LINE SMOOTH",
"506 682 OFFCURVE",
"530 672 OFFCURVE",
"530 644 CURVE SMOOTH",
"530 629 OFFCURVE",
"523 609 OFFCURVE",
"508 582 CURVE SMOOTH",
"345 297 LINE",
"381 297 LINE",
"217 582 LINE SMOOTH",
"202 608 OFFCURVE",
"195 628 OFFCURVE",
"195 643 CURVE SMOOTH",
"195 670 OFFCURVE",
"217 682 OFFCURVE",
"250 685 CURVE SMOOTH",
"282 688 LINE",
"282 713 LINE",
"132 710 LINE",
"-20 713 LINE",
"-20 688 LINE",
"9 682 LINE SMOOTH",
"63 671 OFFCURVE",
"88 647 OFFCURVE",
"119 593 CURVE SMOOTH",
"294 287 LINE",
"294 133 LINE SMOOTH",
"294 34 OFFCURVE",
"277 32 OFFCURVE",
"208 24 CURVE SMOOTH",
"188 22 LINE",
"188 -3 LINE"
);
}
);
width = 662;
}
);
leftKerningGroup = Y;
rightKerningGroup = Y;
unicode = 0059;
},
{
color = 6;
glyphname = Z;
layers = (
{
anchors = (
{
name = bottom;
position = "{309, 0}";
},
{
name = top;
position = "{309, 710}";
}
);
layerId = "9372F035-DA38-4B54-966C-CEBA9B53DD02";
paths = (
{
closed = 1;
nodes = (
"589 100 LINE",
"599 267 LINE",
"575 267 LINE",
"554 115 OFFCURVE",
"529 33 OFFCURVE",
"378 32 CURVE SMOOTH",
"103 30 LINE",
"116 4 LINE",
"585 679 LINE",
"585 713 LINE",
"361 710 LINE",
"66 712 LINE",
"64 659 LINE",
"53 526 LINE",
"77 526 LINE",
"93 640 OFFCURVE",
"107 676 OFFCURVE",
"289 678 CURVE SMOOTH",
"516 680 LINE",
"503 706 LINE",
"30 26 LINE",
"30 0 LINE",
"383 0 LINE",
"589 -3 LINE"
);
}
);
width = 639;
}
);
leftKerningGroup = H;
rightKerningGroup = H;
unicode = 005A;
},
{
color = 6;
glyphname = a;
layers = (
{
anchors = (
{
name = bottom;
position = "{169, 0}";
},
{
name = ogonek;
position = "{459, 0}";
},
{
name = top;
position = "{241, 433}";
}
);
layerId = "9372F035-DA38-4B54-966C-CEBA9B53DD02";
paths = (
{
closed = 1;
nodes = (
"453 -11 OFFCURVE",
"479 13 OFFCURVE",
"490 52 CURVE",
"472 59 LINE",
"466 41 OFFCURVE",
"451 24 OFFCURVE",
"431 24 CURVE SMOOTH",
"400 24 OFFCURVE",
"395 57 OFFCURVE",
"395 116 CURVE SMOOTH",
"395 296 LINE SMOOTH",
"395 408 OFFCURVE",
"348 454 OFFCURVE",
"241 454 CURVE SMOOTH",
"166 454 OFFCURVE",
"69 427 OFFCURVE",
"69 356 CURVE SMOOTH",
"69 331 OFFCURVE",
"87 310 OFFCURVE",
"111 310 CURVE SMOOTH",
"136 310 OFFCURVE",
"157 325 OFFCURVE",
"157 350 CURVE SMOOTH",
"157 360 OFFCURVE",
"155 369 OFFCURVE",
"152 377 CURVE SMOOTH",
"150 383 OFFCURVE",
"148 390 OFFCURVE",
"148 396 CURVE SMOOTH",
"148 421 OFFCURVE",
"191 429 OFFCURVE",
"227 429 CURVE SMOOTH",
"303 429 OFFCURVE",
"325 393 OFFCURVE",
"325 320 CURVE SMOOTH",
"325 104 LINE SMOOTH",
"325 36 OFFCURVE",
"339 -11 OFFCURVE",
"405 -11 CURVE SMOOTH"
);
},
{
closed = 1;
nodes = (
"234 -11 OFFCURVE",
"299 27 OFFCURVE",
"334 97 CURVE",
"328 130 LINE",
"312 79 OFFCURVE",
"254 26 OFFCURVE",
"193 26 CURVE SMOOTH",
"150 26 OFFCURVE",
"128 50 OFFCURVE",
"128 87 CURVE SMOOTH",
"128 170 OFFCURVE",
"241 233 OFFCURVE",
"330 270 CURVE",
"329 289 LINE",
"291 275 OFFCURVE",
"234 253 OFFCURVE",
"180 223 CURVE SMOOTH",
"111 185 OFFCURVE",
"50 141 OFFCURVE",
"50 82 CURVE SMOOTH",
"50 23 OFFCURVE",
"97 -11 OFFCURVE",
"161 -11 CURVE SMOOTH"
);
}
);
width = 490;
}
);
leftKerningGroup = a;
rightKerningGroup = a;
unicode = 0061;
},
{
color = 6;
glyphname = ae;
layers = (
{
layerId = "9372F035-DA38-4B54-966C-CEBA9B53DD02";
paths = (
{
closed = 1;
nodes = (
"624 -11 OFFCURVE",
"683 31 OFFCURVE",
"711 117 CURVE",
"687 124 LINE",
"661 55 OFFCURVE",
"609 21 OFFCURVE",
"550 21 CURVE SMOOTH",
"454 21 OFFCURVE",
"395 105 OFFCURVE",
"395 222 CURVE SMOOTH",
"395 245 LINE SMOOTH",
"395 345 OFFCURVE",
"452 429 OFFCURVE",
"538 429 CURVE SMOOTH",
"585 429 OFFCURVE",
"636 393 OFFCURVE",
"636 335 CURVE SMOOTH",
"636 305 OFFCURVE",
"617 268 OFFCURVE",
"524 268 CURVE SMOOTH",
"392 268 LINE",
"390 245 LINE",
"697 245 LINE",
"699 251 OFFCURVE",
"702 262 OFFCURVE",
"702 275 CURVE SMOOTH",
"702 383 OFFCURVE",
"638 454 OFFCURVE",
"538 454 CURVE SMOOTH",
"457 454 OFFCURVE",
"402 413 OFFCURVE",
"370 364 CURVE",
"387 363 LINE",
"372 412 OFFCURVE",
"335 454 OFFCURVE",
"243 454 CURVE SMOOTH",
"166 454 OFFCURVE",
"69 424 OFFCURVE",
"69 353 CURVE SMOOTH",
"69 328 OFFCURVE",
"87 310 OFFCURVE",
"110 310 CURVE SMOOTH",
"136 310 OFFCURVE",
"157 325 OFFCURVE",
"157 350 CURVE SMOOTH",
"157 360 OFFCURVE",
"155 369 OFFCURVE",
"152 377 CURVE",
"150 383 OFFCURVE",
"148 390 OFFCURVE",
"148 396 CURVE SMOOTH",
"148 421 OFFCURVE",
"202 429 OFFCURVE",
"238 429 CURVE SMOOTH",
"317 429 OFFCURVE",
"325 373 OFFCURVE",
"325 306 CURVE SMOOTH",
"325 114 LINE",
"363 42 OFFCURVE",
"435 -11 OFFCURVE",
"536 -11 CURVE SMOOTH"
);
},
{
closed = 1;
nodes = (
"233 -11 OFFCURVE",
"303 31 OFFCURVE",
"343 103 CURVE",
"328 130 LINE",
"313 78 OFFCURVE",
"249 24 OFFCURVE",
"199 24 CURVE SMOOTH",
"159 24 OFFCURVE",
"128 49 OFFCURVE",
"128 87 CURVE SMOOTH",
"128 170 OFFCURVE",
"241 233 OFFCURVE",
"330 270 CURVE",
"329 289 LINE",
"243 257 OFFCURVE",
"50 180 OFFCURVE",
"50 83 CURVE SMOOTH",
"50 18 OFFCURVE",
"100 -11 OFFCURVE",
"169 -11 CURVE SMOOTH"
);
}
);
width = 756;
}
);
leftKerningGroup = a;
leftMetricsKey = a;
rightKerningGroup = o;
rightMetricsKey = o;
unicode = 00E6;
},
{
color = 6;
glyphname = b;
layers = (
{
anchors = (
{
name = bottom;
position = "{274, 0}";
},
{
name = top;
position = "{299, 433}";
}
);
layerId = "9372F035-DA38-4B54-966C-CEBA9B53DD02";
paths = (
{
closed = 1;
nodes = (
"422 -11 OFFCURVE",
"510 91 OFFCURVE",
"510 220 CURVE SMOOTH",
"510 351 OFFCURVE",
"422 454 OFFCURVE",
"307 454 CURVE SMOOTH",
"239 454 OFFCURVE",
"185 418 OFFCURVE",
"148 367 CURVE",
"162 350 LINE",
"193 390 OFFCURVE",
"236 424 OFFCURVE",
"297 424 CURVE SMOOTH",
"386 424 OFFCURVE",
"430 336 OFFCURVE",
"430 220 CURVE SMOOTH",
"430 106 OFFCURVE",
"386 19 OFFCURVE",
"294 19 CURVE SMOOTH",
"232 19 OFFCURVE",
"178 62 OFFCURVE",
"161 99 CURVE",
"152 65 LINE",
"179 28 OFFCURVE",
"236 -11 OFFCURVE",
"303 -11 CURVE SMOOTH"
);
},
{
closed = 1;
nodes = (
"114 -11 LINE",
"175 57 LINE",
"168 80 LINE",
"168 644 LINE",
"98 644 LINE",
"98 -11 LINE"
);
},
{
closed = 1;
nodes = (
"168 624 LINE",
"168 725 LINE",
"113 715 OFFCURVE",
"65 713 OFFCURVE",
"10 713 CURVE",
"10 690 LINE",
"17 690 LINE SMOOTH",
"67 690 OFFCURVE",
"98 678 OFFCURVE",
"98 609 CURVE"
);
}
);
width = 555;
}
);
leftKerningGroup = b;
rightKerningGroup = o;
rightMetricsKey = o;
unicode = 0062;
},
{
color = 6;
glyphname = c;
layers = (
{
anchors = (
{
name = bottom;
position = "{260, 0}";
},
{
name = top;
position = "{262, 433}";
}
);
layerId = "9372F035-DA38-4B54-966C-CEBA9B53DD02";
paths = (
{
closed = 1;
nodes = (
"342 -11 OFFCURVE",
"415 23 OFFCURVE",
"440 115 CURVE",
"416 123 LINE",
"393 47 OFFCURVE",
"337 19 OFFCURVE",
"281 19 CURVE SMOOTH",
"179 19 OFFCURVE",
"125 110 OFFCURVE",
"125 216 CURVE SMOOTH",
"125 344 OFFCURVE",
"186 429 OFFCURVE",
"279 429 CURVE SMOOTH",
"299 429 OFFCURVE",
"335 424 OFFCURVE",
"335 406 CURVE SMOOTH",
"335 398 OFFCURVE",
"333 391 OFFCURVE",
"331 384 CURVE SMOOTH",
"329 377 OFFCURVE",
"327 369 OFFCURVE",
"327 359 CURVE SMOOTH",
"327 339 OFFCURVE",
"344 314 OFFCURVE",
"379 314 CURVE SMOOTH",
"405 314 OFFCURVE",
"427 335 OFFCURVE",
"427 365 CURVE SMOOTH",
"427 423 OFFCURVE",
"344 454 OFFCURVE",
"280 454 CURVE SMOOTH",
"146 454 OFFCURVE",
"45 351 OFFCURVE",
"45 211 CURVE SMOOTH",
"45 83 OFFCURVE",
"131 -11 OFFCURVE",
"266 -11 CURVE SMOOTH"
);
}
);
width = 470;
}
);
leftKerningGroup = o;
leftMetricsKey = o;
rightKerningGroup = o;
unicode = 0063;
},
{
color = 6;
glyphname = d;
layers = (
{
anchors = (
{
name = bottom;
position = "{283, 0}";
},
{
name = center;
position = "{385, 567}";
},
{
name = top;
position = "{283, 433}";
},
{
name = topright;
position = "{485, 710}";
}
);
layerId = "9372F035-DA38-4B54-966C-CEBA9B53DD02";
paths = (
{
closed = 1;
nodes = (
"316 -11 OFFCURVE",
"370 25 OFFCURVE",
"407 76 CURVE",
"393 93 LINE",
"362 53 OFFCURVE",
"319 19 OFFCURVE",
"258 19 CURVE SMOOTH",
"169 19 OFFCURVE",
"125 107 OFFCURVE",
"125 223 CURVE SMOOTH",
"125 337 OFFCURVE",
"169 424 OFFCURVE",
"261 424 CURVE SMOOTH",
"323 424 OFFCURVE",
"377 381 OFFCURVE",
"394 344 CURVE",
"403 378 LINE",
"376 415 OFFCURVE",
"319 454 OFFCURVE",
"252 454 CURVE SMOOTH",
"133 454 OFFCURVE",
"45 352 OFFCURVE",
"45 223 CURVE SMOOTH",
"45 92 OFFCURVE",
"133 -11 OFFCURVE",
"248 -11 CURVE SMOOTH"
);
},
{
closed = 1;
nodes = (
"444 -1 OFFCURVE",
"469 0 OFFCURVE",
"499 0 CURVE SMOOTH",
"540 0 LINE",
"540 23 LINE",
"486 23 OFFCURVE",
"457 34 OFFCURVE",
"457 109 CURVE SMOOTH",
"457 634 LINE",
"387 634 LINE",
"387 83 LINE",
"395 70 LINE",
"409 -8 LINE"
);
},
{
closed = 1;
nodes = (
"457 624 LINE",
"457 725 LINE",
"402 715 OFFCURVE",
"354 713 OFFCURVE",
"299 713 CURVE",
"299 690 LINE",
"306 690 LINE SMOOTH",
"356 690 OFFCURVE",
"387 678 OFFCURVE",
"387 609 CURVE"
);
}
);
width = 545;
}
);
leftKerningGroup = o;
leftMetricsKey = o;
rightKerningGroup = l;
unicode = 0064;
},
{
color = 6;
glyphname = eth;
layers = (
{
anchors = (
{
name = bottom;
position = "{275, 0}";
},
{
name = center;
position = "{275, 218}";
},
{
name = ogonek;
position = "{494, 10}";
},
{
name = top;
position = "{275, 429}";
}
);
layerId = "9372F035-DA38-4B54-966C-CEBA9B53DD02";
paths = (
{
closed = 1;
nodes = (
"404 -11 OFFCURVE",
"505 92 OFFCURVE",
"505 237 CURVE SMOOTH",
"505 420 OFFCURVE",
"365 641 OFFCURVE",
"131 724 CURVE",
"121 702 LINE",
"258 640 OFFCURVE",
"354 529 OFFCURVE",
"402 402 CURVE",
"411 410 LINE",
"372 438 OFFCURVE",
"326 454 OFFCURVE",
"275 454 CURVE SMOOTH",
"146 454 OFFCURVE",
"45 351 OFFCURVE",
"45 220 CURVE SMOOTH",
"45 92 OFFCURVE",
"146 -11 OFFCURVE",
"275 -11 CURVE SMOOTH"
);
},
{
closed = 1;
nodes = (
"167 14 OFFCURVE",
"125 104 OFFCURVE",
"125 220 CURVE SMOOTH",
"125 339 OFFCURVE",
"167 429 OFFCURVE",
"275 429 CURVE SMOOTH",
"383 429 OFFCURVE",
"425 339 OFFCURVE",
"425 220 CURVE SMOOTH",
"425 104 OFFCURVE",
"383 14 OFFCURVE",
"275 14 CURVE SMOOTH"
);
},
{
closed = 1;
nodes = (
"419 661 LINE",
"410 684 LINE",
"130 578 LINE",
"138 555 LINE"
);
}
);
width = 550;
}
);
leftKerningGroup = o;
leftMetricsKey = o;
rightKerningGroup = O;
rightMetricsKey = o;
unicode = 00F0;
},
{
color = 6;
glyphname = e;
layers = (
{
anchors = (
{
name = bottom;
position = "{269, 0}";
},
{
name = ogonek;
position = "{372, 0}";
},
{
name = top;
position = "{266, 436}";
}
);
layerId = "9372F035-DA38-4B54-966C-CEBA9B53DD02";
paths = (
{
closed = 1;
nodes = (
"355 -11 OFFCURVE",
"414 31 OFFCURVE",
"442 115 CURVE",
"418 124 LINE",
"391 54 OFFCURVE",
"340 19 OFFCURVE",
"278 19 CURVE SMOOTH",
"177 19 OFFCURVE",
"125 110 OFFCURVE",
"125 217 CURVE SMOOTH",
"125 342 OFFCURVE",
"171 429 OFFCURVE",
"267 429 CURVE SMOOTH",
"316 429 OFFCURVE",
"364 393 OFFCURVE",
"364 335 CURVE SMOOTH",
"364 305 OFFCURVE",
"345 268 OFFCURVE",
"255 268 CURVE SMOOTH",
"123 268 LINE",
"121 245 LINE",
"428 245 LINE",
"429 249 OFFCURVE",
"431 260 OFFCURVE",
"431 276 CURVE SMOOTH",
"431 382 OFFCURVE",
"369 454 OFFCURVE",
"267 454 CURVE SMOOTH",
"145 454 OFFCURVE",
"45 351 OFFCURVE",
"45 212 CURVE SMOOTH",
"45 81 OFFCURVE",
"132 -11 OFFCURVE",
"264 -11 CURVE SMOOTH"
);
}
);
width = 477;
}
);
leftKerningGroup = o;
leftMetricsKey = o;
rightKerningGroup = o;
unicode = 0065;
},
{
color = 6;
glyphname = f;
layers = (
{
layerId = "9372F035-DA38-4B54-966C-CEBA9B53DD02";
paths = (
{
closed = 1;
nodes = (
"148 0 LINE",
"271 -3 LINE",
"271 20 LINE",
"255 22 LINE SMOOTH",
"197 29 OFFCURVE",
"183 31 OFFCURVE",
"183 121 CURVE SMOOTH",
"183 550 LINE SMOOTH",
"183 632 OFFCURVE",
"197 699 OFFCURVE",
"273 699 CURVE SMOOTH",
"290 699 OFFCURVE",
"308 692 OFFCURVE",
"308 675 CURVE SMOOTH",
"308 671 OFFCURVE",
"307 667 OFFCURVE",
"305 662 CURVE SMOOTH",
"302 654 OFFCURVE",
"299 645 OFFCURVE",
"299 632 CURVE SMOOTH",
"299 611 OFFCURVE",
"318 590 OFFCURVE",
"343 590 CURVE SMOOTH",
"370 590 OFFCURVE",
"392 608 OFFCURVE",
"392 643 CURVE SMOOTH",
"392 696 OFFCURVE",
"341 724 OFFCURVE",
"273 724 CURVE SMOOTH",
"168 724 OFFCURVE",
"113 672 OFFCURVE",
"113 550 CURVE SMOOTH",
"113 121 LINE SMOOTH",
"113 31 OFFCURVE",
"99 29 OFFCURVE",
"41 22 CURVE SMOOTH",
"25 20 LINE",
"25 -3 LINE"
);
},
{
closed = 1;
nodes = (
"119 411 LINE",
"119 436 LINE",
"27 436 LINE",
"27 411 LINE"
);
},
{
closed = 1;
nodes = (
"286 411 LINE",
"286 436 LINE",
"177 436 LINE",
"177 411 LINE"
);
}
);
width = 339;
}
);
leftKerningGroup = l;
rightKerningGroup = f;
unicode = 0066;
},
{
color = 6;
glyphname = g;
layers = (
{
anchors = (
{
name = top;
position = "{251, 436}";
}
);
guideLines = (
{
angle = 90;
position = "{252, 323}";
}
);
layerId = "9372F035-DA38-4B54-966C-CEBA9B53DD02";
paths = (
{
closed = 1;
nodes = (
"375 -294 OFFCURVE",
"488 -230 OFFCURVE",
"488 -116 CURVE SMOOTH",
"488 7 OFFCURVE",
"387 24 OFFCURVE",
"262 30 CURVE SMOOTH",
"218 32 LINE SMOOTH",
"162 35 OFFCURVE",
"112 41 OFFCURVE",
"112 83 CURVE SMOOTH",
"112 118 OFFCURVE",
"156 137 OFFCURVE",
"196 144 CURVE",
"165 156 LINE",
"109 143 OFFCURVE",
"52 101 OFFCURVE",
"52 46 CURVE SMOOTH",
"52 -28 OFFCURVE",
"134 -39 OFFCURVE",
"195 -42 CURVE SMOOTH",
"297 -47 LINE SMOOTH",
"396 -52 OFFCURVE",
"442 -77 OFFCURVE",
"442 -137 CURVE SMOOTH",
"442 -223 OFFCURVE",
"354 -269 OFFCURVE",
"252 -269 CURVE SMOOTH",
"160 -269 OFFCURVE",
"82 -245 OFFCURVE",
"82 -176 CURVE SMOOTH",
"82 -142 OFFCURVE",
"107 -133 OFFCURVE",
"107 -99 CURVE SMOOTH",
"107 -74 OFFCURVE",
"88 -61 OFFCURVE",
"66 -61 CURVE SMOOTH",
"32 -61 OFFCURVE",
"10 -93 OFFCURVE",
"10 -135 CURVE SMOOTH",
"10 -245 OFFCURVE",
"127 -294 OFFCURVE",
"252 -294 CURVE SMOOTH"
);
},
{
closed = 1;
nodes = (
"356 132 OFFCURVE",
"437 203 OFFCURVE",
"437 293 CURVE SMOOTH",
"437 383 OFFCURVE",
"355 454 OFFCURVE",
"252 454 CURVE SMOOTH",
"148 454 OFFCURVE",
"67 384 OFFCURVE",
"67 293 CURVE SMOOTH",
"67 201 OFFCURVE",
"150 132 OFFCURVE",
"252 132 CURVE SMOOTH"
);
},
{
closed = 1;
nodes = (
"174 157 OFFCURVE",
"144 216 OFFCURVE",
"144 293 CURVE SMOOTH",
"144 370 OFFCURVE",
"174 429 OFFCURVE",
"252 429 CURVE SMOOTH",
"330 429 OFFCURVE",
"360 370 OFFCURVE",
"360 293 CURVE SMOOTH",
"360 216 OFFCURVE",
"330 157 OFFCURVE",
"252 157 CURVE SMOOTH"
);
},
{
closed = 1;
nodes = (
"524 378 OFFCURVE",
"546 394 OFFCURVE",
"546 422 CURVE SMOOTH",
"546 456 OFFCURVE",
"511 479 OFFCURVE",
"470 479 CURVE SMOOTH",
"428 479 OFFCURVE",
"384 462 OFFCURVE",
"356 420 CURVE",
"375 407 LINE",
"387 427 OFFCURVE",
"407 448 OFFCURVE",
"430 448 CURVE SMOOTH",
"447 448 OFFCURVE",
"455 436 OFFCURVE",
"458 420 CURVE SMOOTH",
"463 394 OFFCURVE",
"480 378 OFFCURVE",
"503 378 CURVE SMOOTH"
);
}
);
width = 554;
}
);
leftKerningGroup = g;
rightKerningGroup = g;
unicode = 0067;
},
{
color = 6;
glyphname = h;
layers = (
{
anchors = (
{
name = bottom;
position = "{289, 0}";
},
{
name = center;
position = "{142, 567}";
},
{
name = top;
position = "{108, 710}";
}
);
layerId = "9372F035-DA38-4B54-966C-CEBA9B53DD02";
paths = (
{
closed = 1;
nodes = (
"138 0 LINE",
"261 -3 LINE",
"261 20 LINE",
"245 22 LINE SMOOTH",
"187 29 OFFCURVE",
"173 31 OFFCURVE",
"173 121 CURVE SMOOTH",
"173 640 LINE",
"103 640 LINE",
"103 121 LINE SMOOTH",
"103 31 OFFCURVE",
"89 29 OFFCURVE",
"31 22 CURVE SMOOTH",
"15 20 LINE",
"15 -3 LINE"
);
},
{
closed = 1;
nodes = (
"448 0 LINE",
"571 -3 LINE",
"571 20 LINE",
"555 22 LINE SMOOTH",
"497 29 OFFCURVE",
"483 31 OFFCURVE",
"483 121 CURVE SMOOTH",
"483 321 LINE SMOOTH",
"483 406 OFFCURVE",
"427 454 OFFCURVE",
"336 454 CURVE SMOOTH",
"232 454 OFFCURVE",
"161 373 OFFCURVE",
"150 315 CURVE",
"171 315 LINE",
"186 360 OFFCURVE",
"238 424 OFFCURVE",
"314 424 CURVE SMOOTH",
"377 424 OFFCURVE",
"413 388 OFFCURVE",
"413 321 CURVE SMOOTH",
"413 121 LINE SMOOTH",
"413 31 OFFCURVE",
"399 29 OFFCURVE",
"341 22 CURVE SMOOTH",
"325 20 LINE",
"325 -3 LINE"
);
},
{
closed = 1;
nodes = (
"173 624 LINE",
"173 725 LINE",
"118 715 OFFCURVE",
"70 713 OFFCURVE",
"15 713 CURVE",
"15 690 LINE",
"22 690 LINE SMOOTH",
"72 690 OFFCURVE",
"103 678 OFFCURVE",
"103 609 CURVE"
);
}
);
width = 582;
}
);
leftKerningGroup = l;
leftMetricsKey = l;
rightKerningGroup = n;
rightMetricsKey = n;
unicode = 0068;
},
{
color = 6;
glyphname = idotless;
layers = (
{
anchors = (
{
name = bottom;
position = "{149, 0}";
},
{
name = ogonek;
position = "{172, 0}";
},
{
name = top;
position = "{142, 436}";
}
);
hints = (
{
horizontal = 1;
place = "{-3, 24}";
type = Stem;
},
{
origin = "{0, 9}";
target = "{0, 6}";
type = Stem;
}
);
layerId = "9372F035-DA38-4B54-966C-CEBA9B53DD02";
paths = (
{
closed = 1;
nodes = (
"151 0 LINE",
"274 -3 LINE",
"274 20 LINE",
"258 22 LINE SMOOTH",
"200 29 OFFCURVE",
"186 31 OFFCURVE",
"186 121 CURVE SMOOTH",
"186 375 LINE",
"116 375 LINE",
"116 121 LINE SMOOTH",
"116 31 OFFCURVE",
"102 29 OFFCURVE",
"44 22 CURVE SMOOTH",
"28 20 LINE",
"28 -3 LINE"
);
},
{
closed = 1;
nodes = (
"186 347 LINE",
"186 448 LINE",
"131 438 OFFCURVE",
"83 436 OFFCURVE",
"28 436 CURVE",
"28 413 LINE",
"35 413 LINE SMOOTH",
"85 413 OFFCURVE",
"116 401 OFFCURVE",
"116 332 CURVE"
);
}
);
width = 299;
}
);
leftKerningGroup = n;
rightKerningGroup = u;
unicode = 0131;
},
{
color = 6;
glyphname = jdotless;
layers = (
{
anchors = (
{
name = bottom;
position = "{146, 0}";
},
{
name = top;
position = "{149, 430}";
}
);
layerId = "9372F035-DA38-4B54-966C-CEBA9B53DD02";
paths = (
{
closed = 1;
nodes = (
"131 -294 OFFCURVE",
"189 -237 OFFCURVE",
"189 -152 CURVE SMOOTH",
"189 451 LINE",
"134 441 OFFCURVE",
"86 436 OFFCURVE",
"31 436 CURVE",
"31 413 LINE",
"85 413 OFFCURVE",
"119 407 OFFCURVE",
"119 335 CURVE SMOOTH",
"119 -152 LINE SMOOTH",
"119 -205 OFFCURVE",
"114 -273 OFFCURVE",
"69 -273 CURVE SMOOTH",
"54 -273 OFFCURVE",
"41 -264 OFFCURVE",
"41 -246 CURVE SMOOTH",
"41 -240 OFFCURVE",
"42 -235 OFFCURVE",
"45 -226 CURVE SMOOTH",
"47 -220 OFFCURVE",
"49 -213 OFFCURVE",
"49 -207 CURVE SMOOTH",
"49 -189 OFFCURVE",
"36 -167 OFFCURVE",
"6 -167 CURVE SMOOTH",
"-29 -167 OFFCURVE",
"-47 -193 OFFCURVE",
"-47 -223 CURVE SMOOTH",
"-47 -266 OFFCURVE",
"-11 -294 OFFCURVE",
"52 -294 CURVE SMOOTH"
);
}
);
width = 276;
}
);
leftKerningGroup = n;
rightKerningGroup = u;
unicode = 0237;
},
{
color = 6;
glyphname = k;
layers = (
{
anchors = (
{
name = bottom;
position = "{322, 0}";
},
{
name = top;
position = "{250, 436}";
}
);
layerId = "9372F035-DA38-4B54-966C-CEBA9B53DD02";
paths = (
{
closed = 1;
nodes = (
"138 0 LINE",
"261 -3 LINE",
"261 20 LINE",
"245 22 LINE SMOOTH",
"187 29 OFFCURVE",
"173 31 OFFCURVE",
"173 121 CURVE SMOOTH",
"173 644 LINE",
"103 644 LINE",
"103 121 LINE SMOOTH",
"103 31 OFFCURVE",
"89 29 OFFCURVE",
"31 22 CURVE SMOOTH",
"15 20 LINE",
"15 -3 LINE"
);
},
{
closed = 1;
nodes = (
"524 20 LINE",
"508 22 LINE",
"484 24 OFFCURVE",
"459 53 OFFCURVE",
"439 76 CURVE SMOOTH",
"257 280 LINE",
"212 226 LINE",
"413 0 LINE",
"524 -3 LINE"
);
},
{
closed = 1;
nodes = (
"327 335 LINE SMOOTH",
"360 375 OFFCURVE",
"398 405 OFFCURVE",
"458 413 CURVE SMOOTH",
"474 415 LINE",
"474 438 LINE",
"390 436 LINE",
"294 438 LINE",
"294 415 LINE",
"310 413 LINE SMOOTH",
"327 411 OFFCURVE",
"334 405 OFFCURVE",
"334 395 CURVE SMOOTH",
"334 388 OFFCURVE",
"330 378 OFFCURVE",
"321 367 CURVE SMOOTH",
"168 184 LINE",
"168 146 LINE"
);
},
{
closed = 1;
nodes = (
"173 624 LINE",
"173 725 LINE",
"118 715 OFFCURVE",
"70 713 OFFCURVE",
"15 713 CURVE",
"15 690 LINE",
"22 690 LINE SMOOTH",
"72 690 OFFCURVE",
"103 678 OFFCURVE",
"103 609 CURVE"
);
}
);
width = 524;
}
);
leftKerningGroup = l;
leftMetricsKey = l;
rightKerningGroup = k;
unicode = 006B;
},
{
color = 6;
glyphname = l;
layers = (
{
anchors = (
{
name = bottom;
position = "{135, 0}";
},
{
name = center;
position = "{135, 386}";
},
{
name = top;
position = "{137, 710}";
},
{
name = topright;
position = "{212, 710}";
}
);
layerId = "9372F035-DA38-4B54-966C-CEBA9B53DD02";
paths = (
{
closed = 1;
nodes = (
"138 0 LINE",
"261 -3 LINE",
"261 20 LINE",
"245 22 LINE SMOOTH",
"187 29 OFFCURVE",
"173 31 OFFCURVE",
"173 121 CURVE SMOOTH",
"173 644 LINE",
"103 644 LINE",
"103 121 LINE SMOOTH",
"103 31 OFFCURVE",
"89 29 OFFCURVE",
"31 22 CURVE SMOOTH",
"15 20 LINE",
"15 -3 LINE"
);
},
{
closed = 1;
nodes = (
"173 624 LINE",
"173 725 LINE",
"118 715 OFFCURVE",
"70 713 OFFCURVE",
"15 713 CURVE",
"15 690 LINE",
"22 690 LINE SMOOTH",
"72 690 OFFCURVE",
"103 678 OFFCURVE",
"103 609 CURVE"
);
}
);
width = 276;
}
);
leftKerningGroup = l;
rightKerningGroup = l;
unicode = 006C;
},
{
color = 6;
glyphname = m;
layers = (
{
anchors = (
{
name = top;
position = "{486, 436}";
}
);
layerId = "9372F035-DA38-4B54-966C-CEBA9B53DD02";
paths = (
{
closed = 1;
nodes = (
"741 0 LINE",
"863 -3 LINE",
"863 20 LINE",
"847 22 LINE SMOOTH",
"788 29 OFFCURVE",
"776 33 OFFCURVE",
"776 121 CURVE SMOOTH",
"776 312 LINE SMOOTH",
"776 410 OFFCURVE",
"720 454 OFFCURVE",
"634 454 CURVE SMOOTH",
"537 454 OFFCURVE",
"469 378 OFFCURVE",
"459 315 CURVE",
"479 315 LINE",
"493 362 OFFCURVE",
"540 424 OFFCURVE",
"614 424 CURVE SMOOTH",
"672 424 OFFCURVE",
"706 388 OFFCURVE",
"706 329 CURVE SMOOTH",
"706 121 LINE SMOOTH",
"706 31 OFFCURVE",
"694 28 OFFCURVE",
"644 22 CURVE SMOOTH",
"628 20 LINE",
"628 -3 LINE"
);
},
{
closed = 1;
nodes = (
"151 0 LINE",
"264 -3 LINE",
"264 20 LINE",
"248 22 LINE SMOOTH",
"198 29 OFFCURVE",
"186 31 OFFCURVE",
"186 121 CURVE SMOOTH",
"186 375 LINE",
"116 375 LINE",
"116 121 LINE SMOOTH",
"116 31 OFFCURVE",
"102 29 OFFCURVE",
"44 22 CURVE SMOOTH",
"28 20 LINE",
"28 -3 LINE"
);
},
{
closed = 1;
nodes = (
"186 347 LINE",
"186 448 LINE",
"131 438 OFFCURVE",
"83 436 OFFCURVE",
"28 436 CURVE",
"28 413 LINE",
"82 413 OFFCURVE",
"116 404 OFFCURVE",
"116 332 CURVE"
);
},
{
closed = 1;
nodes = (
"446 0 LINE",
"559 -3 LINE",
"559 20 LINE",
"543 22 LINE SMOOTH",
"493 29 OFFCURVE",
"481 31 OFFCURVE",
"481 121 CURVE SMOOTH",
"481 312 LINE SMOOTH",
"481 410 OFFCURVE",
"425 454 OFFCURVE",
"339 454 CURVE SMOOTH",
"242 454 OFFCURVE",
"174 378 OFFCURVE",
"164 315 CURVE",
"184 315 LINE",
"198 362 OFFCURVE",
"245 424 OFFCURVE",
"319 424 CURVE SMOOTH",
"377 424 OFFCURVE",
"411 388 OFFCURVE",
"411 329 CURVE SMOOTH",
"411 121 LINE SMOOTH",
"411 31 OFFCURVE",
"399 29 OFFCURVE",
"349 22 CURVE SMOOTH",
"333 20 LINE",
"333 -3 LINE"
);
}
);
width = 874;
}
);
leftKerningGroup = n;
leftMetricsKey = n;
rightKerningGroup = n;
rightMetricsKey = n;
unicode = 006D;
},
{
color = 6;
glyphname = n;
layers = (
{
anchors = (
{
name = bottom;
position = "{301, 0}";
},
{
name = top;
position = "{301, 436}";
}
);
layerId = "9372F035-DA38-4B54-966C-CEBA9B53DD02";
paths = (
{
closed = 1;
nodes = (
"151 0 LINE",
"274 -3 LINE",
"274 20 LINE",
"258 22 LINE SMOOTH",
"200 29 OFFCURVE",
"186 31 OFFCURVE",
"186 121 CURVE SMOOTH",
"186 375 LINE",
"116 375 LINE",
"116 121 LINE SMOOTH",
"116 31 OFFCURVE",
"102 29 OFFCURVE",
"44 22 CURVE SMOOTH",
"28 20 LINE",
"28 -3 LINE"
);
},
{
closed = 1;
nodes = (
"186 347 LINE",
"186 448 LINE",
"131 438 OFFCURVE",
"83 436 OFFCURVE",
"28 436 CURVE",
"28 413 LINE",
"35 413 LINE SMOOTH",
"85 413 OFFCURVE",
"116 401 OFFCURVE",
"116 332 CURVE"
);
},
{
closed = 1;
nodes = (
"461 0 LINE",
"584 -3 LINE",
"584 20 LINE",
"568 22 LINE SMOOTH",
"510 29 OFFCURVE",
"496 31 OFFCURVE",
"496 121 CURVE SMOOTH",
"496 321 LINE SMOOTH",
"496 406 OFFCURVE",
"440 454 OFFCURVE",
"349 454 CURVE SMOOTH",
"245 454 OFFCURVE",
"174 373 OFFCURVE",
"163 315 CURVE",
"184 315 LINE",
"199 360 OFFCURVE",
"251 424 OFFCURVE",
"327 424 CURVE SMOOTH",
"390 424 OFFCURVE",
"426 388 OFFCURVE",
"426 321 CURVE SMOOTH",
"426 121 LINE SMOOTH",
"426 31 OFFCURVE",
"412 29 OFFCURVE",
"354 22 CURVE SMOOTH",
"338 20 LINE",
"338 -3 LINE"
);
}
);
width = 595;
}
);
leftKerningGroup = n;
rightKerningGroup = n;
unicode = 006E;
},
{
color = 3;
glyphname = eng;
layers = (
{
anchors = (
{
name = top;
position = "{309, 436}";
}
);
components = (
{
name = idotless;
transform = "{1, 0, 0, 1, 7, 0}";
}
);
layerId = "9372F035-DA38-4B54-966C-CEBA9B53DD02";
paths = (
{
closed = 1;
nodes = (
"442 -294 OFFCURVE",
"500 -237 OFFCURVE",
"500 -152 CURVE SMOOTH",
"500 335 LINE SMOOTH",
"500 406 OFFCURVE",
"460 454 OFFCURVE",
"365 454 CURVE SMOOTH",
"215 454 OFFCURVE",
"177 313 OFFCURVE",
"162 236 CURVE",
"187 257 LINE",
"198 313 OFFCURVE",
"246 424 OFFCURVE",
"343 424 CURVE SMOOTH",
"406 424 OFFCURVE",
"430 388 OFFCURVE",
"430 330 CURVE SMOOTH",
"430 -152 LINE SMOOTH",
"430 -205 OFFCURVE",
"425 -273 OFFCURVE",
"380 -273 CURVE SMOOTH",
"365 -273 OFFCURVE",
"356 -266 OFFCURVE",
"356 -251 CURVE SMOOTH",
"356 -236 OFFCURVE",
"360 -232 OFFCURVE",
"360 -217 CURVE SMOOTH",
"360 -194 OFFCURVE",
"342 -167 OFFCURVE",
"312 -167 CURVE SMOOTH",
"282 -167 OFFCURVE",
"264 -190 OFFCURVE",
"264 -223 CURVE SMOOTH",
"264 -269 OFFCURVE",
"300 -294 OFFCURVE",
"363 -294 CURVE SMOOTH"
);
}
);
width = 595;
}
);
leftKerningGroup = n;
rightKerningGroup = n;
unicode = 014B;
},
{
color = 6;
glyphname = o;
layers = (
{
anchors = (
{
name = bottom;
position = "{275, 0}";
},
{
name = center;
position = "{275, 218}";
},
{
name = ogonek;
position = "{494, 10}";
},
{
name = top;
position = "{275, 429}";
}
);
guideLines = (
{
position = "{275, 221}";
},
{
angle = 90;
position = "{275, 221}";
}
);
layerId = "9372F035-DA38-4B54-966C-CEBA9B53DD02";
paths = (
{
closed = 1;
nodes = (
"404 -11 OFFCURVE",
"505 92 OFFCURVE",
"505 220 CURVE SMOOTH",
"505 351 OFFCURVE",
"404 454 OFFCURVE",
"275 454 CURVE SMOOTH",
"146 454 OFFCURVE",
"45 351 OFFCURVE",
"45 220 CURVE SMOOTH",
"45 92 OFFCURVE",
"146 -11 OFFCURVE",
"275 -11 CURVE SMOOTH"
);
},
{
closed = 1;
nodes = (
"167 14 OFFCURVE",
"125 104 OFFCURVE",
"125 220 CURVE SMOOTH",
"125 339 OFFCURVE",
"167 429 OFFCURVE",
"275 429 CURVE SMOOTH",
"383 429 OFFCURVE",
"425 339 OFFCURVE",
"425 220 CURVE SMOOTH",
"425 104 OFFCURVE",
"383 14 OFFCURVE",
"275 14 CURVE SMOOTH"
);
}
);
width = 550;
}
);
leftKerningGroup = o;
rightKerningGroup = o;
unicode = 006F;
},
{
color = 6;
glyphname = p;
layers = (
{
anchors = (
{
name = bottom;
position = "{275, 0}";
},
{
name = top;
position = "{275, 436}";
}
);
layerId = "9372F035-DA38-4B54-966C-CEBA9B53DD02";
paths = (
{
closed = 1;
nodes = (
"141 -280 LINE",
"264 -283 LINE",
"264 -260 LINE",
"248 -258 LINE SMOOTH",
"190 -251 OFFCURVE",
"176 -249 OFFCURVE",
"176 -159 CURVE SMOOTH",
"176 367 LINE",
"169 382 LINE",
"176 451 LINE",
"121 441 OFFCURVE",
"73 436 OFFCURVE",
"18 436 CURVE",
"18 413 LINE",
"72 413 OFFCURVE",
"106 407 OFFCURVE",
"106 335 CURVE SMOOTH",
"106 -159 LINE SMOOTH",
"106 -249 OFFCURVE",
"92 -251 OFFCURVE",
"34 -258 CURVE SMOOTH",
"18 -260 LINE",
"18 -283 LINE"
);
},
{
closed = 1;
nodes = (
"430 -11 OFFCURVE",
"518 91 OFFCURVE",
"518 220 CURVE SMOOTH",
"518 351 OFFCURVE",
"430 454 OFFCURVE",
"315 454 CURVE SMOOTH",
"247 454 OFFCURVE",
"195 418 OFFCURVE",
"156 367 CURVE",
"170 350 LINE",
"201 390 OFFCURVE",
"244 424 OFFCURVE",
"303 424 CURVE SMOOTH",
"394 424 OFFCURVE",
"438 336 OFFCURVE",
"438 220 CURVE SMOOTH",
"438 106 OFFCURVE",
"394 19 OFFCURVE",
"302 19 CURVE SMOOTH",
"240 19 OFFCURVE",
"186 62 OFFCURVE",
"169 99 CURVE",
"160 65 LINE",
"187 28 OFFCURVE",
"244 -11 OFFCURVE",
"311 -11 CURVE SMOOTH"
);
}
);
width = 563;
}
);
leftKerningGroup = p;
leftMetricsKey = "=n-10";
rightKerningGroup = o;
rightMetricsKey = o;
unicode = 0070;
},
{
color = 6;
glyphname = thorn;
layers = (
{
anchors = (
{
name = bottom;
position = "{300, 0}";
},
{
name = top;
position = "{300, 436}";
}
);
layerId = "9372F035-DA38-4B54-966C-CEBA9B53DD02";
paths = (
{
closed = 1;
nodes = (
"148 -280 LINE",
"271 -283 LINE",
"271 -260 LINE",
"255 -258 LINE SMOOTH",
"197 -251 OFFCURVE",
"183 -249 OFFCURVE",
"183 -159 CURVE SMOOTH",
"183 724 LINE",
"128 714 OFFCURVE",
"80 709 OFFCURVE",
"25 709 CURVE",
"25 686 LINE",
"79 686 OFFCURVE",
"113 680 OFFCURVE",
"113 608 CURVE SMOOTH",
"113 -159 LINE SMOOTH",
"113 -249 OFFCURVE",
"99 -251 OFFCURVE",
"41 -258 CURVE SMOOTH",
"25 -260 LINE",
"25 -283 LINE"
);
},
{
closed = 1;
nodes = (
"437 -11 OFFCURVE",
"525 91 OFFCURVE",
"525 220 CURVE SMOOTH",
"525 351 OFFCURVE",
"437 454 OFFCURVE",
"315 454 CURVE SMOOTH",
"257 454 OFFCURVE",
"209 429 OFFCURVE",
"177 387 CURVE",
"177 348 LINE",
"207 396 OFFCURVE",
"254 429 OFFCURVE",
"315 429 CURVE SMOOTH",
"401 429 OFFCURVE",
"445 339 OFFCURVE",
"445 220 CURVE SMOOTH",
"445 106 OFFCURVE",
"401 19 OFFCURVE",
"315 19 CURVE SMOOTH",
"253 19 OFFCURVE",
"206 51 OFFCURVE",
"177 99 CURVE",
"175 59 LINE",
"209 14 OFFCURVE",
"256 -11 OFFCURVE",
"315 -11 CURVE SMOOTH"
);
}
);
width = 600;
}
);
unicode = 00FE;
},
{
color = 6;
glyphname = q;
layers = (
{
anchors = (
{
name = bottom;
position = "{277, 0}";
},
{
name = top;
position = "{277, 436}";
}
);
layerId = "9372F035-DA38-4B54-966C-CEBA9B53DD02";
paths = (
{
closed = 1;
nodes = (
"422 -280 LINE",
"545 -283 LINE",
"545 -260 LINE",
"529 -258 LINE SMOOTH",
"471 -251 OFFCURVE",
"457 -249 OFFCURVE",
"457 -159 CURVE SMOOTH",
"457 449 LINE",
"442 449 LINE",
"383 385 LINE",
"387 365 LINE",
"387 -159 LINE SMOOTH",
"387 -249 OFFCURVE",
"373 -251 OFFCURVE",
"315 -258 CURVE SMOOTH",
"299 -260 LINE",
"299 -283 LINE"
);
},
{
closed = 1;
nodes = (
"316 -11 OFFCURVE",
"370 25 OFFCURVE",
"407 76 CURVE",
"393 93 LINE",
"362 53 OFFCURVE",
"319 19 OFFCURVE",
"258 19 CURVE SMOOTH",
"169 19 OFFCURVE",
"125 107 OFFCURVE",
"125 223 CURVE SMOOTH",
"125 337 OFFCURVE",
"169 424 OFFCURVE",
"261 424 CURVE SMOOTH",
"323 424 OFFCURVE",
"377 381 OFFCURVE",
"394 344 CURVE",
"403 378 LINE",
"376 415 OFFCURVE",
"319 454 OFFCURVE",
"252 454 CURVE SMOOTH",
"133 454 OFFCURVE",
"45 352 OFFCURVE",
"45 223 CURVE SMOOTH",
"45 92 OFFCURVE",
"133 -11 OFFCURVE",
"248 -11 CURVE SMOOTH"
);
}
);
width = 535;
}
);
leftKerningGroup = o;
leftMetricsKey = o;
rightKerningGroup = n;
unicode = 0071;
},
{
color = 6;
glyphname = r;
layers = (
{
anchors = (
{
name = bottom;
position = "{149, 0}";
},
{
name = top;
position = "{189, 436}";
}
);
layerId = "9372F035-DA38-4B54-966C-CEBA9B53DD02";
paths = (
{
closed = 1;
nodes = (
"151 0 LINE",
"274 -3 LINE",
"274 20 LINE",
"258 22 LINE SMOOTH",
"200 29 OFFCURVE",
"186 31 OFFCURVE",
"186 121 CURVE SMOOTH",
"186 279 LINE",
"193 315 OFFCURVE",
"204 346 OFFCURVE",
"216 371 CURVE SMOOTH",
"231 401 OFFCURVE",
"253 420 OFFCURVE",
"272 420 CURVE SMOOTH",
"280 420 OFFCURVE",
"286 417 OFFCURVE",
"286 410 CURVE SMOOTH",
"286 403 OFFCURVE",
"281 390 OFFCURVE",
"281 377 CURVE SMOOTH",
"281 360 OFFCURVE",
"296 344 OFFCURVE",
"324 344 CURVE SMOOTH",
"353 344 OFFCURVE",
"372 365 OFFCURVE",
"372 394 CURVE SMOOTH",
"372 419 OFFCURVE",
"358 454 OFFCURVE",
"302 454 CURVE SMOOTH",
"253 454 OFFCURVE",
"208 422 OFFCURVE",
"179 333 CURVE",
"175 333 LINE",
"116 382 LINE",
"116 121 LINE SMOOTH",
"116 31 OFFCURVE",
"102 29 OFFCURVE",
"44 22 CURVE SMOOTH",
"28 20 LINE",
"28 -3 LINE"
);
},
{
closed = 1;
nodes = (
"175 333 LINE",
"186 448 LINE",
"131 440 OFFCURVE",
"83 436 OFFCURVE",
"28 436 CURVE",
"28 413 LINE",
"82 413 OFFCURVE",
"116 407 OFFCURVE",
"116 329 CURVE"
);
}
);
width = 392;
}
);
leftKerningGroup = n;
leftMetricsKey = n;
rightKerningGroup = r;
unicode = 0072;
},
{
color = 6;
glyphname = s;
layers = (
{
anchors = (
{
name = bottom;
position = "{206, 3}";
},
{
name = top;
position = "{203, 433}";
}
);
layerId = "9372F035-DA38-4B54-966C-CEBA9B53DD02";
paths = (
{
closed = 1;
nodes = (
"302 -11 OFFCURVE",
"352 51 OFFCURVE",
"352 122 CURVE SMOOTH",
"352 182 OFFCURVE",
"325 224 OFFCURVE",
"244 255 CURVE SMOOTH",
"205 270 LINE SMOOTH",
"150 291 OFFCURVE",
"117 316 OFFCURVE",
"117 358 CURVE SMOOTH",
"117 401 OFFCURVE",
"151 432 OFFCURVE",
"195 432 CURVE SMOOTH",
"257 432 OFFCURVE",
"290 379 OFFCURVE",
"299 316 CURVE",
"322 316 LINE",
"322 386 LINE",
"326 451 LINE",
"304 452 LINE",
"300 438 OFFCURVE",
"296 431 OFFCURVE",
"288 431 CURVE SMOOTH",
"284 431 OFFCURVE",
"279 432 OFFCURVE",
"271 436 CURVE SMOOTH",
"255 444 OFFCURVE",
"232 454 OFFCURVE",
"199 454 CURVE SMOOTH",
"129 454 OFFCURVE",
"66 404 OFFCURVE",
"66 325 CURVE SMOOTH",
"66 262 OFFCURVE",
"101 225 OFFCURVE",
"171 198 CURVE SMOOTH",
"207 184 LINE SMOOTH",
"267 161 OFFCURVE",
"303 134 OFFCURVE",
"303 91 CURVE SMOOTH",
"303 42 OFFCURVE",
"266 12 OFFCURVE",
"212 12 CURVE SMOOTH",
"136 12 OFFCURVE",
"84 78 OFFCURVE",
"81 134 CURVE SMOOTH",
"80 151 LINE",
"58 151 LINE",
"55 66 LINE",
"51 0 LINE",
"74 0 LINE",
"78 19 OFFCURVE",
"80 21 OFFCURVE",
"86 21 CURVE SMOOTH",
"90 21 OFFCURVE",
"96 18 OFFCURVE",
"106 13 CURVE",
"126 4 OFFCURVE",
"161 -11 OFFCURVE",
"212 -11 CURVE SMOOTH"
);
}
);
width = 393;
}
);
leftKerningGroup = s;
rightKerningGroup = s;
unicode = 0073;
},
{
color = 6;
glyphname = germandbls;
layers = (
{
layerId = "9372F035-DA38-4B54-966C-CEBA9B53DD02";
paths = (
{
closed = 1;
nodes = (
"498 -11 OFFCURVE",
"573 70 OFFCURVE",
"573 140 CURVE SMOOTH",
"573 229 OFFCURVE",
"493 284 OFFCURVE",
"443 318 CURVE SMOOTH",
"387 356 OFFCURVE",
"354 396 OFFCURVE",
"354 426 CURVE SMOOTH",
"354 456 OFFCURVE",
"388 489 OFFCURVE",
"420 520 CURVE SMOOTH",
"447 546 OFFCURVE",
"471 574 OFFCURVE",
"471 608 CURVE SMOOTH",
"471 672 OFFCURVE",
"400 724 OFFCURVE",
"304 724 CURVE SMOOTH",
"190 724 OFFCURVE",
"113 675 OFFCURVE",
"113 498 CURVE SMOOTH",
"113 121 LINE SMOOTH",
"113 31 OFFCURVE",
"99 29 OFFCURVE",
"41 22 CURVE SMOOTH",
"25 20 LINE",
"25 -3 LINE",
"148 0 LINE",
"194 0 LINE",
"187 33 OFFCURVE",
"184 65 OFFCURVE",
"184 121 CURVE SMOOTH",
"184 550 LINE SMOOTH",
"184 632 OFFCURVE",
"211 699 OFFCURVE",
"290 699 CURVE SMOOTH",
"344 699 OFFCURVE",
"391 665 OFFCURVE",
"391 586 CURVE SMOOTH",
"391 538 OFFCURVE",
"359 493 OFFCURVE",
"335 469 CURVE SMOOTH",
"309 443 OFFCURVE",
"288 421 OFFCURVE",
"288 389 CURVE SMOOTH",
"288 344 OFFCURVE",
"340 302 OFFCURVE",
"386 271 CURVE SMOOTH",
"442 233 OFFCURVE",
"495 192 OFFCURVE",
"495 123 CURVE SMOOTH",
"495 65 OFFCURVE",
"458 14 OFFCURVE",
"391 14 CURVE SMOOTH",
"349 14 OFFCURVE",
"328 31 OFFCURVE",
"328 59 CURVE SMOOTH",
"328 66 OFFCURVE",
"329 74 OFFCURVE",
"331 83 CURVE",
"333 90 OFFCURVE",
"335 101 OFFCURVE",
"335 107 CURVE SMOOTH",
"335 132 OFFCURVE",
"312 149 OFFCURVE",
"289 149 CURVE SMOOTH",
"259 149 OFFCURVE",
"241 126 OFFCURVE",
"241 93 CURVE SMOOTH",
"241 47 OFFCURVE",
"289 -11 OFFCURVE",
"401 -11 CURVE SMOOTH"
);
},
{
closed = 1;
nodes = (
"133 413 LINE",
"133 436 LINE",
"27 436 LINE",
"27 413 LINE"
);
}
);
width = 593;
}
);
leftKerningGroup = l;
leftMetricsKey = f;
rightKerningGroup = B;
unicode = 00DF;
},
{
color = 6;
glyphname = t;
layers = (
{
anchors = (
{
name = bottom;
position = "{198, 0}";
},
{
name = center;
position = "{162, 271}";
},
{
name = top;
position = "{157, 521}";
},
{
name = topright;
position = "{231, 689}";
}
);
layerId = "9372F035-DA38-4B54-966C-CEBA9B53DD02";
paths = (
{
closed = 1;
nodes = (
"246 -11 OFFCURVE",
"275 -1 OFFCURVE",
"298 24 CURVE SMOOTH",
"309 36 OFFCURVE",
"321 53 OFFCURVE",
"329 73 CURVE",
"307 84 LINE",
"290 49 OFFCURVE",
"270 23 OFFCURVE",
"236 23 CURVE SMOOTH",
"195 23 OFFCURVE",
"174 52 OFFCURVE",
"174 111 CURVE SMOOTH",
"174 411 LINE",
"302 411 LINE",
"302 436 LINE",
"174 436 LINE",
"174 557 LINE",
"148 557 LINE",
"139 484 OFFCURVE",
"112 442 OFFCURVE",
"57 438 CURVE SMOOTH",
"30 436 LINE",
"30 411 LINE",
"104 411 LINE",
"104 115 LINE SMOOTH",
"104 25 OFFCURVE",
"149 -11 OFFCURVE",
"214 -11 CURVE SMOOTH"
);
}
);
width = 339;
}
);
leftKerningGroup = t;
rightKerningGroup = t;
unicode = 0074;
},
{
color = 6;
glyphname = u;
layers = (
{
anchors = (
{
name = bottom;
position = "{237, 0}";
},
{
name = ogonek;
position = "{430, 0}";
},
{
name = top;
position = "{260, 434}";
}
);
guideLines = (
{
angle = 90;
position = "{395, 301}";
}
);
layerId = "9372F035-DA38-4B54-966C-CEBA9B53DD02";
paths = (
{
closed = 1;
nodes = (
"303 -11 OFFCURVE",
"352 16 OFFCURVE",
"387 55 CURVE SMOOTH",
"406 76 OFFCURVE",
"420 101 OFFCURVE",
"432 128 CURVE",
"408 133 LINE",
"384 78 OFFCURVE",
"334 21 OFFCURVE",
"261 21 CURVE SMOOTH",
"204 21 OFFCURVE",
"168 56 OFFCURVE",
"168 122 CURVE SMOOTH",
"168 434 LINE",
"133 433 LINE",
"10 436 LINE",
"10 413 LINE",
"26 411 LINE SMOOTH",
"84 404 OFFCURVE",
"98 402 OFFCURVE",
"98 312 CURVE SMOOTH",
"98 118 LINE SMOOTH",
"98 33 OFFCURVE",
"151 -11 OFFCURVE",
"238 -11 CURVE SMOOTH"
);
},
{
closed = 1;
nodes = (
"466 1 OFFCURVE",
"506 1 OFFCURVE",
"561 1 CURVE",
"561 24 LINE",
"507 24 OFFCURVE",
"478 35 OFFCURVE",
"478 111 CURVE SMOOTH",
"478 434 LINE",
"443 433 LINE",
"320 436 LINE",
"320 413 LINE",
"336 411 LINE SMOOTH",
"394 404 OFFCURVE",
"408 402 OFFCURVE",
"408 312 CURVE SMOOTH",
"408 -9 LINE"
);
}
);
width = 571;
}
);
leftKerningGroup = u;
note = u;
rightKerningGroup = n;
rightMetricsKey = i;
unicode = 0075;
},
{
color = 6;
glyphname = v;
layers = (
{
anchors = (
{
name = bottom;
position = "{261, 0}";
},
{
name = top;
position = "{271, 436}";
}
);
layerId = "9372F035-DA38-4B54-966C-CEBA9B53DD02";
paths = (
{
closed = 1;
nodes = (
"267 0 LINE",
"411 336 LINE SMOOTH",
"431 383 OFFCURVE",
"446 405 OFFCURVE",
"484 410 CURVE SMOOTH",
"507 413 LINE",
"507 436 LINE",
"423 433 LINE",
"333 436 LINE",
"333 413 LINE",
"350 411 LINE SMOOTH",
"382 407 OFFCURVE",
"396 398 OFFCURVE",
"396 379 CURVE SMOOTH",
"396 370 OFFCURVE",
"393 359 OFFCURVE",
"387 346 CURVE SMOOTH",
"270 72 LINE",
"144 350 LINE SMOOTH",
"139 362 OFFCURVE",
"136 372 OFFCURVE",
"136 380 CURVE SMOOTH",
"136 397 OFFCURVE",
"146 407 OFFCURVE",
"176 411 CURVE SMOOTH",
"192 413 LINE",
"192 436 LINE",
"90 433 LINE",
"-13 436 LINE",
"-13 413 LINE",
"5 411 LINE SMOOTH",
"40 407 OFFCURVE",
"54 386 OFFCURVE",
"66 360 CURVE SMOOTH",
"229 0 LINE"
);
}
);
width = 507;
}
);
leftKerningGroup = v;
rightKerningGroup = v;
unicode = 0076;
},
{
color = 6;
glyphname = w;
layers = (
{
anchors = (
{
name = bottom;
position = "{368, 0}";
},
{
name = top;
position = "{368, 436}";
}
);
layerId = "9372F035-DA38-4B54-966C-CEBA9B53DD02";
paths = (
{
closed = 1;
nodes = (
"228 0 LINE",
"381 349 LINE",
"369 349 LINE",
"505 0 LINE",
"543 0 LINE",
"677 339 LINE SMOOTH",
"691 373 OFFCURVE",
"705 405 OFFCURVE",
"752 411 CURVE SMOOTH",
"768 413 LINE",
"768 436 LINE",
"689 433 LINE",
"595 436 LINE",
"595 413 LINE",
"611 411 LINE SMOOTH",
"644 407 OFFCURVE",
"660 397 OFFCURVE",
"660 375 CURVE SMOOTH",
"660 367 OFFCURVE",
"654 351 OFFCURVE",
"651 342 CURVE SMOOTH",
"535 49 LINE",
"558 49 LINE",
"443 344 LINE SMOOTH",
"438 357 OFFCURVE",
"435 369 OFFCURVE",
"435 378 CURVE SMOOTH",
"435 396 OFFCURVE",
"445 410 OFFCURVE",
"469 412 CURVE SMOOTH",
"484 413 LINE",
"484 436 LINE",
"438 436 LINE SMOOTH",
"411 436 OFFCURVE",
"368 425 OFFCURVE",
"371 390 CURVE",
"379 393 LINE",
"370 419 OFFCURVE",
"349 436 OFFCURVE",
"319 436 CURVE SMOOTH",
"284 436 LINE",
"284 413 LINE",
"315 412 LINE SMOOTH",
"342 411 OFFCURVE",
"356 396 OFFCURVE",
"356 369 CURVE SMOOTH",
"356 358 OFFCURVE",
"351 344 OFFCURVE",
"344 328 CURVE SMOOTH",
"220 48 LINE",
"244 47 LINE",
"136 346 LINE SMOOTH",
"132 357 OFFCURVE",
"131 366 OFFCURVE",
"131 374 CURVE SMOOTH",
"131 397 OFFCURVE",
"147 409 OFFCURVE",
"181 412 CURVE SMOOTH",
"191 413 LINE",
"191 436 LINE",
"93 433 LINE",
"-13 436 LINE",
"-13 413 LINE",
"-2 412 LINE SMOOTH",
"31 409 OFFCURVE",
"51 383 OFFCURVE",
"67 339 CURVE SMOOTH",
"190 0 LINE"
);
}
);
width = 768;
}
);
leftKerningGroup = v;
leftMetricsKey = v;
rightKerningGroup = v;
rightMetricsKey = v;
unicode = 0077;
},
{
color = 6;
glyphname = x;
layers = (
{
layerId = "9372F035-DA38-4B54-966C-CEBA9B53DD02";
paths = (
{
closed = 1;
nodes = (
"431 0 LINE",
"530 -2 LINE",
"530 20 LINE",
"519 22 LINE SMOOTH",
"480 29 OFFCURVE",
"446 66 OFFCURVE",
"415 100 CURVE SMOOTH",
"188 350 LINE SMOOTH",
"175 365 OFFCURVE",
"171 372 OFFCURVE",
"171 382 CURVE SMOOTH",
"171 401 OFFCURVE",
"203 408 OFFCURVE",
"212 410 CURVE SMOOTH",
"228 413 LINE",
"228 436 LINE",
"116 433 LINE",
"4 436 LINE",
"4 413 LINE",
"13 412 LINE SMOOTH",
"41 409 OFFCURVE",
"57 394 OFFCURVE",
"89 359 CURVE SMOOTH",
"349 73 LINE SMOOTH",
"359 62 OFFCURVE",
"362 52 OFFCURVE",
"362 45 CURVE SMOOTH",
"362 32 OFFCURVE",
"349 26 OFFCURVE",
"323 23 CURVE SMOOTH",
"307 21 LINE",
"307 -2 LINE"
);
},
{
closed = 1;
nodes = (
"97 0 LINE",
"191 -3 LINE",
"191 21 LINE",
"175 23 LINE SMOOTH",
"150 26 OFFCURVE",
"140 38 OFFCURVE",
"140 52 CURVE SMOOTH",
"140 62 OFFCURVE",
"147 74 OFFCURVE",
"156 84 CURVE SMOOTH",
"249 191 LINE",
"233 208 LINE",
"142 105 LINE SMOOTH",
"110 69 OFFCURVE",
"74 31 OFFCURVE",
"13 22 CURVE SMOOTH",
"0 20 LINE",
"0 -3 LINE"
);
},
{
closed = 1;
nodes = (
"379 329 LINE SMOOTH",
"414 368 OFFCURVE",
"452 407 OFFCURVE",
"507 412 CURVE SMOOTH",
"518 413 LINE",
"518 436 LINE",
"442 433 LINE",
"326 436 LINE",
"326 413 LINE",
"332 412 LINE SMOOTH",
"359 408 OFFCURVE",
"382 396 OFFCURVE",
"382 380 CURVE SMOOTH",
"382 371 OFFCURVE",
"378 361 OFFCURVE",
"368 350 CURVE SMOOTH",
"275 245 LINE",
"291 229 LINE"
);
}
);
width = 525;
}
);
leftKerningGroup = x;
rightKerningGroup = x;
unicode = 0078;
},
{
color = 6;
glyphname = y;
layers = (
{
anchors = (
{
name = bottom;
position = "{277, 0}";
},
{
name = top;
position = "{275, 436}";
}
);
layerId = "9372F035-DA38-4B54-966C-CEBA9B53DD02";
paths = (
{
closed = 1;
nodes = (
"121 -294 OFFCURVE",
"166 -232 OFFCURVE",
"198 -163 CURVE SMOOTH",
"424 330 LINE SMOOTH",
"443 372 OFFCURVE",
"459 404 OFFCURVE",
"508 411 CURVE SMOOTH",
"523 413 LINE",
"523 436 LINE",
"443 433 LINE",
"347 436 LINE",
"347 413 LINE",
"363 411 LINE SMOOTH",
"397 407 OFFCURVE",
"412 398 OFFCURVE",
"412 378 CURVE SMOOTH",
"412 368 OFFCURVE",
"408 355 OFFCURVE",
"401 339 CURVE SMOOTH",
"173 -152 LINE SMOOTH",
"145 -211 OFFCURVE",
"119 -224 OFFCURVE",
"95 -224 CURVE SMOOTH",
"79 -224 OFFCURVE",
"67 -215 OFFCURVE",
"58 -208 CURVE SMOOTH",
"49 -201 OFFCURVE",
"39 -194 OFFCURVE",
"21 -194 CURVE SMOOTH",
"-8 -194 OFFCURVE",
"-30 -215 OFFCURVE",
"-30 -241 CURVE SMOOTH",
"-30 -268 OFFCURVE",
"-8 -294 OFFCURVE",
"38 -294 CURVE SMOOTH"
);
},
{
closed = 1;
nodes = (
"284 52 LINE",
"151 344 LINE SMOOTH",
"144 359 OFFCURVE",
"140 371 OFFCURVE",
"140 380 CURVE SMOOTH",
"140 398 OFFCURVE",
"152 407 OFFCURVE",
"182 411 CURVE SMOOTH",
"196 413 LINE",
"196 436 LINE",
"95 433 LINE",
"-9 436 LINE",
"-9 413 LINE",
"14 410 LINE SMOOTH",
"47 406 OFFCURVE",
"59 384 OFFCURVE",
"73 354 CURVE SMOOTH",
"246 -26 LINE"
);
}
);
width = 523;
}
);
leftKerningGroup = v;
rightKerningGroup = y;
rightMetricsKey = v;
unicode = 0079;
},
{
color = 6;
glyphname = z;
layers = (
{
anchors = (
{
name = bottom;
position = "{243, 0}";
},
{
name = top;
position = "{243, 436}";
}
);
layerId = "9372F035-DA38-4B54-966C-CEBA9B53DD02";
paths = (
{
closed = 1;
nodes = (
"413 0 LINE",
"414 53 LINE",
"426 158 LINE",
"403 158 LINE",
"388 43 OFFCURVE",
"321 25 OFFCURVE",
"232 25 CURVE SMOOTH",
"124 25 LINE",
"428 417 LINE",
"421 436 LINE",
"75 436 LINE",
"64 365 LINE",
"42 275 LINE",
"65 275 LINE",
"87 389 OFFCURVE",
"152 412 OFFCURVE",
"265 412 CURVE SMOOTH",
"376 412 LINE",
"349 426 LINE",
"35 20 LINE",
"42 0 LINE"
);
}
);
width = 466;
}
);
leftKerningGroup = z;
rightKerningGroup = z;
unicode = 007A;
},
{
color = 6;
glyphname = f_b.liga;
layers = (
{
anchors = (
{
name = bottom;
position = "{576, 0}";
},
{
name = top;
position = "{576, 436}";
}
);
layerId = "9372F035-DA38-4B54-966C-CEBA9B53DD02";
paths = (
{
closed = 1;
nodes = (
"724 -11 OFFCURVE",
"812 91 OFFCURVE",
"812 220 CURVE SMOOTH",
"812 351 OFFCURVE",
"724 454 OFFCURVE",
"602 454 CURVE SMOOTH",
"545 454 OFFCURVE",
"501 430 OFFCURVE",
"470 389 CURVE",
"470 644 LINE",
"400 644 LINE",
"400 0 LINE",
"420 0 LINE",
"470 50 LINE",
"470 52 LINE",
"502 14 OFFCURVE",
"547 -11 OFFCURVE",
"602 -11 CURVE SMOOTH"
);
},
{
closed = 1;
nodes = (
"544 19 OFFCURVE",
"499 47 OFFCURVE",
"470 90 CURVE",
"470 356 LINE",
"499 400 OFFCURVE",
"544 429 OFFCURVE",
"602 429 CURVE SMOOTH",
"688 429 OFFCURVE",
"732 339 OFFCURVE",
"732 220 CURVE SMOOTH",
"732 106 OFFCURVE",
"688 19 OFFCURVE",
"602 19 CURVE SMOOTH"
);
},
{
closed = 1;
nodes = (
"148 0 LINE",
"265 -3 LINE",
"265 20 LINE",
"249 22 LINE SMOOTH",
"198 28 OFFCURVE",
"183 31 OFFCURVE",
"183 121 CURVE SMOOTH",
"183 411 LINE",
"275 411 LINE",
"275 436 LINE",
"183 436 LINE",
"183 485 LINE SMOOTH",
"183 611 OFFCURVE",
"203 699 OFFCURVE",
"307 699 CURVE SMOOTH",
"351 699 OFFCURVE",
"400 677 OFFCURVE",
"400 594 CURVE SMOOTH",
"400 140 LINE",
"470 140 LINE",
"470 725 LINE",
"406 694 LINE",
"384 712 OFFCURVE",
"347 724 OFFCURVE",
"308 724 CURVE SMOOTH",
"157 724 OFFCURVE",
"113 611 OFFCURVE",
"113 485 CURVE SMOOTH",
"113 436 LINE",
"27 436 LINE",
"27 411 LINE",
"113 411 LINE",
"113 121 LINE SMOOTH",
"113 31 OFFCURVE",
"99 29 OFFCURVE",
"41 22 CURVE SMOOTH",
"25 20 LINE",
"25 -3 LINE"
);
}
);
width = 857;
}
);
leftKerningGroup = f;
leftMetricsKey = f;
rightKerningGroup = o;
rightMetricsKey = b;
},
{
color = 3;
glyphname = f_f.liga;
layers = (
{
components = (
{
alignment = -1;
name = f;
transform = "{1, 0, 0, 1, 295, 0}";
}
);
layerId = "9372F035-DA38-4B54-966C-CEBA9B53DD02";
paths = (
{
closed = 1;
nodes = (
"156 0 LINE",
"270 -3 LINE",
"270 20 LINE",
"254 22 LINE SMOOTH",
"202 28 OFFCURVE",
"191 31 OFFCURVE",
"191 121 CURVE SMOOTH",
"191 411 LINE",
"346 411 LINE",
"346 436 LINE",
"191 436 LINE",
"191 470 LINE SMOOTH",
"191 595 OFFCURVE",
"220 669 OFFCURVE",
"315 669 CURVE SMOOTH",
"401 669 OFFCURVE",
"426 590 OFFCURVE",
"434 527 CURVE",
"466 635 LINE",
"439 680 OFFCURVE",
"364 693 OFFCURVE",
"323 693 CURVE SMOOTH",
"187 693 OFFCURVE",
"121 610 OFFCURVE",
"121 452 CURVE SMOOTH",
"121 436 LINE",
"25 436 LINE",
"25 411 LINE",
"121 411 LINE",
"121 121 LINE SMOOTH",
"121 31 OFFCURVE",
"107 29 OFFCURVE",
"49 22 CURVE SMOOTH",
"33 20 LINE",
"33 -3 LINE"
);
}
);
width = 634;
}
);
leftKerningGroup = f;
leftMetricsKey = f;
rightKerningGroup = f;
rightMetricsKey = f;
},
{
color = 3;
glyphname = f_f_b.liga;
layers = (
{
components = (
{
alignment = -1;
name = f_b.liga;
transform = "{1, 0, 0, 1, 288, 0}";
}
);
layerId = "9372F035-DA38-4B54-966C-CEBA9B53DD02";
paths = (
{
closed = 1;
nodes = (
"156 0 LINE",
"270 -3 LINE",
"270 20 LINE",
"254 22 LINE SMOOTH",
"202 28 OFFCURVE",
"191 31 OFFCURVE",
"191 121 CURVE SMOOTH",
"191 411 LINE",
"346 411 LINE",
"346 436 LINE",
"191 436 LINE",
"191 470 LINE SMOOTH",
"191 595 OFFCURVE",
"220 669 OFFCURVE",
"315 669 CURVE SMOOTH",
"401 669 OFFCURVE",
"426 590 OFFCURVE",
"434 527 CURVE",
"466 635 LINE",
"439 680 OFFCURVE",
"364 693 OFFCURVE",
"323 693 CURVE SMOOTH",
"187 693 OFFCURVE",
"121 610 OFFCURVE",
"121 452 CURVE SMOOTH",
"121 436 LINE",
"25 436 LINE",
"25 411 LINE",
"121 411 LINE",
"121 121 LINE SMOOTH",
"121 31 OFFCURVE",
"107 29 OFFCURVE",
"49 22 CURVE SMOOTH",
"33 20 LINE",
"33 -3 LINE"
);
}
);
width = 1145;
}
);
leftKerningGroup = f;
leftMetricsKey = f;
rightKerningGroup = o;
rightMetricsKey = b;
},
{
color = 3;
glyphname = f_f_h.liga;
layers = (
{
components = (
{
alignment = -1;
name = f_h.liga;
transform = "{1, 0, 0, 1, 283, 0}";
}
);
layerId = "9372F035-DA38-4B54-966C-CEBA9B53DD02";
paths = (
{
closed = 1;
nodes = (
"156 0 LINE",
"270 -3 LINE",
"270 20 LINE",
"254 22 LINE SMOOTH",
"202 28 OFFCURVE",
"191 31 OFFCURVE",
"191 121 CURVE SMOOTH",
"191 411 LINE",
"346 411 LINE",
"346 436 LINE",
"191 436 LINE",
"191 470 LINE SMOOTH",
"191 595 OFFCURVE",
"220 669 OFFCURVE",
"315 669 CURVE SMOOTH",
"401 669 OFFCURVE",
"426 590 OFFCURVE",
"434 527 CURVE",
"466 635 LINE",
"439 680 OFFCURVE",
"364 693 OFFCURVE",
"323 693 CURVE SMOOTH",
"187 693 OFFCURVE",
"121 610 OFFCURVE",
"121 452 CURVE SMOOTH",
"121 436 LINE",
"25 436 LINE",
"25 411 LINE",
"121 411 LINE",
"121 121 LINE SMOOTH",
"121 31 OFFCURVE",
"107 29 OFFCURVE",
"49 22 CURVE SMOOTH",
"33 20 LINE",
"33 -3 LINE"
);
}
);
width = 1162;
}
);
leftKerningGroup = f;
leftMetricsKey = f;
rightKerningGroup = n;
rightMetricsKey = h;
},
{
color = 3;
glyphname = f_f_i.liga;
layers = (
{
components = (
{
alignment = -1;
name = fi;
transform = "{1, 0, 0, 1, 272, 0}";
}
);
layerId = "9372F035-DA38-4B54-966C-CEBA9B53DD02";
paths = (
{
closed = 1;
nodes = (
"156 0 LINE",
"270 -3 LINE",
"270 20 LINE",
"254 22 LINE SMOOTH",
"202 28 OFFCURVE",
"191 31 OFFCURVE",
"191 121 CURVE SMOOTH",
"191 411 LINE",
"346 411 LINE",
"346 436 LINE",
"191 436 LINE",
"191 470 LINE SMOOTH",
"191 595 OFFCURVE",
"220 669 OFFCURVE",
"315 669 CURVE SMOOTH",
"401 669 OFFCURVE",
"426 590 OFFCURVE",
"434 527 CURVE",
"466 635 LINE",
"439 680 OFFCURVE",
"364 693 OFFCURVE",
"323 693 CURVE SMOOTH",
"187 693 OFFCURVE",
"121 610 OFFCURVE",
"121 452 CURVE SMOOTH",
"121 436 LINE",
"25 436 LINE",
"25 411 LINE",
"121 411 LINE",
"121 121 LINE SMOOTH",
"121 31 OFFCURVE",
"107 29 OFFCURVE",
"49 22 CURVE SMOOTH",
"33 20 LINE",
"33 -3 LINE"
);
}
);
width = 839;
}
);
leftKerningGroup = f;
leftMetricsKey = f;
rightKerningGroup = l;
rightMetricsKey = i;
},
{
color = 3;
glyphname = f_f_j.liga;
layers = (
{
components = (
{
alignment = -1;
name = f_j.liga;
transform = "{1, 0, 0, 1, 280, 0}";
}
);
layerId = "9372F035-DA38-4B54-966C-CEBA9B53DD02";
paths = (
{
closed = 1;
nodes = (
"156 0 LINE",
"270 -3 LINE",
"270 20 LINE",
"254 22 LINE SMOOTH",
"202 28 OFFCURVE",
"191 31 OFFCURVE",
"191 121 CURVE SMOOTH",
"191 411 LINE",
"346 411 LINE",
"346 436 LINE",
"191 436 LINE",
"191 470 LINE SMOOTH",
"191 595 OFFCURVE",
"220 669 OFFCURVE",
"315 669 CURVE SMOOTH",
"401 669 OFFCURVE",
"426 590 OFFCURVE",
"434 527 CURVE",
"466 635 LINE",
"439 680 OFFCURVE",
"364 693 OFFCURVE",
"323 693 CURVE SMOOTH",
"187 693 OFFCURVE",
"121 610 OFFCURVE",
"121 452 CURVE SMOOTH",
"121 436 LINE",
"25 436 LINE",
"25 411 LINE",
"121 411 LINE",
"121 121 LINE SMOOTH",
"121 31 OFFCURVE",
"107 29 OFFCURVE",
"49 22 CURVE SMOOTH",
"33 20 LINE",
"33 -3 LINE"
);
}
);
width = 824;
}
);
leftKerningGroup = f;
leftMetricsKey = f;
rightKerningGroup = l;
rightMetricsKey = j;
},
{
color = 3;
glyphname = f_f_k.liga;
layers = (
{
components = (
{
alignment = -1;
name = f_k.liga;
transform = "{1, 0, 0, 1, 287, 0}";
}
);
layerId = "9372F035-DA38-4B54-966C-CEBA9B53DD02";
paths = (
{
closed = 1;
nodes = (
"156 0 LINE",
"270 -3 LINE",
"270 20 LINE",
"254 22 LINE SMOOTH",
"202 28 OFFCURVE",
"191 31 OFFCURVE",
"191 121 CURVE SMOOTH",
"191 411 LINE",
"346 411 LINE",
"346 436 LINE",
"191 436 LINE",
"191 470 LINE SMOOTH",
"191 595 OFFCURVE",
"220 669 OFFCURVE",
"315 669 CURVE SMOOTH",
"401 669 OFFCURVE",
"426 590 OFFCURVE",
"434 527 CURVE",
"466 635 LINE",
"439 680 OFFCURVE",
"364 693 OFFCURVE",
"323 693 CURVE SMOOTH",
"187 693 OFFCURVE",
"121 610 OFFCURVE",
"121 452 CURVE SMOOTH",
"121 436 LINE",
"25 436 LINE",
"25 411 LINE",
"121 411 LINE",
"121 121 LINE SMOOTH",
"121 31 OFFCURVE",
"107 29 OFFCURVE",
"49 22 CURVE SMOOTH",
"33 20 LINE",
"33 -3 LINE"
);
}
);
width = 1108;
}
);
leftKerningGroup = f;
leftMetricsKey = f;
rightKerningGroup = k;
rightMetricsKey = k;
},
{
color = 3;
glyphname = f_f_l.liga;
layers = (
{
components = (
{
alignment = -1;
name = fl;
transform = "{1, 0, 0, 1, 283, 0}";
}
);
layerId = "9372F035-DA38-4B54-966C-CEBA9B53DD02";
paths = (
{
closed = 1;
nodes = (
"156 0 LINE",
"270 -3 LINE",
"270 20 LINE",
"254 22 LINE SMOOTH",
"202 28 OFFCURVE",
"191 31 OFFCURVE",
"191 121 CURVE SMOOTH",
"191 411 LINE",
"346 411 LINE",
"346 436 LINE",
"191 436 LINE",
"191 470 LINE SMOOTH",
"191 595 OFFCURVE",
"220 669 OFFCURVE",
"315 669 CURVE SMOOTH",
"401 669 OFFCURVE",
"426 590 OFFCURVE",
"434 527 CURVE",
"466 635 LINE",
"439 680 OFFCURVE",
"364 693 OFFCURVE",
"323 693 CURVE SMOOTH",
"187 693 OFFCURVE",
"121 610 OFFCURVE",
"121 452 CURVE SMOOTH",
"121 436 LINE",
"25 436 LINE",
"25 411 LINE",
"121 411 LINE",
"121 121 LINE SMOOTH",
"121 31 OFFCURVE",
"107 29 OFFCURVE",
"49 22 CURVE SMOOTH",
"33 20 LINE",
"33 -3 LINE"
);
}
);
width = 856;
}
);
leftKerningGroup = f;
leftMetricsKey = f;
rightKerningGroup = l;
rightMetricsKey = l;
},
{
color = 6;
glyphname = f_h.liga;
layers = (
{
layerId = "9372F035-DA38-4B54-966C-CEBA9B53DD02";
paths = (
{
closed = 1;
nodes = (
"433 0 LINE",
"435 0 LINE",
"558 -3 LINE",
"558 20 LINE",
"542 22 LINE SMOOTH",
"484 29 OFFCURVE",
"470 31 OFFCURVE",
"470 121 CURVE SMOOTH",
"470 640 LINE",
"400 640 LINE",
"400 121 LINE SMOOTH",
"400 31 OFFCURVE",
"387 29 OFFCURVE",
"333 22 CURVE SMOOTH",
"318 20 LINE",
"318 -3 LINE"
);
},
{
closed = 1;
nodes = (
"148 0 LINE",
"265 -3 LINE",
"265 20 LINE",
"249 22 LINE SMOOTH",
"198 28 OFFCURVE",
"183 31 OFFCURVE",
"183 121 CURVE SMOOTH",
"183 411 LINE",
"275 411 LINE",
"275 436 LINE",
"183 436 LINE",
"183 485 LINE SMOOTH",
"183 611 OFFCURVE",
"203 699 OFFCURVE",
"307 699 CURVE SMOOTH",
"351 699 OFFCURVE",
"400 677 OFFCURVE",
"400 594 CURVE SMOOTH",
"400 140 LINE",
"470 140 LINE",
"470 725 LINE",
"406 694 LINE",
"384 712 OFFCURVE",
"347 724 OFFCURVE",
"308 724 CURVE SMOOTH",
"157 724 OFFCURVE",
"113 611 OFFCURVE",
"113 485 CURVE SMOOTH",
"113 436 LINE",
"27 436 LINE",
"27 411 LINE",
"113 411 LINE",
"113 121 LINE SMOOTH",
"113 31 OFFCURVE",
"99 29 OFFCURVE",
"41 22 CURVE SMOOTH",
"25 20 LINE",
"25 -3 LINE"
);
},
{
closed = 1;
nodes = (
"745 0 LINE",
"868 -3 LINE",
"868 20 LINE",
"852 22 LINE SMOOTH",
"794 29 OFFCURVE",
"780 31 OFFCURVE",
"780 121 CURVE SMOOTH",
"780 321 LINE SMOOTH",
"780 406 OFFCURVE",
"724 454 OFFCURVE",
"633 454 CURVE SMOOTH",
"529 454 OFFCURVE",
"458 373 OFFCURVE",
"447 315 CURVE",
"468 315 LINE",
"483 360 OFFCURVE",
"535 424 OFFCURVE",
"611 424 CURVE SMOOTH",
"674 424 OFFCURVE",
"710 388 OFFCURVE",
"710 321 CURVE SMOOTH",
"710 121 LINE SMOOTH",
"710 31 OFFCURVE",
"696 29 OFFCURVE",
"638 22 CURVE SMOOTH",
"622 20 LINE",
"622 -3 LINE"
);
}
);
width = 879;
}
);
leftKerningGroup = f;
leftMetricsKey = f;
rightKerningGroup = n;
rightMetricsKey = h;
},
{
color = 3;
glyphname = f_j.liga;
layers = (
{
components = (
{
alignment = -1;
name = jdotless;
transform = "{1, 0, 0, 1, 278, 0}";
}
);
layerId = "9372F035-DA38-4B54-966C-CEBA9B53DD02";
paths = (
{
closed = 1;
nodes = (
"156 0 LINE",
"265 -3 LINE",
"265 20 LINE",
"249 22 LINE SMOOTH",
"202 29 OFFCURVE",
"191 31 OFFCURVE",
"191 121 CURVE SMOOTH",
"191 411 LINE",
"348 411 LINE",
"348 436 LINE",
"191 436 LINE",
"191 499 LINE SMOOTH",
"191 599 OFFCURVE",
"205 699 OFFCURVE",
"311 699 CURVE SMOOTH",
"359 699 OFFCURVE",
"396 666 OFFCURVE",
"396 636 CURVE SMOOTH",
"396 617 OFFCURVE",
"377 615 OFFCURVE",
"377 591 CURVE SMOOTH",
"377 567 OFFCURVE",
"397 551 OFFCURVE",
"421 551 CURVE SMOOTH",
"451 551 OFFCURVE",
"470 573 OFFCURVE",
"470 607 CURVE SMOOTH",
"470 687 OFFCURVE",
"385 724 OFFCURVE",
"311 724 CURVE SMOOTH",
"159 724 OFFCURVE",
"121 617 OFFCURVE",
"121 504 CURVE SMOOTH",
"121 436 LINE",
"25 436 LINE",
"25 411 LINE",
"121 411 LINE",
"121 121 LINE SMOOTH",
"121 31 OFFCURVE",
"107 29 OFFCURVE",
"49 22 CURVE SMOOTH",
"33 20 LINE",
"33 -3 LINE"
);
}
);
width = 544;
}
);
leftKerningGroup = f;
leftMetricsKey = f;
rightKerningGroup = l;
rightMetricsKey = j;
},
{
color = 6;
glyphname = f_k.liga;
layers = (
{
layerId = "9372F035-DA38-4B54-966C-CEBA9B53DD02";
paths = (
{
closed = 1;
nodes = (
"435 0 LINE",
"558 -3 LINE",
"558 20 LINE",
"542 22 LINE SMOOTH",
"484 29 OFFCURVE",
"470 31 OFFCURVE",
"470 121 CURVE SMOOTH",
"470 154 LINE",
"520 214 LINE",
"710 0 LINE",
"821 -3 LINE",
"821 20 LINE",
"805 22 LINE SMOOTH",
"781 25 OFFCURVE",
"756 53 OFFCURVE",
"736 76 CURVE SMOOTH",
"565 268 LINE",
"621 335 LINE SMOOTH",
"655 375 OFFCURVE",
"695 405 OFFCURVE",
"755 413 CURVE SMOOTH",
"771 415 LINE",
"771 438 LINE",
"687 436 LINE",
"591 438 LINE",
"591 415 LINE",
"607 413 LINE SMOOTH",
"624 411 OFFCURVE",
"631 405 OFFCURVE",
"631 395 CURVE SMOOTH",
"631 388 OFFCURVE",
"627 378 OFFCURVE",
"618 367 CURVE SMOOTH",
"470 188 LINE",
"470 644 LINE",
"400 644 LINE",
"400 121 LINE SMOOTH",
"400 31 OFFCURVE",
"386 29 OFFCURVE",
"328 22 CURVE SMOOTH",
"312 20 LINE",
"312 -3 LINE"
);
},
{
closed = 1;
nodes = (
"148 0 LINE",
"265 -3 LINE",
"265 20 LINE",
"249 22 LINE SMOOTH",
"198 28 OFFCURVE",
"183 31 OFFCURVE",
"183 121 CURVE SMOOTH",
"183 411 LINE",
"275 411 LINE",
"275 436 LINE",
"183 436 LINE",
"183 485 LINE SMOOTH",
"183 611 OFFCURVE",
"203 699 OFFCURVE",
"307 699 CURVE SMOOTH",
"351 699 OFFCURVE",
"400 677 OFFCURVE",
"400 594 CURVE SMOOTH",
"400 140 LINE",
"470 140 LINE",
"470 725 LINE",
"406 694 LINE",
"384 712 OFFCURVE",
"347 724 OFFCURVE",
"308 724 CURVE SMOOTH",
"157 724 OFFCURVE",
"113 611 OFFCURVE",
"113 485 CURVE SMOOTH",
"113 436 LINE",
"27 436 LINE",
"27 411 LINE",
"113 411 LINE",
"113 121 LINE SMOOTH",
"113 31 OFFCURVE",
"99 29 OFFCURVE",
"41 22 CURVE SMOOTH",
"25 20 LINE",
"25 -3 LINE"
);
}
);
width = 821;
}
);
leftKerningGroup = f;
leftMetricsKey = f;
rightKerningGroup = k;
rightMetricsKey = k;
},
{
color = 3;
glyphname = fi;
layers = (
{
components = (
{
alignment = -1;
name = idotless;
transform = "{1, 0, 0, 1, 283, 0}";
}
);
layerId = "9372F035-DA38-4B54-966C-CEBA9B53DD02";
paths = (
{
closed = 1;
nodes = (
"156 0 LINE",
"265 -3 LINE",
"265 20 LINE",
"249 22 LINE SMOOTH",
"202 29 OFFCURVE",
"191 31 OFFCURVE",
"191 121 CURVE SMOOTH",
"191 411 LINE",
"348 411 LINE",
"348 436 LINE",
"191 436 LINE",
"191 499 LINE SMOOTH",
"191 599 OFFCURVE",
"205 699 OFFCURVE",
"311 699 CURVE SMOOTH",
"359 699 OFFCURVE",
"396 666 OFFCURVE",
"396 636 CURVE SMOOTH",
"396 617 OFFCURVE",
"377 615 OFFCURVE",
"377 591 CURVE SMOOTH",
"377 567 OFFCURVE",
"397 551 OFFCURVE",
"421 551 CURVE SMOOTH",
"451 551 OFFCURVE",
"470 573 OFFCURVE",
"470 607 CURVE SMOOTH",
"470 687 OFFCURVE",
"385 724 OFFCURVE",
"311 724 CURVE SMOOTH",
"159 724 OFFCURVE",
"121 617 OFFCURVE",
"121 504 CURVE SMOOTH",
"121 436 LINE",
"25 436 LINE",
"25 411 LINE",
"121 411 LINE",
"121 121 LINE SMOOTH",
"121 31 OFFCURVE",
"107 29 OFFCURVE",
"49 22 CURVE SMOOTH",
"33 20 LINE",
"33 -3 LINE"
);
}
);
width = 567;
}
);
leftKerningGroup = f;
leftMetricsKey = f;
rightKerningGroup = l;
rightMetricsKey = i;
unicode = FB01;
},
{
color = 6;
glyphname = fl;
layers = (
{
layerId = "9372F035-DA38-4B54-966C-CEBA9B53DD02";
paths = (
{
closed = 1;
nodes = (
"435 0 LINE",
"558 -3 LINE",
"558 20 LINE",
"542 22 LINE SMOOTH",
"484 29 OFFCURVE",
"470 31 OFFCURVE",
"470 121 CURVE SMOOTH",
"470 140 LINE",
"400 140 LINE",
"400 121 LINE SMOOTH",
"400 31 OFFCURVE",
"386 29 OFFCURVE",
"340 22 CURVE SMOOTH",
"324 20 LINE",
"324 -3 LINE"
);
},
{
closed = 1;
nodes = (
"148 0 LINE",
"265 -3 LINE",
"265 20 LINE",
"249 22 LINE SMOOTH",
"198 28 OFFCURVE",
"183 31 OFFCURVE",
"183 121 CURVE SMOOTH",
"183 411 LINE",
"275 411 LINE",
"275 436 LINE",
"183 436 LINE",
"183 485 LINE SMOOTH",
"183 611 OFFCURVE",
"203 699 OFFCURVE",
"307 699 CURVE SMOOTH",
"351 699 OFFCURVE",
"400 677 OFFCURVE",
"400 594 CURVE SMOOTH",
"400 140 LINE",
"470 140 LINE",
"470 725 LINE",
"406 694 LINE",
"384 712 OFFCURVE",
"347 724 OFFCURVE",
"308 724 CURVE SMOOTH",
"157 724 OFFCURVE",
"113 611 OFFCURVE",
"113 485 CURVE SMOOTH",
"113 436 LINE",
"27 436 LINE",
"27 411 LINE",
"113 411 LINE",
"113 121 LINE SMOOTH",
"113 31 OFFCURVE",
"99 29 OFFCURVE",
"41 22 CURVE SMOOTH",
"25 20 LINE",
"25 -3 LINE"
);
}
);
width = 573;
}
);
leftKerningGroup = f;
leftMetricsKey = f;
rightKerningGroup = l;
rightMetricsKey = l;
unicode = FB02;
},
{
color = 6;
glyphname = Fhook.sc;
layers = (
{
anchors = (
{
name = bottom;
position = "{225, 0}";
},
{
name = top;
position = "{337, 710}";
}
);
layerId = "9372F035-DA38-4B54-966C-CEBA9B53DD02";
paths = (
{
closed = 1;
nodes = (
"129 -294 OFFCURVE",
"187 -237 OFFCURVE",
"187 -152 CURVE SMOOTH",
"187 223 LINE",
"262 223 LINE SMOOTH",
"291 223 OFFCURVE",
"308 199 OFFCURVE",
"308 134 CURVE",
"329 134 LINE",
"326 236 LINE",
"329 326 LINE",
"308 326 LINE",
"305 263 OFFCURVE",
"289 247 OFFCURVE",
"265 247 CURVE SMOOTH",
"187 247 LINE",
"187 430 LINE",
"275 430 LINE SMOOTH",
"366 430 OFFCURVE",
"377 404 OFFCURVE",
"397 343 CURVE",
"418 343 LINE",
"411 455 LINE",
"147 455 LINE",
"30 458 LINE",
"30 435 LINE",
"46 433 LINE SMOOTH",
"104 426 OFFCURVE",
"117 424 OFFCURVE",
"117 334 CURVE SMOOTH",
"117 -152 LINE SMOOTH",
"117 -205 OFFCURVE",
"112 -273 OFFCURVE",
"67 -273 CURVE SMOOTH",
"52 -273 OFFCURVE",
"39 -264 OFFCURVE",
"39 -246 CURVE SMOOTH",
"39 -240 OFFCURVE",
"40 -235 OFFCURVE",
"43 -226 CURVE SMOOTH",
"45 -220 OFFCURVE",
"47 -213 OFFCURVE",
"47 -207 CURVE SMOOTH",
"47 -189 OFFCURVE",
"34 -167 OFFCURVE",
"4 -167 CURVE SMOOTH",
"-31 -167 OFFCURVE",
"-49 -193 OFFCURVE",
"-49 -223 CURVE SMOOTH",
"-49 -266 OFFCURVE",
"-13 -294 OFFCURVE",
"50 -294 CURVE SMOOTH"
);
}
);
width = 452;
}
);
leftKerningGroup = H;
rightKerningGroup = F;
rightMetricsKey = f.sc;
},
{
color = 6;
glyphname = a.sc;
layers = (
{
anchors = (
{
name = bottom;
position = "{217, 0}";
},
{
name = ogonek;
position = "{463, 10}";
},
{
name = top;
position = "{257, 455}";
}
);
layerId = "9372F035-DA38-4B54-966C-CEBA9B53DD02";
paths = (
{
closed = 1;
nodes = (
"73 0 LINE",
"148 -3 LINE",
"148 18 LINE",
"122 21 LINE SMOOTH",
"108 23 OFFCURVE",
"100 27 OFFCURVE",
"100 41 CURVE SMOOTH",
"100 52 OFFCURVE",
"106 68 OFFCURVE",
"116 94 CURVE SMOOTH",
"231 379 LINE",
"348 78 LINE SMOOTH",
"352 67 OFFCURVE",
"354 58 OFFCURVE",
"354 51 CURVE SMOOTH",
"354 34 OFFCURVE",
"343 27 OFFCURVE",
"331 25 CURVE SMOOTH",
"293 18 LINE",
"293 -3 LINE",
"410 0 LINE",
"514 -3 LINE",
"514 18 LINE",
"484 25 LINE SMOOTH",
"451 33 OFFCURVE",
"439 60 OFFCURVE",
"415 118 CURVE SMOOTH",
"275 455 LINE",
"237 455 LINE",
"86 92 LINE SMOOTH",
"63 37 OFFCURVE",
"50 29 OFFCURVE",
"14 21 CURVE SMOOTH",
"0 18 LINE",
"0 -3 LINE"
);
},
{
closed = 1;
nodes = (
"325 154 LINE",
"316 179 LINE",
"143 179 LINE",
"132 154 LINE"
);
}
);
width = 514;
}
);
leftKerningGroup = a.sc;
rightKerningGroup = a.sc;
},
{
color = 6;
glyphname = ae.sc;
layers = (
{
anchors = (
{
name = bottom;
position = "{437, 0}";
},
{
name = ogonek;
position = "{623, 10}";
}
);
layerId = "9372F035-DA38-4B54-966C-CEBA9B53DD02";
paths = (
{
closed = 1;
nodes = (
"39 0 LINE",
"117 -3 LINE",
"117 20 LINE",
"91 23 LINE SMOOTH",
"80 24 OFFCURVE",
"72 27 OFFCURVE",
"72 35 CURVE SMOOTH",
"72 44 OFFCURVE",
"82 61 OFFCURVE",
"106 94 CURVE SMOOTH",
"341 426 LINE",
"323 431 LINE",
"323 121 LINE SMOOTH",
"323 31 OFFCURVE",
"308 29 OFFCURVE",
"250 22 CURVE SMOOTH",
"234 20 LINE",
"234 -3 LINE",
"357 0 LINE",
"643 0 LINE",
"650 144 LINE",
"629 144 LINE",
"611 65 OFFCURVE",
"602 27 OFFCURVE",
"524 27 CURVE SMOOTH",
"458 27 LINE SMOOTH",
"406 27 OFFCURVE",
"392 45 OFFCURVE",
"392 78 CURVE SMOOTH",
"392 429 LINE",
"485 429 LINE SMOOTH",
"577 429 OFFCURVE",
"589 404 OFFCURVE",
"609 343 CURVE",
"628 343 LINE",
"621 455 LINE",
"358 455 LINE",
"243 458 LINE",
"243 435 LINE",
"263 433 LINE SMOOTH",
"276 432 OFFCURVE",
"296 430 OFFCURVE",
"296 414 CURVE SMOOTH",
"296 407 OFFCURVE",
"293 398 OFFCURVE",
"283 384 CURVE SMOOTH",
"74 92 LINE SMOOTH",
"32 34 OFFCURVE",
"17 31 OFFCURVE",
"-20 23 CURVE SMOOTH",
"-34 20 LINE",
"-34 -3 LINE"
);
},
{
closed = 1;
nodes = (
"328 154 LINE",
"328 179 LINE",
"158 179 LINE",
"141 154 LINE"
);
},
{
closed = 1;
nodes = (
"540 134 LINE",
"538 237 LINE",
"540 326 LINE",
"518 326 LINE",
"515 263 OFFCURVE",
"498 247 OFFCURVE",
"475 247 CURVE SMOOTH",
"386 247 LINE",
"386 223 LINE",
"472 223 LINE SMOOTH",
"501 223 OFFCURVE",
"518 199 OFFCURVE",
"518 134 CURVE"
);
}
);
width = 690;
}
);
leftKerningGroup = AE.sc;
rightKerningGroup = H;
rightMetricsKey = E;
},
{
color = 6;
glyphname = b.sc;
layers = (
{
anchors = (
{
name = bottom;
position = "{262, 0}";
},
{
name = top;
position = "{262, 455}";
}
);
guideLines = (
{
position = "{30, 458}";
}
);
layerId = "9372F035-DA38-4B54-966C-CEBA9B53DD02";
paths = (
{
closed = 1;
nodes = (
"152 0 LINE",
"323 0 LINE SMOOTH",
"372 0 OFFCURVE",
"474 30 OFFCURVE",
"474 131 CURVE SMOOTH",
"474 213 OFFCURVE",
"404 239 OFFCURVE",
"334 247 CURVE",
"387 258 OFFCURVE",
"445 288 OFFCURVE",
"445 355 CURVE SMOOTH",
"445 441 OFFCURVE",
"340 455 OFFCURVE",
"265 455 CURVE SMOOTH",
"153 455 LINE",
"30 458 LINE",
"30 435 LINE",
"46 433 LINE SMOOTH",
"104 426 OFFCURVE",
"118 424 OFFCURVE",
"118 334 CURVE SMOOTH",
"118 121 LINE SMOOTH",
"118 31 OFFCURVE",
"103 29 OFFCURVE",
"45 22 CURVE SMOOTH",
"29 20 LINE",
"29 -3 LINE"
);
},
{
closed = 1;
nodes = (
"210 24 OFFCURVE",
"185 46 OFFCURVE",
"185 96 CURVE SMOOTH",
"185 431 LINE",
"245 431 LINE SMOOTH",
"330 431 OFFCURVE",
"368 410 OFFCURVE",
"368 349 CURVE SMOOTH",
"368 288 OFFCURVE",
"338 253 OFFCURVE",
"284 253 CURVE SMOOTH",
"179 253 LINE",
"179 229 LINE",
"260 229 LINE SMOOTH",
"332 229 OFFCURVE",
"397 222 OFFCURVE",
"397 131 CURVE SMOOTH",
"397 58 OFFCURVE",
"362 24 OFFCURVE",
"288 24 CURVE SMOOTH",
"250 24 LINE SMOOTH"
);
}
);
width = 511;
}
);
leftKerningGroup = H;
leftMetricsKey = i.sc;
rightKerningGroup = B;
},
{
color = 6;
glyphname = c.sc;
layers = (
{
anchors = (
{
name = bottom;
position = "{265, 0}";
},
{
name = top;
position = "{275, 455}";
}
);
hints = (
{
origin = "{0, 40}";
target = "{0, 18}";
type = Stem;
},
{
horizontal = 1;
origin = "{0, 43}";
target = "{0, 15}";
type = Stem;
},
{
horizontal = 1;
origin = "{0, 21}";
target = "{0, 37}";
type = Stem;
},
{
origin = "{0, 12}";
target = "{0, 11}";
type = Stem;
}
);
layerId = "9372F035-DA38-4B54-966C-CEBA9B53DD02";
paths = (
{
closed = 1;
nodes = (
"310 -11 OFFCURVE",
"349 7 OFFCURVE",
"376 20 CURVE SMOOTH",
"392 28 OFFCURVE",
"404 34 OFFCURVE",
"411 34 CURVE SMOOTH",
"428 34 OFFCURVE",
"433 13 OFFCURVE",
"435 0 CURVE",
"453 0 LINE",
"450 88 LINE",
"452 175 LINE",
"428 175 LINE",
"420 89 OFFCURVE",
"362 19 OFFCURVE",
"274 19 CURVE SMOOTH",
"171 19 OFFCURVE",
"127 109 OFFCURVE",
"127 218 CURVE SMOOTH",
"127 334 OFFCURVE",
"168 439 OFFCURVE",
"278 439 CURVE SMOOTH",
"350 439 OFFCURVE",
"410 394 OFFCURVE",
"426 306 CURVE",
"450 306 LINE",
"449 387 LINE",
"452 459 LINE",
"427 459 LINE",
"426 438 OFFCURVE",
"420 431 OFFCURVE",
"411 431 CURVE SMOOTH",
"401 431 OFFCURVE",
"388 437 OFFCURVE",
"365 448 CURVE SMOOTH",
"336 462 OFFCURVE",
"298 469 OFFCURVE",
"274 469 CURVE SMOOTH",
"147 469 OFFCURVE",
"47 363 OFFCURVE",
"47 218 CURVE SMOOTH",
"47 101 OFFCURVE",
"130 -11 OFFCURVE",
"260 -11 CURVE SMOOTH"
);
}
);
width = 510;
}
);
leftKerningGroup = o.sc;
leftMetricsKey = o.sc;
rightKerningGroup = C;
},
{
color = 6;
glyphname = d.sc;
layers = (
{
anchors = (
{
name = bottom;
position = "{298, 0}";
},
{
name = center;
position = "{171, 228}";
},
{
name = top;
position = "{238, 455}";
}
);
layerId = "9372F035-DA38-4B54-966C-CEBA9B53DD02";
paths = (
{
closed = 1;
nodes = (
"148 0 LINE",
"264 0 LINE SMOOTH",
"362 0 OFFCURVE",
"531 43 OFFCURVE",
"531 232 CURVE SMOOTH",
"531 452 OFFCURVE",
"307 455 OFFCURVE",
"251 455 CURVE SMOOTH",
"152 455 LINE",
"29 458 LINE",
"29 435 LINE",
"45 433 LINE SMOOTH",
"103 426 OFFCURVE",
"117 424 OFFCURVE",
"117 334 CURVE SMOOTH",
"117 108 LINE SMOOTH",
"117 27 OFFCURVE",
"104 25 OFFCURVE",
"52 19 CURVE SMOOTH",
"38 17 LINE",
"38 -3 LINE"
);
},
{
closed = 1;
nodes = (
"199 25 OFFCURVE",
"187 51 OFFCURVE",
"187 103 CURVE SMOOTH",
"187 430 LINE",
"269 430 LINE SMOOTH",
"349 430 OFFCURVE",
"451 406 OFFCURVE",
"451 232 CURVE SMOOTH",
"451 29 OFFCURVE",
"298 25 OFFCURVE",
"267 25 CURVE SMOOTH",
"234 25 LINE SMOOTH"
);
}
);
width = 578;
}
);
leftKerningGroup = H;
leftMetricsKey = i.sc;
rightKerningGroup = o.sc;
},
{
color = 6;
glyphname = e.sc;
layers = (
{
anchors = (
{
name = bottom;
position = "{232, 0}";
},
{
name = ogonek;
position = "{418, 10}";
},
{
name = top;
position = "{252, 455}";
},
{
name = topleft;
position = "{19, 455}";
}
);
layerId = "9372F035-DA38-4B54-966C-CEBA9B53DD02";
paths = (
{
closed = 1;
nodes = (
"152 0 LINE",
"438 0 LINE",
"438 63 LINE",
"445 144 LINE",
"424 144 LINE",
"407 69 OFFCURVE",
"397 25 OFFCURVE",
"319 25 CURVE SMOOTH",
"253 25 LINE SMOOTH",
"201 25 OFFCURVE",
"187 44 OFFCURVE",
"187 78 CURVE SMOOTH",
"187 223 LINE",
"267 223 LINE SMOOTH",
"296 223 OFFCURVE",
"313 199 OFFCURVE",
"313 134 CURVE",
"334 134 LINE",
"331 234 LINE",
"334 326 LINE",
"313 326 LINE",
"310 263 OFFCURVE",
"293 246 OFFCURVE",
"270 246 CURVE SMOOTH",
"187 246 LINE",
"187 430 LINE",
"280 430 LINE SMOOTH",
"371 430 OFFCURVE",
"381 404 OFFCURVE",
"401 343 CURVE",
"422 343 LINE",
"416 411 LINE",
"416 455 LINE",
"153 455 LINE",
"30 458 LINE",
"30 435 LINE",
"46 433 LINE SMOOTH",
"104 426 OFFCURVE",
"117 424 OFFCURVE",
"117 334 CURVE SMOOTH",
"117 121 LINE SMOOTH",
"117 31 OFFCURVE",
"103 29 OFFCURVE",
"45 22 CURVE SMOOTH",
"29 20 LINE",
"29 -3 LINE"
);
}
);
width = 482;
}
);
leftKerningGroup = H;
leftMetricsKey = i.sc;
rightKerningGroup = H;
},
{
color = 3;
glyphname = eogonek.sc;
layers = (
{
components = (
{
name = e.sc;
}
);
layerId = "9372F035-DA38-4B54-966C-CEBA9B53DD02";
paths = (
{
closed = 1;
nodes = (
"420 -294 OFFCURVE",
"457 -234 OFFCURVE",
"464 -183 CURVE",
"447 -170 LINE",
"428 -212 OFFCURVE",
"392 -239 OFFCURVE",
"355 -239 CURVE SMOOTH",
"314 -239 OFFCURVE",
"279 -210 OFFCURVE",
"279 -154 CURVE SMOOTH",
"279 -69 OFFCURVE",
"367 0 OFFCURVE",
"439 0 CURVE",
"433 29 LINE",
"300 -14 OFFCURVE",
"226 -112 OFFCURVE",
"226 -191 CURVE SMOOTH",
"226 -250 OFFCURVE",
"273 -294 OFFCURVE",
"334 -294 CURVE SMOOTH"
);
}
);
width = 466;
}
);
leftKerningGroup = H;
rightKerningGroup = H;
},
{
color = 6;
glyphname = f.sc;
layers = (
{
anchors = (
{
name = bottom;
position = "{225, 0}";
},
{
name = top;
position = "{245, 455}";
}
);
layerId = "9372F035-DA38-4B54-966C-CEBA9B53DD02";
paths = (
{
closed = 1;
nodes = (
"152 0 LINE",
"295 -3 LINE",
"295 20 LINE",
"279 22 LINE SMOOTH",
"205 29 OFFCURVE",
"187 31 OFFCURVE",
"187 121 CURVE SMOOTH",
"187 223 LINE",
"262 223 LINE SMOOTH",
"291 223 OFFCURVE",
"308 199 OFFCURVE",
"308 134 CURVE",
"329 134 LINE",
"326 236 LINE",
"329 326 LINE",
"308 326 LINE",
"305 263 OFFCURVE",
"289 247 OFFCURVE",
"265 247 CURVE SMOOTH",
"187 247 LINE",
"187 430 LINE",
"275 430 LINE SMOOTH",
"366 430 OFFCURVE",
"377 404 OFFCURVE",
"397 343 CURVE",
"418 343 LINE",
"411 455 LINE",
"147 455 LINE",
"30 458 LINE",
"30 435 LINE",
"46 433 LINE SMOOTH",
"104 426 OFFCURVE",
"117 424 OFFCURVE",
"117 334 CURVE SMOOTH",
"117 121 LINE SMOOTH",
"117 31 OFFCURVE",
"103 29 OFFCURVE",
"45 22 CURVE SMOOTH",
"29 20 LINE",
"29 -3 LINE"
);
}
);
width = 452;
}
);
leftKerningGroup = H;
leftMetricsKey = i.sc;
rightKerningGroup = F;
},
{
color = 6;
glyphname = g.sc;
layers = (
{
anchors = (
{
name = bottom;
position = "{311, 0}";
},
{
name = top;
position = "{271, 455}";
}
);
layerId = "9372F035-DA38-4B54-966C-CEBA9B53DD02";
paths = (
{
closed = 1;
nodes = (
"316 -11 OFFCURVE",
"363 11 OFFCURVE",
"395 29 CURVE SMOOTH",
"411 38 OFFCURVE",
"426 43 OFFCURVE",
"442 43 CURVE SMOOTH",
"456 43 OFFCURVE",
"473 37 OFFCURVE",
"478 28 CURVE",
"496 39 LINE",
"490 49 LINE SMOOTH",
"483 61 OFFCURVE",
"475 80 OFFCURVE",
"475 100 CURVE SMOOTH",
"475 113 LINE SMOOTH",
"475 153 OFFCURVE",
"487 168 OFFCURVE",
"505 169 CURVE SMOOTH",
"535 171 LINE",
"535 193 LINE",
"435 190 LINE",
"327 193 LINE",
"327 171 LINE",
"355 169 LINE SMOOTH",
"394 166 OFFCURVE",
"405 151 OFFCURVE",
"405 125 CURVE SMOOTH",
"405 89 LINE SMOOTH",
"405 54 OFFCURVE",
"340 19 OFFCURVE",
"282 19 CURVE SMOOTH",
"165 19 OFFCURVE",
"127 110 OFFCURVE",
"127 218 CURVE SMOOTH",
"127 346 OFFCURVE",
"176 439 OFFCURVE",
"280 439 CURVE SMOOTH",
"354 439 OFFCURVE",
"410 391 OFFCURVE",
"426 305 CURVE",
"447 305 LINE",
"444 383 LINE",
"447 460 LINE",
"426 460 LINE",
"423 438 OFFCURVE",
"418 431 OFFCURVE",
"410 431 CURVE SMOOTH",
"403 431 OFFCURVE",
"398 433 OFFCURVE",
"380 442 CURVE SMOOTH",
"365 450 OFFCURVE",
"326 469 OFFCURVE",
"274 469 CURVE SMOOTH",
"147 469 OFFCURVE",
"47 369 OFFCURVE",
"47 218 CURVE SMOOTH",
"47 89 OFFCURVE",
"122 -11 OFFCURVE",
"266 -11 CURVE SMOOTH"
);
}
);
width = 557;
}
);
leftKerningGroup = o.sc;
leftMetricsKey = o.sc;
rightKerningGroup = G;
},
{
color = 6;
glyphname = h.sc;
layers = (
{
anchors = (
{
name = bottom;
position = "{314, 0}";
},
{
name = center;
position = "{314, 327}";
},
{
name = top;
position = "{314, 455}";
},
{
name = topleft;
position = "{49, 455}";
}
);
layerId = "9372F035-DA38-4B54-966C-CEBA9B53DD02";
paths = (
{
closed = 1;
nodes = (
"153 0 LINE",
"276 -3 LINE",
"276 20 LINE",
"260 22 LINE SMOOTH",
"202 29 OFFCURVE",
"188 31 OFFCURVE",
"188 121 CURVE SMOOTH",
"188 334 LINE SMOOTH",
"188 424 OFFCURVE",
"202 426 OFFCURVE",
"260 433 CURVE SMOOTH",
"276 435 LINE",
"276 458 LINE",
"153 455 LINE",
"152 455 LINE",
"29 458 LINE",
"29 435 LINE",
"45 433 LINE SMOOTH",
"103 426 OFFCURVE",
"117 424 OFFCURVE",
"117 334 CURVE SMOOTH",
"117 121 LINE SMOOTH",
"117 31 OFFCURVE",
"104 29 OFFCURVE",
"46 22 CURVE SMOOTH",
"30 20 LINE",
"30 -3 LINE"
);
},
{
closed = 1;
nodes = (
"446 212 LINE",
"446 237 LINE",
"182 237 LINE",
"182 212 LINE"
);
},
{
closed = 1;
nodes = (
"475 0 LINE",
"598 -3 LINE",
"598 20 LINE",
"582 22 LINE SMOOTH",
"524 29 OFFCURVE",
"510 31 OFFCURVE",
"510 121 CURVE SMOOTH",
"510 334 LINE SMOOTH",
"510 424 OFFCURVE",
"524 426 OFFCURVE",
"582 433 CURVE SMOOTH",
"598 435 LINE",
"598 458 LINE",
"475 455 LINE",
"352 458 LINE",
"352 435 LINE",
"368 433 LINE SMOOTH",
"426 426 OFFCURVE",
"440 424 OFFCURVE",
"440 334 CURVE SMOOTH",
"440 121 LINE SMOOTH",
"440 31 OFFCURVE",
"426 29 OFFCURVE",
"368 22 CURVE SMOOTH",
"352 20 LINE",
"352 -3 LINE"
);
}
);
width = 627;
}
);
leftKerningGroup = H;
leftMetricsKey = i.sc;
rightKerningGroup = H;
rightMetricsKey = i.sc;
},
{
color = 6;
glyphname = i.sc;
layers = (
{
anchors = (
{
name = bottom;
position = "{153, 0}";
},
{
name = ogonek;
position = "{179, 0}";
},
{
name = top;
position = "{152, 455}";
}
);
layerId = "9372F035-DA38-4B54-966C-CEBA9B53DD02";
paths = (
{
closed = 1;
nodes = (
"153 0 LINE",
"276 -3 LINE",
"276 20 LINE",
"260 22 LINE SMOOTH",
"202 29 OFFCURVE",
"187 31 OFFCURVE",
"187 121 CURVE SMOOTH",
"187 334 LINE SMOOTH",
"187 424 OFFCURVE",
"201 426 OFFCURVE",
"259 433 CURVE SMOOTH",
"275 435 LINE",
"275 458 LINE",
"152 455 LINE",
"29 458 LINE",
"29 435 LINE",
"45 433 LINE SMOOTH",
"103 426 OFFCURVE",
"117 424 OFFCURVE",
"117 334 CURVE SMOOTH",
"117 121 LINE SMOOTH",
"117 31 OFFCURVE",
"104 29 OFFCURVE",
"46 22 CURVE SMOOTH",
"30 20 LINE",
"30 -3 LINE"
);
}
);
width = 305;
}
);
leftKerningGroup = H;
rightKerningGroup = H;
},
{
color = 6;
glyphname = j.sc;
layers = (
{
anchors = (
{
name = bottom;
position = "{188, 0}";
},
{
name = top;
position = "{228, 455}";
}
);
layerId = "9372F035-DA38-4B54-966C-CEBA9B53DD02";
paths = (
{
closed = 1;
nodes = (
"181 -11 OFFCURVE",
"266 12 OFFCURVE",
"266 127 CURVE SMOOTH",
"266 334 LINE SMOOTH",
"266 424 OFFCURVE",
"280 426 OFFCURVE",
"338 433 CURVE SMOOTH",
"354 435 LINE",
"354 458 LINE",
"231 455 LINE",
"108 458 LINE",
"108 435 LINE",
"124 433 LINE SMOOTH",
"182 426 OFFCURVE",
"196 424 OFFCURVE",
"196 334 CURVE SMOOTH",
"196 111 LINE SMOOTH",
"196 75 OFFCURVE",
"194 15 OFFCURVE",
"138 15 CURVE SMOOTH",
"118 15 OFFCURVE",
"105 24 OFFCURVE",
"105 38 CURVE SMOOTH",
"105 44 OFFCURVE",
"107 49 OFFCURVE",
"109 54 CURVE SMOOTH",
"111 59 OFFCURVE",
"113 64 OFFCURVE",
"113 71 CURVE SMOOTH",
"113 94 OFFCURVE",
"96 106 OFFCURVE",
"75 106 CURVE SMOOTH",
"49 106 OFFCURVE",
"30 87 OFFCURVE",
"30 63 CURVE SMOOTH",
"30 16 OFFCURVE",
"83 -11 OFFCURVE",
"131 -11 CURVE SMOOTH"
);
}
);
width = 381;
}
);
leftKerningGroup = J;
rightKerningGroup = U;
},
{
color = 6;
glyphname = k.sc;
layers = (
{
anchors = (
{
name = bottom;
position = "{280, 0}";
},
{
name = top;
position = "{300, 455}";
}
);
layerId = "9372F035-DA38-4B54-966C-CEBA9B53DD02";
paths = (
{
closed = 1;
nodes = (
"153 0 LINE",
"266 -3 LINE",
"266 20 LINE",
"250 22 LINE SMOOTH",
"198 29 OFFCURVE",
"186 31 OFFCURVE",
"186 121 CURVE SMOOTH",
"186 334 LINE SMOOTH",
"186 424 OFFCURVE",
"197 426 OFFCURVE",
"249 433 CURVE SMOOTH",
"265 435 LINE",
"265 458 LINE",
"152 455 LINE",
"29 458 LINE",
"29 435 LINE",
"45 433 LINE SMOOTH",
"103 426 OFFCURVE",
"118 424 OFFCURVE",
"118 334 CURVE SMOOTH",
"118 121 LINE SMOOTH",
"118 31 OFFCURVE",
"104 29 OFFCURVE",
"46 22 CURVE SMOOTH",
"30 20 LINE",
"30 -3 LINE"
);
},
{
closed = 1;
nodes = (
"443 0 LINE",
"551 -2 LINE",
"551 20 LINE",
"542 22 LINE SMOOTH",
"495 32 OFFCURVE",
"455 74 OFFCURVE",
"408 133 CURVE SMOOTH",
"287 287 LINE",
"236 233 LINE",
"359 85 LINE SMOOTH",
"370 72 OFFCURVE",
"373 58 OFFCURVE",
"373 50 CURVE SMOOTH",
"373 35 OFFCURVE",
"363 25 OFFCURVE",
"347 22 CURVE SMOOTH",
"337 20 LINE",
"337 -2 LINE"
);
},
{
closed = 1;
nodes = (
"402 384 LINE SMOOTH",
"426 409 OFFCURVE",
"451 431 OFFCURVE",
"476 433 CURVE SMOOTH",
"499 435 LINE",
"499 457 LINE",
"412 455 LINE",
"330 457 LINE",
"330 435 LINE",
"348 433 LINE SMOOTH",
"367 431 OFFCURVE",
"378 425 OFFCURVE",
"378 414 CURVE SMOOTH",
"378 404 OFFCURVE",
"370 390 OFFCURVE",
"353 372 CURVE SMOOTH",
"180 187 LINE",
"180 152 LINE"
);
}
);
width = 548;
}
);
leftKerningGroup = H;
leftMetricsKey = i.sc;
rightKerningGroup = K;
},
{
color = 6;
glyphname = l.sc;
layers = (
{
anchors = (
{
name = bottom;
position = "{240, 0}";
},
{
name = center;
position = "{170, 228}";
},
{
name = top;
position = "{160, 455}";
},
{
name = topright;
position = "{346, 179}";
}
);
guideLines = (
{
position = "{490, 314}";
}
);
layerId = "9372F035-DA38-4B54-966C-CEBA9B53DD02";
paths = (
{
closed = 1;
nodes = (
"152 0 LINE",
"439 -2 LINE",
"446 163 LINE",
"423 163 LINE",
"415 73 OFFCURVE",
"384 25 OFFCURVE",
"305 25 CURVE SMOOTH",
"250 25 LINE SMOOTH",
"194 25 OFFCURVE",
"187 60 OFFCURVE",
"187 119 CURVE SMOOTH",
"187 334 LINE SMOOTH",
"187 424 OFFCURVE",
"201 426 OFFCURVE",
"259 433 CURVE SMOOTH",
"275 435 LINE",
"275 458 LINE",
"152 455 LINE",
"29 458 LINE",
"29 435 LINE",
"45 433 LINE SMOOTH",
"103 426 OFFCURVE",
"117 424 OFFCURVE",
"117 334 CURVE SMOOTH",
"117 121 LINE SMOOTH",
"117 31 OFFCURVE",
"103 29 OFFCURVE",
"45 22 CURVE SMOOTH",
"29 20 LINE",
"29 -3 LINE"
);
}
);
width = 473;
}
);
leftKerningGroup = H;
leftMetricsKey = i.sc;
rightKerningGroup = L;
},
{
color = 6;
glyphname = m.sc;
layers = (
{
anchors = (
{
name = bottom;
position = "{344, 0}";
},
{
name = top;
position = "{344, 455}";
}
);
layerId = "9372F035-DA38-4B54-966C-CEBA9B53DD02";
paths = (
{
closed = 1;
nodes = (
"128 -1 LINE",
"228 -3 LINE",
"228 20 LINE",
"212 22 LINE SMOOTH",
"154 29 OFFCURVE",
"140 31 OFFCURVE",
"140 121 CURVE SMOOTH",
"140 423 LINE",
"126 420 LINE",
"324 5 LINE",
"341 5 LINE",
"538 415 LINE",
"523 418 LINE",
"523 122 LINE SMOOTH",
"523 32 OFFCURVE",
"509 30 OFFCURVE",
"451 23 CURVE SMOOTH",
"435 21 LINE",
"435 -2 LINE",
"558 1 LINE",
"681 -2 LINE",
"681 21 LINE",
"665 23 LINE SMOOTH",
"607 30 OFFCURVE",
"593 32 OFFCURVE",
"593 122 CURVE SMOOTH",
"593 376 LINE SMOOTH",
"593 409 OFFCURVE",
"596 427 OFFCURVE",
"627 429 CURVE SMOOTH",
"665 431 LINE",
"665 455 LINE",
"529 455 LINE",
"343 70 LINE",
"370 70 LINE",
"188 455 LINE",
"150 455 LINE",
"27 458 LINE",
"27 435 LINE",
"43 433 LINE SMOOTH",
"101 426 OFFCURVE",
"115 424 OFFCURVE",
"115 334 CURVE SMOOTH",
"115 121 LINE SMOOTH",
"115 31 OFFCURVE",
"101 29 OFFCURVE",
"43 22 CURVE SMOOTH",
"27 20 LINE",
"27 -3 LINE"
);
}
);
width = 710;
}
);
leftKerningGroup = H;
rightKerningGroup = H;
rightMetricsKey = i.sc;
},
{
color = 6;
glyphname = n.sc;
layers = (
{
anchors = (
{
name = bottom;
position = "{261, 0}";
},
{
name = top;
position = "{261, 455}";
}
);
layerId = "9372F035-DA38-4B54-966C-CEBA9B53DD02";
paths = (
{
closed = 1;
nodes = (
"459 0 LINE",
"459 334 LINE SMOOTH",
"459 423 OFFCURVE",
"473 425 OFFCURVE",
"531 432 CURVE SMOOTH",
"547 434 LINE",
"547 457 LINE",
"447 455 LINE",
"346 457 LINE",
"346 434 LINE",
"362 432 LINE SMOOTH",
"420 425 OFFCURVE",
"434 423 OFFCURVE",
"434 334 CURVE SMOOTH",
"434 135 LINE",
"391 184 OFFCURVE",
"212 388 OFFCURVE",
"159 455 CURVE",
"18 457 LINE",
"19 434 LINE",
"27 434 LINE SMOOTH",
"65 434 OFFCURVE",
"91 415 OFFCURVE",
"111 396 CURVE SMOOTH",
"180 330 OFFCURVE",
"389 88 OFFCURVE",
"434 0 CURVE"
);
},
{
closed = 1;
nodes = (
"101 -1 LINE",
"201 -3 LINE",
"201 20 LINE",
"185 22 LINE SMOOTH",
"127 29 OFFCURVE",
"113 31 OFFCURVE",
"113 121 CURVE SMOOTH",
"113 400 LINE",
"88 423 LINE",
"88 121 LINE SMOOTH",
"88 31 OFFCURVE",
"74 29 OFFCURVE",
"16 22 CURVE SMOOTH",
"0 20 LINE",
"0 -3 LINE"
);
}
);
width = 554;
}
);
leftKerningGroup = H;
rightKerningGroup = N;
},
{
color = 3;
glyphname = eng.sc;
layers = (
{
components = (
{
name = n.sc;
}
);
layerId = "9372F035-DA38-4B54-966C-CEBA9B53DD02";
paths = (
{
closed = 1;
nodes = (
"446 -294 OFFCURVE",
"459 -237 OFFCURVE",
"459 -152 CURVE SMOOTH",
"459 63 LINE",
"434 101 LINE",
"434 -152 LINE SMOOTH",
"434 -205 OFFCURVE",
"429 -273 OFFCURVE",
"384 -273 CURVE SMOOTH",
"369 -273 OFFCURVE",
"360 -266 OFFCURVE",
"360 -251 CURVE SMOOTH",
"360 -236 OFFCURVE",
"364 -232 OFFCURVE",
"364 -217 CURVE SMOOTH",
"364 -194 OFFCURVE",
"346 -167 OFFCURVE",
"316 -167 CURVE SMOOTH",
"286 -167 OFFCURVE",
"268 -190 OFFCURVE",
"268 -223 CURVE SMOOTH",
"268 -269 OFFCURVE",
"304 -294 OFFCURVE",
"367 -294 CURVE SMOOTH"
);
}
);
width = 554;
}
);
leftKerningGroup = H;
leftMetricsKey = n.sc;
rightKerningGroup = N;
rightMetricsKey = n.sc;
},
{
color = 6;
glyphname = o.sc;
layers = (
{
anchors = (
{
name = bottom;
position = "{303, 0}";
},
{
name = center;
position = "{303, 228}";
},
{
name = ogonek;
position = "{531, 10}";
},
{
name = top;
position = "{303, 455}";
},
{
name = topleft;
position = "{37, 455}";
},
{
name = topright;
position = "{568, 455}";
}
);
layerId = "9372F035-DA38-4B54-966C-CEBA9B53DD02";
paths = (
{
closed = 1;
nodes = (
"429 -11 OFFCURVE",
"558 90 OFFCURVE",
"558 228 CURVE SMOOTH",
"558 384 OFFCURVE",
"422 469 OFFCURVE",
"304 469 CURVE SMOOTH",
"179 469 OFFCURVE",
"47 376 OFFCURVE",
"47 228 CURVE SMOOTH",
"47 88 OFFCURVE",
"173 -11 OFFCURVE",
"304 -11 CURVE SMOOTH"
);
},
{
closed = 1;
nodes = (
"185 19 OFFCURVE",
"127 111 OFFCURVE",
"127 228 CURVE SMOOTH",
"127 345 OFFCURVE",
"172 439 OFFCURVE",
"304 439 CURVE SMOOTH",
"428 439 OFFCURVE",
"478 354 OFFCURVE",
"478 228 CURVE SMOOTH",
"478 113 OFFCURVE",
"427 19 OFFCURVE",
"304 19 CURVE SMOOTH"
);
}
);
width = 605;
}
);
leftKerningGroup = o.sc;
rightKerningGroup = o.sc;
},
{
color = 6;
glyphname = oe.sc;
layers = (
{
layerId = "9372F035-DA38-4B54-966C-CEBA9B53DD02";
paths = (
{
closed = 1;
nodes = (
"343 -11 OFFCURVE",
"374 -8 OFFCURVE",
"400 -5 CURVE SMOOTH",
"423 -2 OFFCURVE",
"441 0 OFFCURVE",
"458 0 CURVE SMOOTH",
"750 0 LINE",
"757 144 LINE",
"736 144 LINE",
"718 63 OFFCURVE",
"709 27 OFFCURVE",
"631 27 CURVE SMOOTH",
"565 27 LINE SMOOTH",
"513 27 OFFCURVE",
"499 45 OFFCURVE",
"499 78 CURVE SMOOTH",
"499 429 LINE",
"592 429 LINE SMOOTH",
"684 429 OFFCURVE",
"696 404 OFFCURVE",
"716 343 CURVE",
"735 343 LINE",
"728 455 LINE",
"495 455 LINE SMOOTH",
"456 455 OFFCURVE",
"429 458 OFFCURVE",
"401 462 CURVE SMOOTH",
"373 466 OFFCURVE",
"332 469 OFFCURVE",
"304 469 CURVE SMOOTH",
"179 469 OFFCURVE",
"47 376 OFFCURVE",
"47 228 CURVE SMOOTH",
"47 88 OFFCURVE",
"157 -11 OFFCURVE",
"304 -11 CURVE SMOOTH"
);
},
{
closed = 1;
nodes = (
"185 19 OFFCURVE",
"127 111 OFFCURVE",
"127 228 CURVE SMOOTH",
"127 345 OFFCURVE",
"172 439 OFFCURVE",
"304 439 CURVE SMOOTH",
"399 439 OFFCURVE",
"435 388 OFFCURVE",
"435 307 CURVE SMOOTH",
"435 137 LINE SMOOTH",
"435 55 OFFCURVE",
"395 19 OFFCURVE",
"304 19 CURVE SMOOTH"
);
},
{
closed = 1;
nodes = (
"647 134 LINE",
"645 237 LINE",
"647 326 LINE",
"625 326 LINE",
"622 263 OFFCURVE",
"605 247 OFFCURVE",
"582 247 CURVE SMOOTH",
"493 247 LINE",
"493 223 LINE",
"579 223 LINE SMOOTH",
"608 223 OFFCURVE",
"625 199 OFFCURVE",
"625 134 CURVE"
);
}
);
width = 794;
}
);
leftKerningGroup = o.sc;
leftMetricsKey = o.sc;
rightKerningGroup = H;
rightMetricsKey = e.sc;
},
{
color = 6;
glyphname = p.sc;
layers = (
{
anchors = (
{
name = bottom;
position = "{252, 0}";
},
{
name = top;
position = "{252, 455}";
}
);
layerId = "9372F035-DA38-4B54-966C-CEBA9B53DD02";
paths = (
{
closed = 1;
nodes = (
"151 0 LINE",
"273 -3 LINE",
"273 20 LINE",
"257 22 LINE SMOOTH",
"199 29 OFFCURVE",
"185 33 OFFCURVE",
"185 121 CURVE SMOOTH",
"185 431 LINE",
"295 431 LINE SMOOTH",
"355 431 OFFCURVE",
"387 397 OFFCURVE",
"387 330 CURVE SMOOTH",
"387 222 OFFCURVE",
"305 222 OFFCURVE",
"273 222 CURVE SMOOTH",
"179 222 LINE",
"179 198 LINE",
"273 198 LINE SMOOTH",
"384 198 OFFCURVE",
"465 247 OFFCURVE",
"465 335 CURVE SMOOTH",
"465 455 OFFCURVE",
"316 455 OFFCURVE",
"295 455 CURVE SMOOTH",
"153 455 LINE",
"30 458 LINE",
"30 435 LINE",
"46 433 LINE SMOOTH",
"104 426 OFFCURVE",
"117 423 OFFCURVE",
"117 334 CURVE SMOOTH",
"117 121 LINE SMOOTH",
"117 33 OFFCURVE",
"103 29 OFFCURVE",
"45 22 CURVE SMOOTH",
"29 20 LINE",
"29 -3 LINE"
);
}
);
width = 497;
}
);
leftKerningGroup = H;
leftMetricsKey = i.sc;
rightKerningGroup = P;
},
{
color = 6;
glyphname = thorn.sc;
layers = (
{
layerId = "9372F035-DA38-4B54-966C-CEBA9B53DD02";
paths = (
{
closed = 1;
nodes = (
"151 0 LINE",
"273 -3 LINE",
"273 20 LINE",
"257 22 LINE SMOOTH",
"199 29 OFFCURVE",
"185 31 OFFCURVE",
"185 121 CURVE SMOOTH",
"185 334 LINE SMOOTH",
"185 424 OFFCURVE",
"199 426 OFFCURVE",
"257 433 CURVE SMOOTH",
"273 435 LINE",
"273 458 LINE",
"151 455 LINE",
"29 458 LINE",
"29 435 LINE",
"45 433 LINE SMOOTH",
"103 426 OFFCURVE",
"117 424 OFFCURVE",
"117 334 CURVE SMOOTH",
"117 121 LINE SMOOTH",
"117 31 OFFCURVE",
"103 29 OFFCURVE",
"45 22 CURVE SMOOTH",
"29 20 LINE",
"29 -3 LINE"
);
},
{
closed = 1;
nodes = (
"273 108 LINE SMOOTH",
"385 108 OFFCURVE",
"465 161 OFFCURVE",
"465 238 CURVE SMOOTH",
"465 337 OFFCURVE",
"383 365 OFFCURVE",
"295 365 CURVE SMOOTH",
"153 365 LINE",
"175 341 LINE",
"295 341 LINE SMOOTH",
"355 341 OFFCURVE",
"387 307 OFFCURVE",
"387 238 CURVE SMOOTH",
"387 171 OFFCURVE",
"357 132 OFFCURVE",
"273 132 CURVE SMOOTH",
"179 132 LINE",
"179 108 LINE"
);
}
);
width = 497;
}
);
leftKerningGroup = H;
leftMetricsKey = h.sc;
rightKerningGroup = D;
rightMetricsKey = p.sc;
},
{
color = 3;
glyphname = q.sc;
layers = (
{
anchors = (
{
name = bottom;
position = "{269, 0}";
},
{
name = top;
position = "{279, 455}";
}
);
components = (
{
name = o.sc;
}
);
layerId = "9372F035-DA38-4B54-966C-CEBA9B53DD02";
paths = (
{
closed = 1;
nodes = (
"471 -176 OFFCURVE",
"497 -132 OFFCURVE",
"503 -75 CURVE",
"482 -71 LINE",
"477 -104 OFFCURVE",
"460 -114 OFFCURVE",
"434 -114 CURVE SMOOTH",
"397 -114 OFFCURVE",
"367 -102 OFFCURVE",
"338 -84 CURVE SMOOTH",
"304 -63 OFFCURVE",
"281 -40 OFFCURVE",
"240 -40 CURVE SMOOTH",
"218 -40 OFFCURVE",
"220 -41 OFFCURVE",
"205 -43 CURVE",
"299 5 LINE",
"268 4 LINE",
"157 -48 LINE",
"103 -48 OFFCURVE",
"63 -64 OFFCURVE",
"63 -95 CURVE SMOOTH",
"63 -108 OFFCURVE",
"70 -115 OFFCURVE",
"85 -115 CURVE SMOOTH",
"109 -115 OFFCURVE",
"131 -101 OFFCURVE",
"140 -80 CURVE SMOOTH",
"146 -66 OFFCURVE",
"164 -60 OFFCURVE",
"187 -60 CURVE SMOOTH",
"229 -60 OFFCURVE",
"265 -98 OFFCURVE",
"294 -126 CURVE SMOOTH",
"317 -148 OFFCURVE",
"350 -176 OFFCURVE",
"406 -176 CURVE SMOOTH"
);
}
);
width = 586;
}
);
leftKerningGroup = o.sc;
leftMetricsKey = o.sc;
rightKerningGroup = o.sc;
},
{
color = 6;
glyphname = r.sc;
layers = (
{
anchors = (
{
name = bottom;
position = "{279, 0}";
},
{
name = top;
position = "{239, 455}";
}
);
layerId = "9372F035-DA38-4B54-966C-CEBA9B53DD02";
paths = (
{
closed = 1;
nodes = (
"495 -11 OFFCURVE",
"521 -1 OFFCURVE",
"538 6 CURVE",
"533 29 LINE",
"526 26 OFFCURVE",
"516 23 OFFCURVE",
"507 23 CURVE SMOOTH",
"476 23 OFFCURVE",
"455 28 OFFCURVE",
"445 91 CURVE SMOOTH",
"429 190 OFFCURVE",
"376 217 OFFCURVE",
"292 219 CURVE",
"296 216 LINE",
"361 221 OFFCURVE",
"457 245 OFFCURVE",
"457 337 CURVE SMOOTH",
"457 429 OFFCURVE",
"379 455 OFFCURVE",
"290 455 CURVE SMOOTH",
"152 455 LINE",
"29 457 LINE",
"29 434 LINE",
"51 432 LINE SMOOTH",
"103 427 OFFCURVE",
"117 414 OFFCURVE",
"117 334 CURVE SMOOTH",
"117 120 LINE SMOOTH",
"117 31 OFFCURVE",
"103 29 OFFCURVE",
"45 22 CURVE SMOOTH",
"29 20 LINE",
"29 -3 LINE",
"151 0 LINE",
"273 -3 LINE",
"273 20 LINE",
"257 22 LINE SMOOTH",
"199 29 OFFCURVE",
"185 31 OFFCURVE",
"185 120 CURVE SMOOTH",
"185 431 LINE",
"280 431 LINE SMOOTH",
"358 431 OFFCURVE",
"378 391 OFFCURVE",
"378 337 CURVE SMOOTH",
"378 269 OFFCURVE",
"346 239 OFFCURVE",
"265 239 CURVE SMOOTH",
"179 239 LINE",
"179 215 LINE",
"243 215 LINE SMOOTH",
"340 215 OFFCURVE",
"358 150 OFFCURVE",
"369 94 CURVE SMOOTH",
"386 9 OFFCURVE",
"416 -11 OFFCURVE",
"463 -11 CURVE SMOOTH"
);
}
);
width = 525;
}
);
leftKerningGroup = H;
leftMetricsKey = i.sc;
rightKerningGroup = R;
},
{
color = 6;
glyphname = s.sc;
layers = (
{
anchors = (
{
name = bottom;
position = "{187, 0}";
},
{
name = top;
position = "{207, 455}";
}
);
layerId = "9372F035-DA38-4B54-966C-CEBA9B53DD02";
paths = (
{
closed = 1;
nodes = (
"296 -11 OFFCURVE",
"352 51 OFFCURVE",
"352 120 CURVE SMOOTH",
"352 174 OFFCURVE",
"325 223 OFFCURVE",
"248 257 CURVE SMOOTH",
"201 278 LINE SMOOTH",
"168 293 OFFCURVE",
"120 315 OFFCURVE",
"120 369 CURVE SMOOTH",
"120 404 OFFCURVE",
"147 441 OFFCURVE",
"200 441 CURVE SMOOTH",
"257 441 OFFCURVE",
"301 397 OFFCURVE",
"313 327 CURVE",
"334 327 LINE",
"333 404 LINE",
"335 466 LINE",
"313 466 LINE",
"312 447 OFFCURVE",
"308 442 OFFCURVE",
"300 442 CURVE SMOOTH",
"293 442 OFFCURVE",
"281 446 OFFCURVE",
"262 454 CURVE SMOOTH",
"244 461 OFFCURVE",
"222 469 OFFCURVE",
"194 469 CURVE SMOOTH",
"115 469 OFFCURVE",
"56 422 OFFCURVE",
"56 347 CURVE SMOOTH",
"56 288 OFFCURVE",
"92 247 OFFCURVE",
"151 222 CURVE SMOOTH",
"205 199 LINE SMOOTH",
"252 179 OFFCURVE",
"288 154 OFFCURVE",
"288 98 CURVE SMOOTH",
"288 49 OFFCURVE",
"248 17 OFFCURVE",
"199 17 CURVE SMOOTH",
"121 17 OFFCURVE",
"68 82 OFFCURVE",
"60 168 CURVE",
"37 168 LINE",
"41 70 LINE",
"38 -1 LINE",
"59 -1 LINE",
"60 15 OFFCURVE",
"64 27 OFFCURVE",
"79 27 CURVE SMOOTH",
"89 27 OFFCURVE",
"99 22 OFFCURVE",
"119 11 CURVE SMOOTH",
"139 0 OFFCURVE",
"168 -11 OFFCURVE",
"204 -11 CURVE SMOOTH"
);
}
);
width = 389;
}
);
leftKerningGroup = S;
rightKerningGroup = S;
},
{
color = 6;
glyphname = t.sc;
layers = (
{
anchors = (
{
name = bottom;
position = "{260, 0}";
},
{
name = center;
position = "{260, 228}";
},
{
name = top;
position = "{250, 455}";
}
);
layerId = "9372F035-DA38-4B54-966C-CEBA9B53DD02";
paths = (
{
closed = 1;
nodes = (
"257 0 LINE",
"386 -3 LINE",
"386 20 LINE",
"369 22 LINE SMOOTH",
"308 29 OFFCURVE",
"291 31 OFFCURVE",
"291 121 CURVE SMOOTH",
"291 447 LINE",
"219 447 LINE",
"219 121 LINE SMOOTH",
"219 31 OFFCURVE",
"205 29 OFFCURVE",
"144 22 CURVE SMOOTH",
"127 20 LINE",
"127 -3 LINE"
);
},
{
closed = 1;
nodes = (
"516 301 LINE",
"497 391 LINE",
"489 457 LINE",
"255 455 LINE",
"29 457 LINE",
"21 391 LINE",
"3 301 LINE",
"24 297 LINE",
"61 393 OFFCURVE",
"77 431 OFFCURVE",
"138 431 CURVE SMOOTH",
"380 431 LINE SMOOTH",
"448 431 OFFCURVE",
"467 392 OFFCURVE",
"494 296 CURVE"
);
}
);
width = 519;
}
);
leftKerningGroup = T;
leftMetricsKey = T;
rightKerningGroup = T;
rightMetricsKey = T;
},
{
color = 6;
glyphname = u.sc;
layers = (
{
anchors = (
{
name = bottom;
position = "{277, 0}";
},
{
name = ogonek;
position = "{400, 0}";
},
{
name = top;
position = "{307, 455}";
},
{
name = topright;
position = "{531, 455}";
}
);
layerId = "9372F035-DA38-4B54-966C-CEBA9B53DD02";
paths = (
{
closed = 1;
nodes = (
"407 -10 OFFCURVE",
"473 49 OFFCURVE",
"473 168 CURVE SMOOTH",
"473 333 LINE SMOOTH",
"473 423 OFFCURVE",
"487 425 OFFCURVE",
"545 432 CURVE SMOOTH",
"561 434 LINE",
"561 457 LINE",
"460 455 LINE",
"359 457 LINE",
"359 434 LINE",
"375 432 LINE SMOOTH",
"433 425 OFFCURVE",
"447 423 OFFCURVE",
"447 333 CURVE SMOOTH",
"447 168 LINE SMOOTH",
"447 64 OFFCURVE",
"394 20 OFFCURVE",
"317 20 CURVE SMOOTH",
"231 20 OFFCURVE",
"180 73 OFFCURVE",
"180 165 CURVE SMOOTH",
"180 334 LINE SMOOTH",
"180 424 OFFCURVE",
"194 426 OFFCURVE",
"252 433 CURVE SMOOTH",
"268 435 LINE",
"268 458 LINE",
"145 455 LINE",
"22 458 LINE",
"22 435 LINE",
"38 433 LINE SMOOTH",
"96 426 OFFCURVE",
"110 424 OFFCURVE",
"110 334 CURVE SMOOTH",
"110 165 LINE SMOOTH",
"110 40 OFFCURVE",
"196 -10 OFFCURVE",
"306 -10 CURVE SMOOTH"
);
}
);
width = 558;
}
);
leftKerningGroup = U;
rightKerningGroup = U;
},
{
color = 6;
glyphname = v.sc;
layers = (
{
anchors = (
{
name = bottom;
position = "{262, 0}";
},
{
name = top;
position = "{282, 455}";
}
);
layerId = "9372F035-DA38-4B54-966C-CEBA9B53DD02";
paths = (
{
closed = 1;
nodes = (
"271 -4 LINE",
"434 360 LINE SMOOTH",
"454 405 OFFCURVE",
"469 429 OFFCURVE",
"502 433 CURVE SMOOTH",
"517 435 LINE",
"517 458 LINE",
"440 455 LINE",
"348 458 LINE",
"348 435 LINE",
"369 433 LINE SMOOTH",
"394 431 OFFCURVE",
"417 421 OFFCURVE",
"417 395 CURVE SMOOTH",
"417 385 OFFCURVE",
"413 373 OFFCURVE",
"406 358 CURVE SMOOTH",
"284 91 LINE",
"163 365 LINE",
"159 375 OFFCURVE",
"157 384 OFFCURVE",
"157 392 CURVE SMOOTH",
"157 416 OFFCURVE",
"174 431 OFFCURVE",
"202 433 CURVE SMOOTH",
"229 435 LINE",
"229 458 LINE",
"119 455 LINE",
"7 458 LINE",
"7 435 LINE",
"25 432 LINE SMOOTH",
"55 427 OFFCURVE",
"71 405 OFFCURVE",
"86 371 CURVE SMOOTH",
"255 -4 LINE"
);
}
);
width = 514;
}
);
leftKerningGroup = V;
rightKerningGroup = V;
},
{
color = 6;
glyphname = w.sc;
layers = (
{
anchors = (
{
name = bottom;
position = "{351, 0}";
},
{
name = top;
position = "{371, 455}";
}
);
layerId = "9372F035-DA38-4B54-966C-CEBA9B53DD02";
paths = (
{
closed = 1;
nodes = (
"215 -4 LINE",
"366 368 LINE",
"344 369 LINE",
"475 -4 LINE",
"499 -4 LINE",
"638 397 LINE SMOOTH",
"645 418 OFFCURVE",
"666 426 OFFCURVE",
"695 431 CURVE SMOOTH",
"711 434 LINE",
"711 456 LINE",
"635 452 LINE",
"548 456 LINE",
"548 433 LINE",
"570 430 LINE SMOOTH",
"597 426 OFFCURVE",
"614 422 OFFCURVE",
"614 406 CURVE SMOOTH",
"614 402 OFFCURVE",
"613 398 OFFCURVE",
"611 393 CURVE",
"500 73 LINE",
"520 73 LINE",
"423 360 LINE SMOOTH",
"419 373 OFFCURVE",
"417 384 OFFCURVE",
"417 393 CURVE SMOOTH",
"417 418 OFFCURVE",
"430 430 OFFCURVE",
"453 432 CURVE SMOOTH",
"475 434 LINE",
"473 457 LINE",
"414 453 LINE SMOOTH",
"391 451 OFFCURVE",
"372 441 OFFCURVE",
"360 426 CURVE",
"351 441 OFFCURVE",
"334 451 OFFCURVE",
"305 454 CURVE SMOOTH",
"275 457 LINE",
"272 434 LINE",
"298 431 LINE SMOOTH",
"325 428 OFFCURVE",
"343 415 OFFCURVE",
"343 391 CURVE SMOOTH",
"343 383 OFFCURVE",
"340 373 OFFCURVE",
"336 363 CURVE SMOOTH",
"216 63 LINE",
"238 62 LINE",
"132 384 LINE SMOOTH",
"130 390 OFFCURVE",
"129 394 OFFCURVE",
"129 399 CURVE SMOOTH",
"129 421 OFFCURVE",
"151 430 OFFCURVE",
"180 433 CURVE SMOOTH",
"197 435 LINE",
"195 457 LINE",
"86 453 LINE",
"-15 457 LINE",
"-15 435 LINE",
"-1 433 LINE SMOOTH",
"28 429 OFFCURVE",
"45 421 OFFCURVE",
"54 393 CURVE SMOOTH",
"188 -4 LINE"
);
}
);
width = 708;
}
);
leftKerningGroup = V;
leftMetricsKey = W;
rightKerningGroup = V;
},
{
color = 6;
glyphname = x.sc;
layers = (
{
anchors = (
{
name = bottom;
position = "{246, 0}";
},
{
name = top;
position = "{276, 455}";
}
);
layerId = "9372F035-DA38-4B54-966C-CEBA9B53DD02";
paths = (
{
closed = 1;
nodes = (
"502 20 LINE",
"482 22 LINE SMOOTH",
"454 25 OFFCURVE",
"426 50 OFFCURVE",
"393 95 CURVE SMOOTH",
"198 367 LINE SMOOTH",
"184 386 OFFCURVE",
"179 400 OFFCURVE",
"179 409 CURVE SMOOTH",
"179 426 OFFCURVE",
"195 431 OFFCURVE",
"210 433 CURVE SMOOTH",
"236 436 LINE",
"236 457 LINE",
"124 455 LINE",
"19 457 LINE",
"19 435 LINE",
"60 433 OFFCURVE",
"71 425 OFFCURVE",
"111 370 CURVE SMOOTH",
"316 87 LINE SMOOTH",
"328 71 OFFCURVE",
"334 58 OFFCURVE",
"334 48 CURVE SMOOTH",
"334 34 OFFCURVE",
"322 25 OFFCURVE",
"301 22 CURVE SMOOTH",
"277 19 LINE",
"277 -2 LINE",
"387 1 LINE",
"502 -3 LINE"
);
},
{
closed = 1;
nodes = (
"67 0 LINE",
"162 -4 LINE",
"162 18 LINE",
"123 22 LINE SMOOTH",
"106 24 OFFCURVE",
"99 31 OFFCURVE",
"99 40 CURVE SMOOTH",
"99 47 OFFCURVE",
"104 56 OFFCURVE",
"110 63 CURVE SMOOTH",
"236 208 LINE",
"220 230 LINE",
"89 78 LINE SMOOTH",
"57 40 OFFCURVE",
"32 24 OFFCURVE",
"7 21 CURVE SMOOTH",
"-10 19 LINE",
"-10 -4 LINE"
);
},
{
closed = 1;
nodes = (
"405 392 LINE SMOOTH",
"425 415 OFFCURVE",
"436 427 OFFCURVE",
"462 432 CURVE SMOOTH",
"478 435 LINE",
"478 457 LINE",
"411 455 LINE",
"334 457 LINE",
"334 435 LINE",
"349 432 LINE SMOOTH",
"369 428 OFFCURVE",
"379 421 OFFCURVE",
"379 410 CURVE SMOOTH",
"379 404 OFFCURVE",
"376 398 OFFCURVE",
"369 390 CURVE SMOOTH",
"263 266 LINE",
"278 245 LINE"
);
}
);
width = 492;
}
);
leftKerningGroup = X;
leftMetricsKey = X;
rightKerningGroup = X;
rightMetricsKey = X;
},
{
color = 6;
glyphname = y.sc;
layers = (
{
anchors = (
{
name = bottom;
position = "{249, 0}";
},
{
name = top;
position = "{259, 455}";
},
{
name = topleft;
position = "{27, 455}";
}
);
guideLines = (
{
position = "{2686, 457}";
},
{
position = "{2511, 435}";
}
);
layerId = "9372F035-DA38-4B54-966C-CEBA9B53DD02";
paths = (
{
closed = 1;
nodes = (
"286 192 LINE",
"173 382 LINE SMOOTH",
"169 389 OFFCURVE",
"167 396 OFFCURVE",
"167 402 CURVE SMOOTH",
"167 422 OFFCURVE",
"191 432 OFFCURVE",
"208 433 CURVE SMOOTH",
"235 435 LINE",
"235 458 LINE",
"131 455 LINE",
"17 458 LINE",
"17 435 LINE",
"37 431 LINE SMOOTH",
"71 424 OFFCURVE",
"77 415 OFFCURVE",
"102 373 CURVE SMOOTH",
"230 161 LINE"
);
},
{
closed = 1;
nodes = (
"257 1 LINE",
"387 -2 LINE",
"387 21 LINE",
"370 23 LINE SMOOTH",
"305 30 OFFCURVE",
"292 39 OFFCURVE",
"292 122 CURVE SMOOTH",
"292 198 LINE",
"222 191 LINE",
"222 122 LINE SMOOTH",
"222 32 OFFCURVE",
"208 30 OFFCURVE",
"150 23 CURVE SMOOTH",
"134 21 LINE",
"134 -2 LINE"
);
},
{
closed = 1;
nodes = (
"389 379 LINE SMOOTH",
"405 410 OFFCURVE",
"424 430 OFFCURVE",
"459 433 CURVE SMOOTH",
"481 435 LINE",
"481 457 LINE",
"399 454 LINE",
"307 457 LINE",
"307 435 LINE",
"330 433 LINE SMOOTH",
"353 431 OFFCURVE",
"370 423 OFFCURVE",
"370 406 CURVE SMOOTH",
"370 401 OFFCURVE",
"369 395 OFFCURVE",
"365 388 CURVE",
"271 206 LINE",
"289 185 LINE"
);
}
);
width = 498;
}
);
leftKerningGroup = Y;
rightKerningGroup = Y;
},
{
color = 6;
glyphname = z.sc;
layers = (
{
anchors = (
{
name = bottom;
position = "{247, 0}";
},
{
name = top;
position = "{247, 455}";
}
);
layerId = "9372F035-DA38-4B54-966C-CEBA9B53DD02";
paths = (
{
closed = 1;
nodes = (
"302 0 LINE",
"441 -2 LINE",
"441 69 LINE",
"447 178 LINE",
"425 178 LINE",
"412 78 OFFCURVE",
"394 29 OFFCURVE",
"290 27 CURVE SMOOTH",
"138 24 LINE",
"436 427 LINE",
"436 457 LINE",
"262 455 LINE",
"57 457 LINE",
"56 415 LINE",
"49 329 LINE",
"72 329 LINE",
"80 394 OFFCURVE",
"87 427 OFFCURVE",
"220 428 CURVE SMOOTH",
"349 428 LINE",
"47 17 LINE",
"47 -2 LINE"
);
}
);
width = 494;
}
);
leftKerningGroup = H;
rightKerningGroup = H;
},
{
color = 6;
glyphname = a.sups;
layers = (
{
anchors = (
{
name = bottom;
position = "{136, 297}";
}
);
layerId = "9372F035-DA38-4B54-966C-CEBA9B53DD02";
paths = (
{
closed = 1;
nodes = (
"187 288 OFFCURVE",
"243 319 OFFCURVE",
"266 361 CURVE",
"267 317 OFFCURVE",
"283 288 OFFCURVE",
"338 288 CURVE SMOOTH",
"380 288 OFFCURVE",
"401 307 OFFCURVE",
"413 332 CURVE",
"395 342 LINE",
"387 329 OFFCURVE",
"378 316 OFFCURVE",
"363 316 CURVE SMOOTH",
"330 316 OFFCURVE",
"331 362 OFFCURVE",
"331 389 CURVE SMOOTH",
"331 508 LINE SMOOTH",
"331 521 OFFCURVE",
"332 533 OFFCURVE",
"332 543 CURVE SMOOTH",
"332 611 OFFCURVE",
"310 651 OFFCURVE",
"195 651 CURVE SMOOTH",
"134 651 OFFCURVE",
"53 627 OFFCURVE",
"53 567 CURVE SMOOTH",
"53 549 OFFCURVE",
"70 535 OFFCURVE",
"90 535 CURVE SMOOTH",
"111 535 OFFCURVE",
"126 554 OFFCURVE",
"126 573 CURVE SMOOTH",
"126 594 OFFCURVE",
"116 597 OFFCURVE",
"120 608 CURVE",
"123 619 OFFCURVE",
"155 628 OFFCURVE",
"197 628 CURVE SMOOTH",
"262 628 OFFCURVE",
"266 582 OFFCURVE",
"266 536 CURVE SMOOTH",
"266 522 LINE",
"193 496 OFFCURVE",
"35 437 OFFCURVE",
"35 362 CURVE SMOOTH",
"35 311 OFFCURVE",
"77 288 OFFCURVE",
"136 288 CURVE SMOOTH"
);
},
{
closed = 1;
nodes = (
"131 320 OFFCURVE",
"108 337 OFFCURVE",
"108 365 CURVE SMOOTH",
"108 427 OFFCURVE",
"196 473 OFFCURVE",
"266 501 CURVE",
"266 395 LINE",
"250 357 OFFCURVE",
"200 320 OFFCURVE",
"161 320 CURVE SMOOTH"
);
}
);
width = 398;
}
);
leftKerningGroup = sups;
leftMetricsKey = "=a-15";
rightKerningGroup = sups;
rightMetricsKey = "=a-15";
},
{
color = 6;
glyphname = d.sups;
layers = (
{
anchors = (
{
name = bottom;
position = "{234.89, 297}";
},
{
name = center;
position = "{344.45, 739.26}";
},
{
name = top;
position = "{234.89, 634.74}";
},
{
name = topright;
position = "{452.35, 634.74}";
}
);
layerId = "9372F035-DA38-4B54-966C-CEBA9B53DD02";
paths = (
{
closed = 1;
nodes = (
"362 296 OFFCURVE",
"393 299 OFFCURVE",
"425 299 CURVE SMOOTH",
"452 299 LINE",
"452 322 LINE",
"401 322 OFFCURVE",
"383 332 OFFCURVE",
"383 382 CURVE SMOOTH",
"383 862 LINE",
"331 855 OFFCURVE",
"291 853 OFFCURVE",
"244 853 CURVE",
"244 830 LINE",
"298 830 OFFCURVE",
"318 820 OFFCURVE",
"318 767 CURVE SMOOTH",
"318 350 LINE",
"325 352 LINE",
"336 293 LINE"
);
},
{
closed = 1;
nodes = (
"267 288 OFFCURVE",
"311 317 OFFCURVE",
"337 351 CURVE",
"329 372 LINE",
"296 332 OFFCURVE",
"258 311 OFFCURVE",
"217 311 CURVE SMOOTH",
"150 311 OFFCURVE",
"107 374 OFFCURVE",
"107 469 CURVE SMOOTH",
"107 565 OFFCURVE",
"150 629 OFFCURVE",
"223 629 CURVE SMOOTH",
"268 629 OFFCURVE",
"296 608 OFFCURVE",
"322 578 CURVE",
"329 599 LINE",
"303 631 OFFCURVE",
"264 651 OFFCURVE",
"217 651 CURVE SMOOTH",
"110 651 OFFCURVE",
"34 572 OFFCURVE",
"34 469 CURVE SMOOTH",
"34 366 OFFCURVE",
"110 288 OFFCURVE",
"212 288 CURVE SMOOTH"
);
}
);
width = 452;
}
);
leftKerningGroup = sups;
rightKerningGroup = sups;
},
{
color = 6;
glyphname = e.sups;
layers = (
{
layerId = "9372F035-DA38-4B54-966C-CEBA9B53DD02";
paths = (
{
closed = 1;
nodes = (
"292 288 OFFCURVE",
"341 322 OFFCURVE",
"364 388 CURVE",
"340 396 LINE",
"318 339 OFFCURVE",
"277 313 OFFCURVE",
"229 313 CURVE SMOOTH",
"145 313 OFFCURVE",
"103 383 OFFCURVE",
"103 466 CURVE SMOOTH",
"103 556 OFFCURVE",
"139 628 OFFCURVE",
"218 628 CURVE SMOOTH",
"257 628 OFFCURVE",
"295 601 OFFCURVE",
"295 558 CURVE SMOOTH",
"295 523 OFFCURVE",
"264 506 OFFCURVE",
"208 506 CURVE SMOOTH",
"101 506 LINE",
"100 484 LINE",
"352 484 LINE",
"356 493 OFFCURVE",
"357 501 OFFCURVE",
"357 512 CURVE SMOOTH",
"357 597 OFFCURVE",
"302 651 OFFCURVE",
"218 651 CURVE SMOOTH",
"113 651 OFFCURVE",
"30 569 OFFCURVE",
"30 462 CURVE SMOOTH",
"30 359 OFFCURVE",
"105 288 OFFCURVE",
"218 288 CURVE SMOOTH"
);
}
);
width = 384;
}
);
leftKerningGroup = sups;
leftMetricsKey = "=e-15";
rightKerningGroup = sups;
rightMetricsKey = "=e-15";
},
{
color = 6;
glyphname = h.sups;
layers = (
{
layerId = "9372F035-DA38-4B54-966C-CEBA9B53DD02";
paths = (
{
closed = 1;
nodes = (
"372.677 297 LINE",
"481 295 LINE",
"481 313 LINE",
"468 314 LINE SMOOTH",
"420 320 OFFCURVE",
"408 321 OFFCURVE",
"408 391 CURVE SMOOTH",
"408 550 LINE SMOOTH",
"408 616 OFFCURVE",
"362 650 OFFCURVE",
"286.394 649.934 CURVE SMOOTH",
"232.98 649.934 OFFCURVE",
"192.715 628.945 OFFCURVE",
"163.954 598.627 CURVE SMOOTH",
"148.34 582.302 OFFCURVE",
"136.836 562.867 OFFCURVE",
"126.975 541.877 CURVE",
"146.697 541.877 LINE",
"166.419 583.856 OFFCURVE",
"207.506 626.613 OFFCURVE",
"267.494 626.613 CURVE SMOOTH",
"314.333 626.613 OFFCURVE",
"343.916 598.627 OFFCURVE",
"343.916 546.542 CURVE SMOOTH",
"343.916 391.064 LINE SMOOTH",
"343.916 321.099 OFFCURVE",
"332.412 319.544 OFFCURVE",
"284.75 314.103 CURVE SMOOTH",
"271.603 312.548 LINE",
"271.603 294.668 LINE"
);
},
{
closed = 1;
nodes = (
"121 297 LINE",
"226 295 LINE",
"226 318 LINE",
"209 319 LINE SMOOTH",
"162 322 OFFCURVE",
"153 326 OFFCURVE",
"153 391 CURVE SMOOTH",
"153 862 LINE",
"16 851 LINE",
"16 828 LINE",
"59 828 OFFCURVE",
"88 824 OFFCURVE",
"88 781 CURVE SMOOTH",
"88 391 LINE SMOOTH",
"88 326 OFFCURVE",
"77 322 OFFCURVE",
"32 319 CURVE SMOOTH",
"15 318 LINE",
"15 295 LINE"
);
}
);
width = 492;
}
);
leftKerningGroup = sups;
leftMetricsKey = h;
rightKerningGroup = sups;
rightMetricsKey = h;
},
{
color = 6;
glyphname = m.sups;
layers = (
{
anchors = (
{
name = top;
position = "{397, 637}";
}
);
layerId = "9372F035-DA38-4B54-966C-CEBA9B53DD02";
paths = (
{
closed = 1;
nodes = (
"118 297 LINE",
"215 295 LINE",
"215 318 LINE",
"199 319 LINE SMOOTH",
"159 322 OFFCURVE",
"151 326 OFFCURVE",
"151 391 CURVE SMOOTH",
"151 646 LINE",
"104 639 OFFCURVE",
"65 637 OFFCURVE",
"14 637 CURVE",
"14 614 LINE",
"64 614 OFFCURVE",
"86 605 OFFCURVE",
"86 568 CURVE SMOOTH",
"86 391 LINE SMOOTH",
"86 326 OFFCURVE",
"77 322 OFFCURVE",
"30 319 CURVE SMOOTH",
"13 318 LINE",
"13 295 LINE"
);
},
{
closed = 1;
nodes = (
"363 297 LINE",
"461 295 LINE",
"461 318 LINE",
"448 319 LINE SMOOTH",
"408 323 OFFCURVE",
"398 326 OFFCURVE",
"398 391 CURVE SMOOTH",
"398 550 LINE SMOOTH",
"398 612 OFFCURVE",
"352 650 OFFCURVE",
"276 650 CURVE SMOOTH",
"208 650 OFFCURVE",
"160 612 OFFCURVE",
"131 542 CURVE",
"151 542 LINE",
"167 584 OFFCURVE",
"202 627 OFFCURVE",
"262 627 CURVE SMOOTH",
"304 627 OFFCURVE",
"334 599 OFFCURVE",
"334 547 CURVE SMOOTH",
"334 391 LINE SMOOTH",
"334 326 OFFCURVE",
"324 323 OFFCURVE",
"285 319 CURVE SMOOTH",
"272 318 LINE",
"272 295 LINE"
);
},
{
closed = 1;
nodes = (
"610 297 LINE",
"712 295 LINE",
"712 318 LINE",
"699 319 LINE SMOOTH",
"656 322 OFFCURVE",
"645 326 OFFCURVE",
"645 391 CURVE SMOOTH",
"645 550 LINE SMOOTH",
"645 612 OFFCURVE",
"599 650 OFFCURVE",
"523 650 CURVE SMOOTH",
"455 650 OFFCURVE",
"407 612 OFFCURVE",
"378 542 CURVE",
"398 542 LINE",
"414 584 OFFCURVE",
"449 627 OFFCURVE",
"509 627 CURVE SMOOTH",
"551 627 OFFCURVE",
"581 599 OFFCURVE",
"581 547 CURVE SMOOTH",
"581 391 LINE SMOOTH",
"581 326 OFFCURVE",
"571 322 OFFCURVE",
"532 319 CURVE SMOOTH",
"519 318 LINE",
"519 295 LINE"
);
}
);
width = 708;
}
);
leftKerningGroup = sups;
leftMetricsKey = "=m-15";
rightKerningGroup = sups;
rightMetricsKey = "=m-15";
},
{
color = 6;
glyphname = n.sups;
layers = (
{
anchors = (
{
name = bottom;
position = "{244, 297}";
},
{
name = top;
position = "{244, 637}";
}
);
layerId = "9372F035-DA38-4B54-966C-CEBA9B53DD02";
paths = (
{
closed = 1;
nodes = (
"118 297 LINE",
"225 295 LINE",
"225 318 LINE",
"207 319 LINE SMOOTH",
"160 322 OFFCURVE",
"151 326 OFFCURVE",
"151 394 CURVE SMOOTH",
"151 646 LINE",
"146 646 LINE",
"102 639 OFFCURVE",
"67 637 OFFCURVE",
"14 637 CURVE",
"14 614 LINE",
"64 614 OFFCURVE",
"86 605 OFFCURVE",
"86 568 CURVE SMOOTH",
"86 394 LINE SMOOTH",
"86 326 OFFCURVE",
"77 322 OFFCURVE",
"30 319 CURVE SMOOTH",
"13 318 LINE",
"13 295 LINE"
);
},
{
closed = 1;
nodes = (
"374 297 LINE",
"482 295 LINE",
"482 313 LINE",
"469 314 LINE SMOOTH",
"421 320 OFFCURVE",
"409 321 OFFCURVE",
"409 391 CURVE SMOOTH",
"409 550 LINE SMOOTH",
"409 616 OFFCURVE",
"363 650 OFFCURVE",
"287 650 CURVE SMOOTH",
"234 650 OFFCURVE",
"194 629 OFFCURVE",
"165 599 CURVE SMOOTH",
"149 582 OFFCURVE",
"138 563 OFFCURVE",
"128 542 CURVE",
"148 542 LINE",
"167 584 OFFCURVE",
"209 627 OFFCURVE",
"268 627 CURVE SMOOTH",
"315 627 OFFCURVE",
"345 599 OFFCURVE",
"345 547 CURVE SMOOTH",
"345 391 LINE SMOOTH",
"345 321 OFFCURVE",
"333 320 OFFCURVE",
"286 314 CURVE SMOOTH",
"273 313 LINE",
"273 295 LINE"
);
}
);
width = 478;
}
);
leftKerningGroup = sups;
leftMetricsKey = "=n-15";
rightKerningGroup = sups;
rightMetricsKey = "=n-15";
},
{
color = 6;
glyphname = o.sups;
layers = (
{
anchors = (
{
name = bottom;
position = "{221, 296}";
},
{
name = center;
position = "{221, 466}";
},
{
name = ogonek;
position = "{403, 304}";
}
);
layerId = "9372F035-DA38-4B54-966C-CEBA9B53DD02";
paths = (
{
closed = 1;
nodes = (
"328 288 OFFCURVE",
"412 369 OFFCURVE",
"412 469 CURVE SMOOTH",
"412 571 OFFCURVE",
"328 651 OFFCURVE",
"221 651 CURVE SMOOTH",
"114 651 OFFCURVE",
"30 571 OFFCURVE",
"30 469 CURVE SMOOTH",
"30 369 OFFCURVE",
"114 288 OFFCURVE",
"221 288 CURVE SMOOTH"
);
},
{
closed = 1;
nodes = (
"136 312 OFFCURVE",
"103 380 OFFCURVE",
"103 469 CURVE SMOOTH",
"103 559 OFFCURVE",
"136 628 OFFCURVE",
"221 628 CURVE SMOOTH",
"307 628 OFFCURVE",
"340 559 OFFCURVE",
"340 469 CURVE SMOOTH",
"340 380 OFFCURVE",
"307 312 OFFCURVE",
"221 312 CURVE SMOOTH"
);
}
);
width = 442;
}
);
leftKerningGroup = sups;
leftMetricsKey = "=o-15";
rightKerningGroup = sups;
rightMetricsKey = "=o-15";
},
{
color = 6;
glyphname = r.sups;
layers = (
{
anchors = (
{
name = bottom;
position = "{167, 297}";
},
{
name = top;
position = "{167, 637}";
}
);
layerId = "9372F035-DA38-4B54-966C-CEBA9B53DD02";
paths = (
{
closed = 1;
nodes = (
"119 297 LINE",
"224 295 LINE",
"224 318 LINE",
"208 319 LINE",
"160 325 OFFCURVE",
"151 326 OFFCURVE",
"151 391 CURVE SMOOTH",
"151 509 LINE",
"156 543 OFFCURVE",
"167 568 OFFCURVE",
"177 586 CURVE SMOOTH",
"189 609 OFFCURVE",
"206 623 OFFCURVE",
"219 623 CURVE SMOOTH",
"223 623 OFFCURVE",
"227 621 OFFCURVE",
"227 616 CURVE SMOOTH",
"227 609 OFFCURVE",
"224 605 OFFCURVE",
"224 593 CURVE SMOOTH",
"224 580 OFFCURVE",
"238 560 OFFCURVE",
"265 560 CURVE SMOOTH",
"288 560 OFFCURVE",
"305 578 OFFCURVE",
"305 604 CURVE SMOOTH",
"305 633 OFFCURVE",
"281 651 OFFCURVE",
"244 651 CURVE SMOOTH",
"193 651 OFFCURVE",
"163 622 OFFCURVE",
"141 556 CURVE",
"151 646 LINE",
"93 638 OFFCURVE",
"56 635 OFFCURVE",
"13 635 CURVE",
"13 614 LINE",
"68 614 OFFCURVE",
"86 605 OFFCURVE",
"86 553 CURVE SMOOTH",
"86 391 LINE SMOOTH",
"86 326 OFFCURVE",
"77 325 OFFCURVE",
"29 319 CURVE",
"13 318 LINE",
"13 295 LINE"
);
}
);
width = 310;
}
);
leftKerningGroup = sups;
leftMetricsKey = "=r-15";
rightKerningGroup = sups;
rightMetricsKey = "=r-15";
},
{
color = 6;
glyphname = s.sups;
layers = (
{
layerId = "9372F035-DA38-4B54-966C-CEBA9B53DD02";
paths = (
{
closed = 1;
nodes = (
"247 288 OFFCURVE",
"290 338 OFFCURVE",
"290 392 CURVE SMOOTH",
"290 442 OFFCURVE",
"263 473 OFFCURVE",
"198 497 CURVE SMOOTH",
"165 509 LINE SMOOTH",
"123 524 OFFCURVE",
"98 543 OFFCURVE",
"98 576 CURVE SMOOTH",
"98 608 OFFCURVE",
"121 631 OFFCURVE",
"156 631 CURVE SMOOTH",
"200 631 OFFCURVE",
"230 596 OFFCURVE",
"242 543 CURVE",
"265 543 LINE",
"265 598 LINE",
"269 649 LINE",
"246 650 LINE",
"242 641 OFFCURVE",
"238 633 OFFCURVE",
"232 633 CURVE SMOOTH",
"227 633 OFFCURVE",
"220 637 OFFCURVE",
"206 642 CURVE SMOOTH",
"194 646 OFFCURVE",
"178 651 OFFCURVE",
"159 651 CURVE SMOOTH",
"95 651 OFFCURVE",
"45 608 OFFCURVE",
"45 550 CURVE SMOOTH",
"45 504 OFFCURVE",
"72 473 OFFCURVE",
"135 450 CURVE SMOOTH",
"165 440 LINE",
"211 422 OFFCURVE",
"239 402 OFFCURVE",
"239 368 CURVE SMOOTH",
"239 332 OFFCURVE",
"213 309 OFFCURVE",
"170 309 CURVE SMOOTH",
"110 309 OFFCURVE",
"80 350 OFFCURVE",
"68 393 CURVE SMOOTH",
"62 415 LINE",
"39 415 LINE",
"39 355 LINE",
"36 297 LINE",
"59 297 LINE",
"59 305 OFFCURVE",
"60 314 OFFCURVE",
"66 314 CURVE SMOOTH",
"72 314 OFFCURVE",
"80 307 OFFCURVE",
"100 300 CURVE SMOOTH",
"117 294 OFFCURVE",
"140 288 OFFCURVE",
"170 288 CURVE SMOOTH"
);
}
);
width = 316;
}
);
leftKerningGroup = sups;
leftMetricsKey = "=s-15";
rightKerningGroup = sups;
rightMetricsKey = "=s-15";
},
{
color = 6;
glyphname = t.sups;
layers = (
{
layerId = "9372F035-DA38-4B54-966C-CEBA9B53DD02";
paths = (
{
closed = 1;
nodes = (
"202 288 OFFCURVE",
"227 298 OFFCURVE",
"244 316 CURVE SMOOTH",
"255 327 OFFCURVE",
"265 341 OFFCURVE",
"270 354 CURVE",
"247 365 LINE",
"229 329 OFFCURVE",
"213 315 OFFCURVE",
"190 315 CURVE SMOOTH",
"158 315 OFFCURVE",
"142 338 OFFCURVE",
"142 384 CURVE SMOOTH",
"142 614 LINE",
"248 614 LINE",
"248 637 LINE",
"142 637 LINE",
"142 731 LINE",
"119 731 LINE",
"109 677 OFFCURVE",
"84 641 OFFCURVE",
"41 639 CURVE SMOOTH",
"15 637 LINE",
"15 614 LINE",
"77 614 LINE",
"77 387 LINE SMOOTH",
"77 322 OFFCURVE",
"110 288 OFFCURVE",
"172 288 CURVE SMOOTH"
);
}
);
width = 265;
}
);
leftKerningGroup = sups;
leftMetricsKey = "=t-15";
rightKerningGroup = sups;
rightMetricsKey = "=t-15";
},
{
color = 3;
glyphname = ordfeminine;
layers = (
{
components = (
{
name = a.sups;
}
);
layerId = "9372F035-DA38-4B54-966C-CEBA9B53DD02";
paths = (
{
closed = 1;
nodes = (
"388 185 LINE",
"388 209 LINE",
"36 209 LINE",
"36 185 LINE"
);
}
);
width = 398;
}
);
leftKerningGroup = sups;
leftMetricsKey = a.sups;
rightKerningGroup = sups;
rightMetricsKey = a.sups;
unicode = 00AA;
},
{
color = 3;
glyphname = ordmasculine;
layers = (
{
components = (
{
name = o.sups;
}
);
layerId = "9372F035-DA38-4B54-966C-CEBA9B53DD02";
paths = (
{
closed = 1;
nodes = (
"398 185 LINE",
"398 209 LINE",
"45 209 LINE",
"45 185 LINE"
);
}
);
width = 442;
}
);
leftKerningGroup = sups;
leftMetricsKey = o.sups;
rightKerningGroup = sups;
rightMetricsKey = o.sups;
unicode = 00BA;
},
{
color = 6;
glyphname = zero;
layers = (
{
layerId = "9372F035-DA38-4B54-966C-CEBA9B53DD02";
paths = (
{
closed = 1;
nodes = (
"378 -11 OFFCURVE",
"450 109 OFFCURVE",
"450 229 CURVE SMOOTH",
"450 349 OFFCURVE",
"378 469 OFFCURVE",
"245 469 CURVE SMOOTH",
"112 469 OFFCURVE",
"40 349 OFFCURVE",
"40 229 CURVE SMOOTH",
"40 109 OFFCURVE",
"112 -11 OFFCURVE",
"245 -11 CURVE SMOOTH"
);
},
{
closed = 1;
nodes = (
"144 19 OFFCURVE",
"120 110 OFFCURVE",
"120 229 CURVE SMOOTH",
"120 348 OFFCURVE",
"144 439 OFFCURVE",
"245 439 CURVE SMOOTH",
"346 439 OFFCURVE",
"370 348 OFFCURVE",
"370 229 CURVE SMOOTH",
"370 110 OFFCURVE",
"346 19 OFFCURVE",
"245 19 CURVE SMOOTH"
);
}
);
width = 490;
}
);
leftKerningGroup = o;
rightKerningGroup = o;
unicode = 0030;
},
{
color = 6;
glyphname = one;
layers = (
{
layerId = "9372F035-DA38-4B54-966C-CEBA9B53DD02";
paths = (
{
closed = 1;
nodes = (
"153 0 LINE",
"276 -3 LINE",
"276 20 LINE",
"260 22 LINE SMOOTH",
"202 29 OFFCURVE",
"188 31 OFFCURVE",
"188 121 CURVE SMOOTH",
"188 475 LINE",
"172 467 OFFCURVE",
"148 461 OFFCURVE",
"122 456 CURVE",
"94 452 OFFCURVE",
"63 449 OFFCURVE",
"34 450 CURVE",
"34 420 LINE",
"88 421 OFFCURVE",
"118 412 OFFCURVE",
"118 337 CURVE SMOOTH",
"118 121 LINE SMOOTH",
"118 31 OFFCURVE",
"104 29 OFFCURVE",
"46 22 CURVE SMOOTH",
"30 20 LINE",
"30 -3 LINE"
);
}
);
width = 306;
}
);
leftKerningGroup = n;
rightKerningGroup = one;
unicode = 0031;
},
{
color = 6;
glyphname = two;
layers = (
{
layerId = "9372F035-DA38-4B54-966C-CEBA9B53DD02";
paths = (
{
closed = 1;
nodes = (
"343 -88 LINE",
"344 35 LINE",
"349 79 LINE",
"151 64 LINE",
"196 104 LINE SMOOTH",
"262 163 OFFCURVE",
"354 244 OFFCURVE",
"354 334 CURVE SMOOTH",
"354 399 OFFCURVE",
"300 469 OFFCURVE",
"196 469 CURVE SMOOTH",
"109 469 OFFCURVE",
"44 413 OFFCURVE",
"44 335 CURVE SMOOTH",
"44 282 OFFCURVE",
"74 238 OFFCURVE",
"119 218 CURVE",
"129 240 LINE",
"104 249 OFFCURVE",
"74 283 OFFCURVE",
"74 332 CURVE SMOOTH",
"74 386 OFFCURVE",
"108 438 OFFCURVE",
"177 438 CURVE SMOOTH",
"235 438 OFFCURVE",
"274 393 OFFCURVE",
"274 322 CURVE SMOOTH",
"274 222 OFFCURVE",
"201 158 OFFCURVE",
"135 86 CURVE SMOOTH",
"75 20 LINE",
"75 0 LINE",
"219 0 LINE SMOOTH",
"309 0 OFFCURVE",
"311 -14 OFFCURVE",
"318 -72 CURVE SMOOTH",
"320 -88 LINE"
);
}
);
width = 427;
}
);
leftKerningGroup = o;
rightKerningGroup = o;
unicode = 0032;
},
{
color = 6;
glyphname = three;
layers = (
{
layerId = "9372F035-DA38-4B54-966C-CEBA9B53DD02";
paths = (
{
closed = 1;
nodes = (
"306 -294 OFFCURVE",
"378 -189 OFFCURVE",
"378 -68 CURVE SMOOTH",
"378 31 OFFCURVE",
"310 120 OFFCURVE",
"211 120 CURVE SMOOTH",
"202 120 OFFCURVE",
"194 119 OFFCURVE",
"184 118 CURVE",
"244 159 LINE SMOOTH",
"329 217 OFFCURVE",
"353 276 OFFCURVE",
"353 328 CURVE SMOOTH",
"353 410 OFFCURVE",
"293 469 OFFCURVE",
"193 469 CURVE SMOOTH",
"102 469 OFFCURVE",
"33 413 OFFCURVE",
"33 335 CURVE SMOOTH",
"33 281 OFFCURVE",
"61 236 OFFCURVE",
"118 213 CURVE",
"126 236 LINE",
"97 247 OFFCURVE",
"63 275 OFFCURVE",
"63 333 CURVE SMOOTH",
"63 390 OFFCURVE",
"107 438 OFFCURVE",
"169 438 CURVE SMOOTH",
"229 438 OFFCURVE",
"273 399 OFFCURVE",
"273 327 CURVE SMOOTH",
"273 224 OFFCURVE",
"202 158 OFFCURVE",
"154 124 CURVE",
"137 111 OFFCURVE",
"129 107 OFFCURVE",
"111 99 CURVE",
"121 73 LINE",
"137 82 OFFCURVE",
"163 92 OFFCURVE",
"196 92 CURVE SMOOTH",
"253 92 OFFCURVE",
"294 44 OFFCURVE",
"294 -59 CURVE SMOOTH",
"294 -184 OFFCURVE",
"240 -267 OFFCURVE",
"154 -267 CURVE SMOOTH",
"94 -267 OFFCURVE",
"76 -242 OFFCURVE",
"76 -216 CURVE SMOOTH",
"76 -199 OFFCURVE",
"85 -187 OFFCURVE",
"85 -171 CURVE SMOOTH",
"85 -146 OFFCURVE",
"66 -128 OFFCURVE",
"42 -128 CURVE SMOOTH",
"13 -128 OFFCURVE",
"-6 -151 OFFCURVE",
"-6 -183 CURVE SMOOTH",
"-6 -248 OFFCURVE",
"73 -294 OFFCURVE",
"158 -294 CURVE SMOOTH"
);
}
);
width = 446;
}
);
leftKerningGroup = o;
rightKerningGroup = o;
unicode = 0033;
},
{
color = 6;
glyphname = four;
layers = (
{
layerId = "9372F035-DA38-4B54-966C-CEBA9B53DD02";
paths = (
{
closed = 1;
nodes = (
"446 20 LINE",
"430 22 LINE SMOOTH",
"372 29 OFFCURVE",
"358 31 OFFCURVE",
"358 121 CURVE SMOOTH",
"358 212 LINE",
"470 212 LINE",
"470 245 LINE",
"358 245 LINE",
"358 681 LINE",
"336 681 LINE",
"-5 241 LINE",
"-5 212 LINE",
"290 212 LINE",
"289 121 LINE SMOOTH",
"288 31 OFFCURVE",
"274 29 OFFCURVE",
"216 22 CURVE",
"200 21 LINE",
"200 -2 LINE",
"323 0 LINE",
"446 -3 LINE"
);
},
{
closed = 1;
nodes = (
"292 574 LINE",
"290 245 LINE",
"31 245 LINE"
);
}
);
width = 492;
}
);
leftKerningGroup = four.lf;
rightKerningGroup = four.lf;
unicode = 0034;
},
{
color = 6;
glyphname = five;
layers = (
{
guideLines = (
{
angle = 86;
position = "{113, 367}";
}
);
layerId = "9372F035-DA38-4B54-966C-CEBA9B53DD02";
paths = (
{
closed = 1;
nodes = (
"316 -11 OFFCURVE",
"412 90 OFFCURVE",
"412 250 CURVE SMOOTH",
"412 379 OFFCURVE",
"329 454 OFFCURVE",
"236 454 CURVE SMOOTH",
"196 454 OFFCURVE",
"160 438 OFFCURVE",
"136 413 CURVE",
"152 615 LINE",
"191 615 LINE SMOOTH",
"295 615 OFFCURVE",
"371 624 OFFCURVE",
"371 696 CURVE SMOOTH",
"371 706 LINE",
"361 706 LINE",
"335 691 OFFCURVE",
"284 688 OFFCURVE",
"229 688 CURVE SMOOTH",
"198 688 LINE",
"158 689 LINE",
"160 716 LINE",
"134 716 LINE",
"108 354 LINE",
"127 354 LINE",
"143 389 OFFCURVE",
"175 421 OFFCURVE",
"220 421 CURVE SMOOTH",
"272 421 OFFCURVE",
"329 372 OFFCURVE",
"329 248 CURVE SMOOTH",
"329 129 OFFCURVE",
"285 17 OFFCURVE",
"198 17 CURVE SMOOTH",
"160 17 OFFCURVE",
"130 40 OFFCURVE",
"130 73 CURVE SMOOTH",
"130 93 OFFCURVE",
"138 105 OFFCURVE",
"138 121 CURVE SMOOTH",
"138 144 OFFCURVE",
"122 162 OFFCURVE",
"97 162 CURVE SMOOTH",
"68 162 OFFCURVE",
"47 138 OFFCURVE",
"47 100 CURVE SMOOTH",
"47 46 OFFCURVE",
"102 -11 OFFCURVE",
"203 -11 CURVE SMOOTH"
);
}
);
width = 477;
}
);
leftKerningGroup = five.lf;
unicode = 0035;
},
{
color = 6;
glyphname = six;
layers = (
{
layerId = "9372F035-DA38-4B54-966C-CEBA9B53DD02";
paths = (
{
closed = 1;
nodes = (
"388 -11 OFFCURVE",
"463 92 OFFCURVE",
"463 216 CURVE SMOOTH",
"463 367 OFFCURVE",
"368 429 OFFCURVE",
"287 429 CURVE SMOOTH",
"219 429 OFFCURVE",
"167 395 OFFCURVE",
"135 332 CURVE",
"135 339 LINE",
"131 576 OFFCURVE",
"215 695 OFFCURVE",
"294 695 CURVE SMOOTH",
"328 695 OFFCURVE",
"344 675 OFFCURVE",
"353 636 CURVE SMOOTH",
"358 615 OFFCURVE",
"379 607 OFFCURVE",
"396 607 CURVE",
"422 608 OFFCURVE",
"441 625 OFFCURVE",
"441 656 CURVE SMOOTH",
"441 705 OFFCURVE",
"376 724 OFFCURVE",
"314 724 CURVE SMOOTH",
"150 724 OFFCURVE",
"57 553 OFFCURVE",
"57 319 CURVE SMOOTH",
"57 133 OFFCURVE",
"102 -11 OFFCURVE",
"263 -11 CURVE SMOOTH"
);
},
{
closed = 1;
nodes = (
"183 19 OFFCURVE",
"144 92 OFFCURVE",
"144 210 CURVE SMOOTH",
"144 325 OFFCURVE",
"206 398 OFFCURVE",
"272 398 CURVE SMOOTH",
"342 398 OFFCURVE",
"383 338 OFFCURVE",
"383 220 CURVE SMOOTH",
"383 92 OFFCURVE",
"329 19 OFFCURVE",
"255 19 CURVE SMOOTH"
);
}
);
width = 531;
}
);
leftKerningGroup = zero.lf;
rightKerningGroup = six.lf;
unicode = 0036;
},
{
color = 6;
glyphname = seven;
layers = (
{
guideLines = (
{
position = "{-1807, 283}";
}
);
layerId = "9372F035-DA38-4B54-966C-CEBA9B53DD02";
paths = (
{
closed = 1;
nodes = (
"193 -294 OFFCURVE",
"217 -282 OFFCURVE",
"232 -231 CURVE SMOOTH",
"424 434 LINE",
"424 450 LINE",
"67 450 LINE",
"67 500 LINE",
"45 500 LINE",
"45 268 LINE",
"67 268 LINE",
"67 368 LINE",
"381 368 LINE",
"150 -197 LINE SMOOTH",
"142 -216 OFFCURVE",
"138 -234 OFFCURVE",
"138 -249 CURVE SMOOTH",
"138 -276 OFFCURVE",
"151 -294 OFFCURVE",
"173 -294 CURVE SMOOTH"
);
}
);
width = 478;
}
);
leftKerningGroup = seven;
rightKerningGroup = seven;
unicode = 0037;
},
{
color = 6;
glyphname = eight;
layers = (
{
layerId = "9372F035-DA38-4B54-966C-CEBA9B53DD02";
paths = (
{
closed = 1;
nodes = (
"361 -11 OFFCURVE",
"441 68 OFFCURVE",
"441 178 CURVE SMOOTH",
"441 280 OFFCURVE",
"373 338 OFFCURVE",
"312 385 CURVE SMOOTH",
"234 446 LINE SMOOTH",
"195 476 OFFCURVE",
"143 518 OFFCURVE",
"143 582 CURVE SMOOTH",
"143 645 OFFCURVE",
"193 689 OFFCURVE",
"258 689 CURVE SMOOTH",
"336 689 OFFCURVE",
"371 633 OFFCURVE",
"371 577 CURVE SMOOTH",
"371 502 OFFCURVE",
"308 450 OFFCURVE",
"262 416 CURVE",
"286 397 LINE",
"341 437 OFFCURVE",
"408 488 OFFCURVE",
"408 577 CURVE SMOOTH",
"408 654 OFFCURVE",
"358 724 OFFCURVE",
"252 724 CURVE SMOOTH",
"159 724 OFFCURVE",
"72 665 OFFCURVE",
"72 556 CURVE SMOOTH",
"72 481 OFFCURVE",
"114 427 OFFCURVE",
"167 386 CURVE SMOOTH",
"247 324 LINE SMOOTH",
"311 275 OFFCURVE",
"376 220 OFFCURVE",
"376 139 CURVE SMOOTH",
"376 65 OFFCURVE",
"323 21 OFFCURVE",
"238 21 CURVE SMOOTH",
"136 21 OFFCURVE",
"87 79 OFFCURVE",
"87 155 CURVE SMOOTH",
"87 247 OFFCURVE",
"158 305 OFFCURVE",
"220 355 CURVE",
"195 374 LINE",
"130 321 OFFCURVE",
"50 260 OFFCURVE",
"50 156 CURVE SMOOTH",
"50 65 OFFCURVE",
"111 -11 OFFCURVE",
"237 -11 CURVE SMOOTH"
);
}
);
width = 491;
}
);
leftKerningGroup = zero.lf;
rightKerningGroup = zero.lf;
unicode = 0038;
},
{
color = 6;
glyphname = nine;
layers = (
{
layerId = "9372F035-DA38-4B54-966C-CEBA9B53DD02";
paths = (
{
closed = 1;
nodes = (
"391 -296 OFFCURVE",
"484 -132 OFFCURVE",
"484 112 CURVE SMOOTH",
"484 311 OFFCURVE",
"441 469 OFFCURVE",
"268 469 CURVE SMOOTH",
"142 469 OFFCURVE",
"52 349 OFFCURVE",
"57 219 CURVE SMOOTH",
"64 69 OFFCURVE",
"156 -11 OFFCURVE",
"261 -11 CURVE SMOOTH",
"316 -11 OFFCURVE",
"370 9 OFFCURVE",
"401 63 CURVE",
"406 -165 OFFCURVE",
"333 -265 OFFCURVE",
"258 -265 CURVE SMOOTH",
"233 -265 OFFCURVE",
"222 -246 OFFCURVE",
"201 -206 CURVE",
"187 -183 OFFCURVE",
"174 -178 OFFCURVE",
"157 -178 CURVE",
"131 -179 OFFCURVE",
"112 -198 OFFCURVE",
"112 -226 CURVE SMOOTH",
"112 -281 OFFCURVE",
"170 -296 OFFCURVE",
"224 -296 CURVE SMOOTH"
);
},
{
closed = 1;
nodes = (
"182 19 OFFCURVE",
"143 88 OFFCURVE",
"137 223 CURVE SMOOTH",
"131 360 OFFCURVE",
"186 439 OFFCURVE",
"270 439 CURVE SMOOTH",
"357 439 OFFCURVE",
"396 366 OFFCURVE",
"396 244 CURVE SMOOTH",
"396 113 OFFCURVE",
"377 19 OFFCURVE",
"268 19 CURVE SMOOTH"
);
}
);
width = 555;
}
);
leftKerningGroup = o;
rightKerningGroup = o;
unicode = 0039;
},
{
color = 6;
glyphname = zero.lf;
layers = (
{
layerId = "9372F035-DA38-4B54-966C-CEBA9B53DD02";
paths = (
{
closed = 1;
nodes = (
"469 -11 OFFCURVE",
"572 136 OFFCURVE",
"572 358 CURVE SMOOTH",
"572 578 OFFCURVE",
"469 724 OFFCURVE",
"308 724 CURVE SMOOTH",
"148 724 OFFCURVE",
"45 578 OFFCURVE",
"45 358 CURVE SMOOTH",
"45 136 OFFCURVE",
"148 -11 OFFCURVE",
"308 -11 CURVE SMOOTH"
);
},
{
closed = 1;
nodes = (
"175 15 OFFCURVE",
"141 150 OFFCURVE",
"141 358 CURVE SMOOTH",
"141 562 OFFCURVE",
"175 699 OFFCURVE",
"308 699 CURVE SMOOTH",
"443 699 OFFCURVE",
"477 562 OFFCURVE",
"477 358 CURVE SMOOTH",
"477 150 OFFCURVE",
"443 15 OFFCURVE",
"308 15 CURVE SMOOTH"
);
}
);
width = 617;
}
);
leftKerningGroup = zero.lf;
rightKerningGroup = zero.lf;
},
{
color = 6;
glyphname = one.lf;
layers = (
{
layerId = "9372F035-DA38-4B54-966C-CEBA9B53DD02";
paths = (
{
closed = 1;
nodes = (
"200 0 LINE",
"353 -3 LINE",
"353 22 LINE",
"333 24 LINE SMOOTH",
"257 32 OFFCURVE",
"239 34 OFFCURVE",
"239 133 CURVE SMOOTH",
"239 715 LINE",
"201 715 LINE",
"150 694 OFFCURVE",
"122 675 OFFCURVE",
"45 666 CURVE",
"45 636 LINE",
"79 633 LINE SMOOTH",
"144 627 OFFCURVE",
"163 609 OFFCURVE",
"163 552 CURVE SMOOTH",
"163 133 LINE SMOOTH",
"163 34 OFFCURVE",
"143 32 OFFCURVE",
"67 24 CURVE SMOOTH",
"47 22 LINE",
"47 -3 LINE"
);
}
);
width = 377;
}
);
leftKerningGroup = one.lf;
rightKerningGroup = one.lf;
},
{
color = 6;
glyphname = two.lf;
layers = (
{
layerId = "9372F035-DA38-4B54-966C-CEBA9B53DD02";
paths = (
{
closed = 1;
nodes = (
"466 0 LINE",
"466 29 LINE",
"469 177 LINE",
"444 177 LINE",
"442 157 LINE SMOOTH",
"434 88 OFFCURVE",
"432 71 OFFCURVE",
"333 69 CURVE SMOOTH",
"119 66 LINE",
"279 219 LINE",
"384 328 OFFCURVE",
"465 407 OFFCURVE",
"465 514 CURVE SMOOTH",
"465 649 OFFCURVE",
"378 724 OFFCURVE",
"261 724 CURVE SMOOTH",
"129 724 OFFCURVE",
"50 622 OFFCURVE",
"50 532 CURVE SMOOTH",
"50 471 OFFCURVE",
"73 433 OFFCURVE",
"114 433 CURVE SMOOTH",
"140 433 OFFCURVE",
"163 450 OFFCURVE",
"163 481 CURVE SMOOTH",
"163 503 OFFCURVE",
"153 514 OFFCURVE",
"131 530 CURVE",
"112 541 OFFCURVE",
"97 561 OFFCURVE",
"97 584 CURVE SMOOTH",
"97 636 OFFCURVE",
"158 679 OFFCURVE",
"229 679 CURVE SMOOTH",
"331 679 OFFCURVE",
"377 608 OFFCURVE",
"377 506 CURVE SMOOTH",
"377 414 OFFCURVE",
"332 346 OFFCURVE",
"242 236 CURVE",
"59 36 LINE",
"59 0 LINE"
);
}
);
width = 534;
}
);
leftKerningGroup = three.lf;
rightKerningGroup = zero.lf;
},
{
color = 6;
glyphname = three.lf;
layers = (
{
guideLines = (
{
position = "{2, -280}";
}
);
layerId = "9372F035-DA38-4B54-966C-CEBA9B53DD02";
paths = (
{
closed = 1;
nodes = (
"408 -11 OFFCURVE",
"483 91 OFFCURVE",
"483 209 CURVE SMOOTH",
"483 307 OFFCURVE",
"429 398 OFFCURVE",
"294 400 CURVE SMOOTH",
"288 400 OFFCURVE",
"282 400 OFFCURVE",
"276 399 CURVE",
"381 436 OFFCURVE",
"454 490 OFFCURVE",
"454 577 CURVE SMOOTH",
"454 683 OFFCURVE",
"365 724 OFFCURVE",
"258 724 CURVE SMOOTH",
"150 724 OFFCURVE",
"68 663 OFFCURVE",
"68 577 CURVE SMOOTH",
"68 532 OFFCURVE",
"91 501 OFFCURVE",
"125 501 CURVE SMOOTH",
"146 501 OFFCURVE",
"168 515 OFFCURVE",
"168 539 CURVE",
"170 565 OFFCURVE",
"159 572 OFFCURVE",
"142 585 CURVE SMOOTH",
"131 593 OFFCURVE",
"125 605 OFFCURVE",
"126 620 CURVE",
"126 663 OFFCURVE",
"178 694 OFFCURVE",
"235 694 CURVE SMOOTH",
"329 694 OFFCURVE",
"366 637 OFFCURVE",
"366 577 CURVE SMOOTH",
"366 487 OFFCURVE",
"325 438 OFFCURVE",
"178 392 CURVE",
"177 357 LINE",
"203 367 OFFCURVE",
"230 374 OFFCURVE",
"261 374 CURVE SMOOTH",
"344 374 OFFCURVE",
"395 336 OFFCURVE",
"395 232 CURVE SMOOTH",
"395 136 OFFCURVE",
"357 18 OFFCURVE",
"224 18 CURVE SMOOTH",
"153 18 OFFCURVE",
"136 44 OFFCURVE",
"136 67 CURVE SMOOTH",
"136 84 OFFCURVE",
"150 95 OFFCURVE",
"150 118 CURVE SMOOTH",
"150 143 OFFCURVE",
"135 160 OFFCURVE",
"110 161 CURVE",
"73 161 OFFCURVE",
"55 136 OFFCURVE",
"55 101 CURVE SMOOTH",
"55 37 OFFCURVE",
"133 -11 OFFCURVE",
"223 -11 CURVE SMOOTH"
);
}
);
width = 543;
}
);
leftKerningGroup = three.lf;
rightKerningGroup = three.lf;
},
{
color = 6;
glyphname = four.lf;
layers = (
{
layerId = "9372F035-DA38-4B54-966C-CEBA9B53DD02";
paths = (
{
closed = 1;
nodes = (
"355 0 LINE",
"490 -3 LINE",
"490 22 LINE",
"472 24 LINE SMOOTH",
"408 32 OFFCURVE",
"393 34 OFFCURVE",
"393 133 CURVE SMOOTH",
"393 171 LINE",
"486 171 LINE",
"486 197 LINE",
"393 197 LINE",
"393 433 LINE",
"369 433 LINE",
"358 407 OFFCURVE",
"330 390 OFFCURVE",
"315 386 CURVE",
"315 197 LINE",
"76 197 LINE",
"447 696 LINE",
"447 710 LINE",
"317 710 LINE",
"262 578 OFFCURVE",
"183 401 OFFCURVE",
"85 260 CURVE",
"44 196 LINE",
"44 171 LINE",
"315 171 LINE",
"315 133 LINE SMOOTH",
"315 34 OFFCURVE",
"297 32 OFFCURVE",
"221 24 CURVE SMOOTH",
"201 22 LINE",
"201 -3 LINE"
);
}
);
width = 542;
}
);
leftKerningGroup = four.lf;
rightKerningGroup = four.lf;
},
{
color = 6;
glyphname = five.lf;
layers = (
{
layerId = "9372F035-DA38-4B54-966C-CEBA9B53DD02";
paths = (
{
closed = 1;
nodes = (
"365 -11 OFFCURVE",
"463 92 OFFCURVE",
"463 238 CURVE SMOOTH",
"463 387 OFFCURVE",
"368 446 OFFCURVE",
"271 446 CURVE SMOOTH",
"219 446 OFFCURVE",
"163 418 OFFCURVE",
"139 386 CURVE",
"140 628 LINE",
"282 628 LINE SMOOTH",
"369 628 OFFCURVE",
"430 632 OFFCURVE",
"432 715 CURVE",
"427 717 LINE",
"387 711 OFFCURVE",
"351 710 OFFCURVE",
"317 710 CURVE SMOOTH",
"274 710 LINE",
"113 710 LINE",
"109 322 LINE",
"135 322 LINE",
"151 374 OFFCURVE",
"202 414 OFFCURVE",
"256 414 CURVE SMOOTH",
"325 414 OFFCURVE",
"373 352 OFFCURVE",
"373 238 CURVE SMOOTH",
"373 134 OFFCURVE",
"335 15 OFFCURVE",
"202 15 CURVE SMOOTH",
"134 15 OFFCURVE",
"115 43 OFFCURVE",
"115 68 CURVE SMOOTH",
"115 84 OFFCURVE",
"130 96 OFFCURVE",
"131 118 CURVE",
"131 143 OFFCURVE",
"115 161 OFFCURVE",
"89 162 CURVE",
"54 162 OFFCURVE",
"35 136 OFFCURVE",
"35 100 CURVE SMOOTH",
"35 37 OFFCURVE",
"113 -11 OFFCURVE",
"200 -11 CURVE SMOOTH"
);
}
);
width = 528;
}
);
leftKerningGroup = five.lf;
rightKerningGroup = six.lf;
},
{
color = 6;
glyphname = six.lf;
layers = (
{
layerId = "9372F035-DA38-4B54-966C-CEBA9B53DD02";
paths = (
{
closed = 1;
nodes = (
"417 -11 OFFCURVE",
"482 107 OFFCURVE",
"482 221 CURVE SMOOTH",
"482 357 OFFCURVE",
"385 429 OFFCURVE",
"289 429 CURVE SMOOTH",
"232 429 OFFCURVE",
"173 404 OFFCURVE",
"133 341 CURVE",
"134 417 OFFCURVE",
"139 480 OFFCURVE",
"149 531 CURVE SMOOTH",
"172 644 OFFCURVE",
"228 696 OFFCURVE",
"300 696 CURVE SMOOTH",
"332 696 OFFCURVE",
"369 682 OFFCURVE",
"369 656 CURVE SMOOTH",
"369 638 OFFCURVE",
"350 630 OFFCURVE",
"350 607 CURVE SMOOTH",
"350 586 OFFCURVE",
"365 562 OFFCURVE",
"396 562 CURVE SMOOTH",
"429 562 OFFCURVE",
"444 587 OFFCURVE",
"444 620 CURVE SMOOTH",
"444 680 OFFCURVE",
"378 724 OFFCURVE",
"299 724 CURVE SMOOTH",
"156 724 OFFCURVE",
"45 604 OFFCURVE",
"45 330 CURVE SMOOTH",
"45 115 OFFCURVE",
"102 -11 OFFCURVE",
"265 -11 CURVE SMOOTH"
);
},
{
closed = 1;
nodes = (
"183 17 OFFCURVE",
"133 95 OFFCURVE",
"133 221 CURVE SMOOTH",
"133 232 LINE SMOOTH",
"133 327 OFFCURVE",
"197 398 OFFCURVE",
"276 398 CURVE SMOOTH",
"349 398 OFFCURVE",
"394 344 OFFCURVE",
"394 221 CURVE SMOOTH",
"394 95 OFFCURVE",
"366 17 OFFCURVE",
"271 17 CURVE SMOOTH"
);
}
);
width = 527;
}
);
leftKerningGroup = zero.lf;
leftMetricsKey = zero.lf;
rightKerningGroup = six.lf;
rightMetricsKey = zero.lf;
},
{
color = 6;
glyphname = seven.lf;
layers = (
{
layerId = "9372F035-DA38-4B54-966C-CEBA9B53DD02";
paths = (
{
closed = 1;
nodes = (
"187 0 LINE",
"238 179 OFFCURVE",
"289 329 OFFCURVE",
"379 535 CURVE",
"454 688 LINE",
"454 710 LINE",
"43 710 LINE",
"43 675 LINE",
"40 527 LINE",
"65 527 LINE",
"67 547 LINE SMOOTH",
"75 616 OFFCURVE",
"77 635 OFFCURVE",
"176 635 CURVE SMOOTH",
"399 635 LINE",
"62 0 LINE"
);
}
);
width = 474;
}
);
leftKerningGroup = seven.lf;
rightKerningGroup = seven.lf;
},
{
color = 6;
glyphname = eight.lf;
layers = (
{
layerId = "9372F035-DA38-4B54-966C-CEBA9B53DD02";
paths = (
{
closed = 1;
nodes = (
"422 -11 OFFCURVE",
"499 90 OFFCURVE",
"499 189 CURVE SMOOTH",
"499 270 OFFCURVE",
"449 351 OFFCURVE",
"352 381 CURVE",
"440 406 OFFCURVE",
"485 476 OFFCURVE",
"485 546 CURVE SMOOTH",
"485 635 OFFCURVE",
"412 724 OFFCURVE",
"282 724 CURVE SMOOTH",
"162 724 OFFCURVE",
"82 635 OFFCURVE",
"82 546 CURVE SMOOTH",
"82 478 OFFCURVE",
"123 410 OFFCURVE",
"207 382 CURVE",
"107 355 OFFCURVE",
"55 271 OFFCURVE",
"55 189 CURVE SMOOTH",
"55 90 OFFCURVE",
"133 -11 OFFCURVE",
"277 -11 CURVE SMOOTH"
);
},
{
closed = 1;
nodes = (
"173 13 OFFCURVE",
"148 88 OFFCURVE",
"148 189 CURVE SMOOTH",
"148 290 OFFCURVE",
"177 370 OFFCURVE",
"277 370 CURVE SMOOTH",
"377 370 OFFCURVE",
"406 290 OFFCURVE",
"406 189 CURVE SMOOTH",
"406 88 OFFCURVE",
"382 13 OFFCURVE",
"277 13 CURVE SMOOTH"
);
},
{
closed = 1;
nodes = (
"200 390 OFFCURVE",
"166 456 OFFCURVE",
"166 546 CURVE SMOOTH",
"166 635 OFFCURVE",
"196 700 OFFCURVE",
"282 700 CURVE SMOOTH",
"370 700 OFFCURVE",
"399 635 OFFCURVE",
"399 546 CURVE SMOOTH",
"399 456 OFFCURVE",
"365 390 OFFCURVE",
"282 390 CURVE SMOOTH"
);
}
);
width = 554;
}
);
leftKerningGroup = zero.lf;
leftMetricsKey = "=zero.lf+10";
rightKerningGroup = zero.lf;
rightMetricsKey = "=zero.lf+10";
},
{
color = 6;
glyphname = nine.lf;
layers = (
{
layerId = "9372F035-DA38-4B54-966C-CEBA9B53DD02";
paths = (
{
closed = 1;
nodes = (
"110 724 OFFCURVE",
"45 606 OFFCURVE",
"45 492 CURVE SMOOTH",
"45 356 OFFCURVE",
"142 284 OFFCURVE",
"238 284 CURVE SMOOTH",
"295 284 OFFCURVE",
"354 309 OFFCURVE",
"394 372 CURVE",
"393 296 OFFCURVE",
"388 233 OFFCURVE",
"378 182 CURVE SMOOTH",
"355 69 OFFCURVE",
"299 17 OFFCURVE",
"227 17 CURVE SMOOTH",
"195 17 OFFCURVE",
"158 31 OFFCURVE",
"158 57 CURVE SMOOTH",
"158 75 OFFCURVE",
"177 83 OFFCURVE",
"177 106 CURVE SMOOTH",
"177 127 OFFCURVE",
"162 151 OFFCURVE",
"131 151 CURVE SMOOTH",
"98 151 OFFCURVE",
"83 126 OFFCURVE",
"83 93 CURVE SMOOTH",
"83 33 OFFCURVE",
"149 -11 OFFCURVE",
"228 -11 CURVE SMOOTH",
"371 -11 OFFCURVE",
"482 109 OFFCURVE",
"482 383 CURVE SMOOTH",
"482 598 OFFCURVE",
"425 724 OFFCURVE",
"262 724 CURVE SMOOTH"
);
},
{
closed = 1;
nodes = (
"344 696 OFFCURVE",
"394 618 OFFCURVE",
"394 492 CURVE SMOOTH",
"394 481 LINE SMOOTH",
"394 386 OFFCURVE",
"330 315 OFFCURVE",
"251 315 CURVE SMOOTH",
"178 315 OFFCURVE",
"133 369 OFFCURVE",
"133 492 CURVE SMOOTH",
"133 618 OFFCURVE",
"161 696 OFFCURVE",
"256 696 CURVE SMOOTH"
);
}
);
width = 527;
}
);
leftKerningGroup = zero.lf;
leftMetricsKey = zero.lf;
rightKerningGroup = zero.lf;
rightMetricsKey = zero.lf;
},
{
color = 6;
glyphname = zero.sups;
layers = (
{
layerId = "9372F035-DA38-4B54-966C-CEBA9B53DD02";
paths = (
{
closed = 1;
nodes = (
"305 291 OFFCURVE",
"372 374 OFFCURVE",
"372 505 CURVE SMOOTH",
"372 634 OFFCURVE",
"305 717 OFFCURVE",
"200 717 CURVE SMOOTH",
"97 717 OFFCURVE",
"30 634 OFFCURVE",
"30 505 CURVE SMOOTH",
"30 374 OFFCURVE",
"97 291 OFFCURVE",
"200 291 CURVE SMOOTH"
);
},
{
closed = 1;
nodes = (
"134 316 OFFCURVE",
"104 373 OFFCURVE",
"104 505 CURVE SMOOTH",
"104 635 OFFCURVE",
"134 692 OFFCURVE",
"200 692 CURVE SMOOTH",
"268 692 OFFCURVE",
"298 635 OFFCURVE",
"298 505 CURVE SMOOTH",
"298 373 OFFCURVE",
"268 316 OFFCURVE",
"200 316 CURVE SMOOTH"
);
}
);
width = 402;
}
);
leftKerningGroup = sups;
leftMetricsKey = "=zero.lf-15";
rightKerningGroup = sups;
rightMetricsKey = "=zero.lf-15";
},
{
color = 6;
glyphname = one.sups;
layers = (
{
layerId = "9372F035-DA38-4B54-966C-CEBA9B53DD02";
paths = (
{
closed = 1;
nodes = (
"122 297 LINE",
"226 295 LINE",
"226 318 LINE",
"206 319 LINE SMOOTH",
"159 321 OFFCURVE",
"155 328 OFFCURVE",
"155 380 CURVE SMOOTH",
"155 716 LINE",
"119 716 LINE",
"68 695 OFFCURVE",
"61 694 OFFCURVE",
"15 690 CURVE",
"15 667 LINE",
"45 665 LINE SMOOTH",
"80 663 OFFCURVE",
"90 654 OFFCURVE",
"90 618 CURVE SMOOTH",
"90 380 LINE SMOOTH",
"90 328 OFFCURVE",
"85 321 OFFCURVE",
"37 319 CURVE SMOOTH",
"17 318 LINE",
"17 295 LINE"
);
}
);
width = 241;
}
);
leftKerningGroup = sups;
leftMetricsKey = "=one-15";
rightKerningGroup = sups;
rightMetricsKey = "=one-15";
},
{
color = 6;
glyphname = two.sups;
layers = (
{
layerId = "9372F035-DA38-4B54-966C-CEBA9B53DD02";
paths = (
{
closed = 1;
nodes = (
"306 297 LINE",
"306 314 LINE",
"308 400 LINE",
"287 400 LINE",
"274 364 OFFCURVE",
"267 358 OFFCURVE",
"215 357 CURVE SMOOTH",
"80 355 LINE",
"76 327 LINE",
"186 424 LINE SMOOTH",
"257 487 OFFCURVE",
"305 535 OFFCURVE",
"305 595 CURVE SMOOTH",
"305 669 OFFCURVE",
"252 717 OFFCURVE",
"170 717 CURVE SMOOTH",
"81 717 OFFCURVE",
"30 656 OFFCURVE",
"30 606 CURVE SMOOTH",
"30 572 OFFCURVE",
"45 546 OFFCURVE",
"79 546 CURVE SMOOTH",
"100 546 OFFCURVE",
"115 560 OFFCURVE",
"115 578 CURVE SMOOTH",
"115 598 OFFCURVE",
"104 608 OFFCURVE",
"93 614 CURVE SMOOTH",
"84 619 OFFCURVE",
"76 620 OFFCURVE",
"76 636 CURVE SMOOTH",
"76 668 OFFCURVE",
"109 691 OFFCURVE",
"150 691 CURVE SMOOTH",
"205 691 OFFCURVE",
"231 651 OFFCURVE",
"231 590 CURVE SMOOTH",
"231 535 OFFCURVE",
"208 491 OFFCURVE",
"153 434 CURVE",
"35 320 LINE",
"35 297 LINE"
);
}
);
width = 348;
}
);
leftKerningGroup = sups;
rightKerningGroup = sups;
},
{
color = 6;
glyphname = three.sups;
layers = (
{
layerId = "9372F035-DA38-4B54-966C-CEBA9B53DD02";
paths = (
{
closed = 1;
nodes = (
"247 291 OFFCURVE",
"313 339 OFFCURVE",
"313 418 CURVE SMOOTH",
"313 486 OFFCURVE",
"264 528 OFFCURVE",
"185 529 CURVE SMOOTH",
"178 529 OFFCURVE",
"174 529 OFFCURVE",
"168 528 CURVE",
"172 526 LINE",
"255 554 OFFCURVE",
"295 588 OFFCURVE",
"295 632 CURVE SMOOTH",
"295 685 OFFCURVE",
"244 717 OFFCURVE",
"162 717 CURVE SMOOTH",
"90 717 OFFCURVE",
"34 680 OFFCURVE",
"34 632 CURVE SMOOTH",
"34 602 OFFCURVE",
"51 578 OFFCURVE",
"78 578 CURVE SMOOTH",
"102 578 OFFCURVE",
"115 592 OFFCURVE",
"115 610 CURVE SMOOTH",
"115 624 OFFCURVE",
"107 629 OFFCURVE",
"99 635 CURVE",
"93 640 OFFCURVE",
"88 646 OFFCURVE",
"88 657 CURVE SMOOTH",
"88 681 OFFCURVE",
"116 695 OFFCURVE",
"148 695 CURVE SMOOTH",
"200 695 OFFCURVE",
"221 666 OFFCURVE",
"221 632 CURVE SMOOTH",
"221 577 OFFCURVE",
"197 546 OFFCURVE",
"108 521 CURVE",
"114 499 LINE",
"126 503 OFFCURVE",
"144 509 OFFCURVE",
"164 509 CURVE SMOOTH",
"216 509 OFFCURVE",
"240 485 OFFCURVE",
"240 432 CURVE SMOOTH",
"240 374 OFFCURVE",
"216 307 OFFCURVE",
"144 307 CURVE SMOOTH",
"114 307 OFFCURVE",
"94 315 OFFCURVE",
"94 336 CURVE SMOOTH",
"94 349 OFFCURVE",
"101 354 OFFCURVE",
"101 371 CURVE SMOOTH",
"101 387 OFFCURVE",
"90 401 OFFCURVE",
"69 401 CURVE SMOOTH",
"43 401 OFFCURVE",
"25 384 OFFCURVE",
"25 361 CURVE SMOOTH",
"25 315 OFFCURVE",
"78 291 OFFCURVE",
"140 291 CURVE SMOOTH"
);
}
);
width = 348;
}
);
leftKerningGroup = sups;
rightKerningGroup = sups;
},
{
color = 6;
glyphname = four.sups;
layers = (
{
layerId = "9372F035-DA38-4B54-966C-CEBA9B53DD02";
paths = (
{
closed = 1;
nodes = (
"218 296 LINE",
"303 294 LINE",
"304 319 LINE",
"292 320 LINE SMOOTH",
"255 323 OFFCURVE",
"251 328 OFFCURVE",
"251 373 CURVE SMOOTH",
"251 395 LINE",
"300 395 LINE",
"300 417 LINE",
"251 417 LINE",
"251 547 LINE",
"229 547 LINE",
"214 534 OFFCURVE",
"198 524 OFFCURVE",
"183 520 CURVE",
"183 417 LINE",
"22 417 LINE",
"22 401 LINE",
"285 702 LINE",
"285 710 LINE",
"179 710 LINE",
"137 630 OFFCURVE",
"67 484 OFFCURVE",
"0 406 CURVE",
"0 395 LINE",
"183 395 LINE",
"183 373 LINE SMOOTH",
"183 328 OFFCURVE",
"179 324 OFFCURVE",
"132 320 CURVE",
"110 319 LINE",
"111 294 LINE"
);
}
);
width = 324;
}
);
leftKerningGroup = sups;
rightKerningGroup = sups;
},
{
color = 6;
glyphname = five.sups;
layers = (
{
layerId = "9372F035-DA38-4B54-966C-CEBA9B53DD02";
paths = (
{
closed = 1;
nodes = (
"237 292 OFFCURVE",
"303 349 OFFCURVE",
"303 436 CURVE SMOOTH",
"303 510 OFFCURVE",
"256 557 OFFCURVE",
"187 557 CURVE SMOOTH",
"136 557 OFFCURVE",
"93 529 OFFCURVE",
"82 498 CURVE",
"97 506 LINE",
"97 646 LINE",
"183 646 LINE SMOOTH",
"239 646 OFFCURVE",
"286 650 OFFCURVE",
"287 713 CURVE",
"264 712 OFFCURVE",
"213 710 OFFCURVE",
"178 710 CURVE SMOOTH",
"74 710 LINE",
"72 485 LINE",
"95 485 LINE",
"112 516 OFFCURVE",
"138 534 OFFCURVE",
"168 534 CURVE SMOOTH",
"206 534 OFFCURVE",
"229 496 OFFCURVE",
"229 436 CURVE SMOOTH",
"229 378 OFFCURVE",
"208 315 OFFCURVE",
"139 315 CURVE SMOOTH",
"108 315 OFFCURVE",
"93 321 OFFCURVE",
"93 337 CURVE SMOOTH",
"93 350 OFFCURVE",
"104 359 OFFCURVE",
"104 378 CURVE SMOOTH",
"104 399 OFFCURVE",
"89 411 OFFCURVE",
"68 412 CURVE",
"42 412 OFFCURVE",
"25 391 OFFCURVE",
"25 366 CURVE SMOOTH",
"25 322 OFFCURVE",
"78 292 OFFCURVE",
"138 292 CURVE SMOOTH"
);
}
);
width = 343;
}
);
leftKerningGroup = sups;
rightKerningGroup = sups;
},
{
color = 6;
glyphname = six.sups;
layers = (
{
layerId = "9372F035-DA38-4B54-966C-CEBA9B53DD02";
paths = (
{
closed = 1;
nodes = (
"291 291 OFFCURVE",
"333 361 OFFCURVE",
"333 425 CURVE SMOOTH",
"333 495 OFFCURVE",
"277 546 OFFCURVE",
"202 546 CURVE SMOOTH",
"158 546 OFFCURVE",
"118 526 OFFCURVE",
"97 495 CURVE",
"113 495 LINE",
"114 540 OFFCURVE",
"117 578 OFFCURVE",
"123 605 CURVE SMOOTH",
"137 668 OFFCURVE",
"167 701 OFFCURVE",
"209 701 CURVE SMOOTH",
"231 701 OFFCURVE",
"244 693 OFFCURVE",
"244 677 CURVE SMOOTH",
"244 662 OFFCURVE",
"232 656 OFFCURVE",
"232 637 CURVE SMOOTH",
"232 619 OFFCURVE",
"248 603 OFFCURVE",
"270 603 CURVE SMOOTH",
"294 603 OFFCURVE",
"309 623 OFFCURVE",
"309 646 CURVE SMOOTH",
"309 689 OFFCURVE",
"273 717 OFFCURVE",
"209 717 CURVE SMOOTH",
"101 717 OFFCURVE",
"40 634 OFFCURVE",
"40 488 CURVE SMOOTH",
"40 352 OFFCURVE",
"85 291 OFFCURVE",
"187 291 CURVE SMOOTH"
);
},
{
closed = 1;
nodes = (
"143 314 OFFCURVE",
"113 356 OFFCURVE",
"113 417 CURVE SMOOTH",
"113 484 OFFCURVE",
"147 523 OFFCURVE",
"194 523 CURVE SMOOTH",
"236 523 OFFCURVE",
"260 489 OFFCURVE",
"260 425 CURVE SMOOTH",
"260 348 OFFCURVE",
"238 314 OFFCURVE",
"191 314 CURVE SMOOTH"
);
}
);
width = 363;
}
);
leftKerningGroup = sups;
rightKerningGroup = sups;
},
{
color = 6;
glyphname = seven.sups;
layers = (
{
layerId = "9372F035-DA38-4B54-966C-CEBA9B53DD02";
paths = (
{
closed = 1;
nodes = (
"135 297 LINE",
"168 403 OFFCURVE",
"201 492 OFFCURVE",
"256 608 CURVE",
"303 697 LINE",
"304 710 LINE",
"27 710 LINE",
"25 584 LINE",
"48 584 LINE",
"52 602 LINE SMOOTH",
"60 639 OFFCURVE",
"69 648 OFFCURVE",
"120 648 CURVE SMOOTH",
"260 648 LINE",
"263 666 LINE",
"40 297 LINE"
);
}
);
width = 304;
}
);
leftKerningGroup = sups;
rightKerningGroup = sups;
},
{
color = 6;
glyphname = eight.sups;
layers = (
{
layerId = "9372F035-DA38-4B54-966C-CEBA9B53DD02";
paths = (
{
closed = 1;
nodes = (
"282 291 OFFCURVE",
"333 352 OFFCURVE",
"333 407 CURVE SMOOTH",
"333 458 OFFCURVE",
"294 501 OFFCURVE",
"233 518 CURVE",
"289 533 OFFCURVE",
"324 569 OFFCURVE",
"324 614 CURVE SMOOTH",
"324 663 OFFCURVE",
"276 717 OFFCURVE",
"187 717 CURVE SMOOTH",
"105 717 OFFCURVE",
"52 663 OFFCURVE",
"52 614 CURVE SMOOTH",
"52 570 OFFCURVE",
"84 535 OFFCURVE",
"137 519 CURVE",
"75 503 OFFCURVE",
"35 459 OFFCURVE",
"35 407 CURVE SMOOTH",
"35 352 OFFCURVE",
"86 291 OFFCURVE",
"184 291 CURVE SMOOTH"
);
},
{
closed = 1;
nodes = (
"132 312 OFFCURVE",
"109 341 OFFCURVE",
"109 407 CURVE SMOOTH",
"109 472 OFFCURVE",
"134 507 OFFCURVE",
"184 507 CURVE SMOOTH",
"234 507 OFFCURVE",
"259 472 OFFCURVE",
"259 407 CURVE SMOOTH",
"259 341 OFFCURVE",
"237 312 OFFCURVE",
"184 312 CURVE SMOOTH"
);
},
{
closed = 1;
nodes = (
"146 528 OFFCURVE",
"123 559 OFFCURVE",
"123 614 CURVE SMOOTH",
"123 664 OFFCURVE",
"141 697 OFFCURVE",
"187 697 CURVE SMOOTH",
"234 697 OFFCURVE",
"252 664 OFFCURVE",
"252 614 CURVE SMOOTH",
"252 559 OFFCURVE",
"229 528 OFFCURVE",
"187 528 CURVE SMOOTH"
);
}
);
width = 368;
}
);
leftKerningGroup = sups;
rightKerningGroup = sups;
},
{
color = 6;
glyphname = fraction;
layers = (
{
layerId = "9372F035-DA38-4B54-966C-CEBA9B53DD02";
paths = (
{
closed = 1;
nodes = (
"-57 0 LINE",
"434 722 LINE",
"381 722 LINE",
"-110 0 LINE"
);
}
);
width = 291;
}
);
leftKerningGroup = slash;
rightKerningGroup = slash;
unicode = 2044;
},
{
color = 6;
glyphname = .notdef;
layers = (
{
layerId = "9372F035-DA38-4B54-966C-CEBA9B53DD02";
paths = (
{
closed = 1;
nodes = (
"790 0 LINE",
"790 710 LINE",
"80 710 LINE",
"80 0 LINE"
);
},
{
closed = 1;
nodes = (
"435 325 LINE",
"715 45 LINE",
"154 45 LINE"
);
},
{
closed = 1;
nodes = (
"125 634 LINE",
"402 357 LINE",
"125 80 LINE"
);
},
{
closed = 1;
nodes = (
"158 665 LINE",
"711 665 LINE",
"435 389 LINE"
);
},
{
closed = 1;
nodes = (
"467 357 LINE",
"745 635 LINE",
"745 79 LINE"
);
}
);
width = 870;
}
);
},
{
color = 6;
glyphname = period;
layers = (
{
layerId = "9372F035-DA38-4B54-966C-CEBA9B53DD02";
paths = (
{
closed = 1;
nodes = (
"159 -11 OFFCURVE",
"186 18 OFFCURVE",
"186 53 CURVE SMOOTH",
"186 86 OFFCURVE",
"159 115 OFFCURVE",
"124 115 CURVE SMOOTH",
"87 115 OFFCURVE",
"60 86 OFFCURVE",
"60 53 CURVE SMOOTH",
"60 18 OFFCURVE",
"87 -11 OFFCURVE",
"124 -11 CURVE SMOOTH"
);
}
);
width = 246;
}
);
leftKerningGroup = period;
rightKerningGroup = period;
unicode = 002E;
},
{
color = 6;
glyphname = comma;
layers = (
{
layerId = "9372F035-DA38-4B54-966C-CEBA9B53DD02";
paths = (
{
closed = 1;
nodes = (
"106 -197 OFFCURVE",
"146 -168 OFFCURVE",
"176 -128 CURVE SMOOTH",
"204 -92 OFFCURVE",
"223 -47 OFFCURVE",
"223 0 CURVE SMOOTH",
"223 63 OFFCURVE",
"193 123 OFFCURVE",
"131 123 CURVE SMOOTH",
"85 123 OFFCURVE",
"60 92 OFFCURVE",
"60 56 CURVE SMOOTH",
"60 19 OFFCURVE",
"86 -11 OFFCURVE",
"120 -11 CURVE SMOOTH",
"157 -11 OFFCURVE",
"173 14 OFFCURVE",
"173 37 CURVE SMOOTH",
"173 49 OFFCURVE",
"168 63 OFFCURVE",
"163 70 CURVE",
"166 75 LINE",
"186 65 OFFCURVE",
"193 25 OFFCURVE",
"193 0 CURVE SMOOTH",
"193 -86 OFFCURVE",
"126 -147 OFFCURVE",
"62 -189 CURVE",
"76 -216 LINE"
);
}
);
visible = 1;
width = 282;
}
);
leftKerningGroup = period;
rightKerningGroup = period;
unicode = 002C;
},
{
color = 6;
glyphname = exclam;
layers = (
{
layerId = "9372F035-DA38-4B54-966C-CEBA9B53DD02";
paths = (
{
closed = 1;
nodes = (
"140 199 LINE",
"143 348 OFFCURVE",
"159 495 OFFCURVE",
"173 643 CURVE",
"173 648 OFFCURVE",
"174 653 OFFCURVE",
"174 657 CURVE SMOOTH",
"174 704 OFFCURVE",
"151 724 OFFCURVE",
"124 724 CURVE SMOOTH",
"95 724 OFFCURVE",
"70 700 OFFCURVE",
"75 643 CURVE SMOOTH",
"89 495 OFFCURVE",
"104 347 OFFCURVE",
"108 199 CURVE"
);
},
{
closed = 1;
nodes = (
"159 -14 OFFCURVE",
"188 15 OFFCURVE",
"188 50 CURVE SMOOTH",
"188 85 OFFCURVE",
"159 114 OFFCURVE",
"124 114 CURVE SMOOTH",
"89 114 OFFCURVE",
"60 85 OFFCURVE",
"60 50 CURVE SMOOTH",
"60 15 OFFCURVE",
"89 -14 OFFCURVE",
"124 -14 CURVE SMOOTH"
);
}
);
width = 248;
}
);
leftMetricsKey = period;
rightMetricsKey = "=period";
unicode = 0021;
},
{
color = 3;
glyphname = question;
layers = (
{
components = (
{
name = period;
transform = "{-1, 0, 0, 1, 268, 0}";
}
);
layerId = "9372F035-DA38-4B54-966C-CEBA9B53DD02";
paths = (
{
closed = 1;
nodes = (
"160 176 OFFCURVE",
"181 195 OFFCURVE",
"172 229 CURVE SMOOTH",
"161 271 OFFCURVE",
"145 310 OFFCURVE",
"131 388 CURVE",
"156 367 OFFCURVE",
"191 354 OFFCURVE",
"232 354 CURVE SMOOTH",
"322 354 OFFCURVE",
"393 430 OFFCURVE",
"397 540 CURVE SMOOTH",
"401 652 OFFCURVE",
"314 724 OFFCURVE",
"213 724 CURVE SMOOTH",
"146 724 OFFCURVE",
"68 693 OFFCURVE",
"67 640 CURVE SMOOTH",
"66 609 OFFCURVE",
"87 585 OFFCURVE",
"114 585 CURVE SMOOTH",
"146 585 OFFCURVE",
"160 609 OFFCURVE",
"160 629 CURVE SMOOTH",
"160 643 OFFCURVE",
"153 657 OFFCURVE",
"153 668 CURVE SMOOTH",
"153 686 OFFCURVE",
"167 698 OFFCURVE",
"211 698 CURVE SMOOTH",
"290 698 OFFCURVE",
"321 641 OFFCURVE",
"317 540 CURVE SMOOTH",
"314 445 OFFCURVE",
"295 381 OFFCURVE",
"220 381 CURVE SMOOTH",
"160 381 OFFCURVE",
"125 415 OFFCURVE",
"111 468 CURVE",
"90 467 LINE",
"90 464 LINE",
"102 214 LINE SMOOTH",
"103 188 OFFCURVE",
"122 176 OFFCURVE",
"141 176 CURVE SMOOTH"
);
}
);
width = 454;
}
);
unicode = 003F;
},
{
color = 6;
glyphname = asterisk;
layers = (
{
layerId = "9372F035-DA38-4B54-966C-CEBA9B53DD02";
paths = (
{
closed = 1;
nodes = (
"252 305 OFFCURVE",
"266 325 OFFCURVE",
"266 355 CURVE SMOOTH",
"266 392 OFFCURVE",
"239 437 OFFCURVE",
"239 498 CURVE",
"292 468 OFFCURVE",
"318 421 OFFCURVE",
"350 402 CURVE SMOOTH",
"361 395 OFFCURVE",
"372 392 OFFCURVE",
"381 392 CURVE SMOOTH",
"394 392 OFFCURVE",
"405 399 OFFCURVE",
"412 411 CURVE SMOOTH",
"417 420 OFFCURVE",
"419 427 OFFCURVE",
"419 434 CURVE SMOOTH",
"419 449 OFFCURVE",
"408 460 OFFCURVE",
"389 471 CURVE SMOOTH",
"358 489 OFFCURVE",
"302 485 OFFCURVE",
"249 515 CURVE",
"299 550 OFFCURVE",
"353 551 OFFCURVE",
"384 572 CURVE SMOOTH",
"400 583 OFFCURVE",
"411 595 OFFCURVE",
"411 610 CURVE SMOOTH",
"411 617 OFFCURVE",
"408 625 OFFCURVE",
"402 633 CURVE SMOOTH",
"394 644 OFFCURVE",
"384 650 OFFCURVE",
"372 650 CURVE SMOOTH",
"362 650 OFFCURVE",
"350 645 OFFCURVE",
"338 636 CURVE SMOOTH",
"310 615 OFFCURVE",
"288 566 OFFCURVE",
"239 531 CURVE",
"239 592 OFFCURVE",
"268 637 OFFCURVE",
"268 674 CURVE SMOOTH",
"268 704 OFFCURVE",
"254 724 OFFCURVE",
"229 724 CURVE SMOOTH",
"198 724 OFFCURVE",
"189 703 OFFCURVE",
"189 674 CURVE SMOOTH",
"189 637 OFFCURVE",
"220 592 OFFCURVE",
"220 531 CURVE",
"171 566 OFFCURVE",
"150 615 OFFCURVE",
"121 636 CURVE SMOOTH",
"109 645 OFFCURVE",
"97 650 OFFCURVE",
"87 650 CURVE SMOOTH",
"75 650 OFFCURVE",
"65 644 OFFCURVE",
"57 633 CURVE SMOOTH",
"51 625 OFFCURVE",
"48 617 OFFCURVE",
"48 610 CURVE SMOOTH",
"48 595 OFFCURVE",
"59 583 OFFCURVE",
"75 572 CURVE SMOOTH",
"106 551 OFFCURVE",
"160 550 OFFCURVE",
"210 515 CURVE",
"157 485 OFFCURVE",
"102 489 OFFCURVE",
"70 471 CURVE",
"52 460 OFFCURVE",
"40 449 OFFCURVE",
"40 433 CURVE SMOOTH",
"40 427 OFFCURVE",
"43 419 OFFCURVE",
"47 411 CURVE SMOOTH",
"54 398 OFFCURVE",
"65 392 OFFCURVE",
"78 392 CURVE SMOOTH",
"87 392 OFFCURVE",
"98 395 OFFCURVE",
"109 402 CURVE SMOOTH",
"141 421 OFFCURVE",
"167 468 OFFCURVE",
"220 498 CURVE",
"220 437 OFFCURVE",
"187 392 OFFCURVE",
"187 355 CURVE SMOOTH",
"187 326 OFFCURVE",
"196 305 OFFCURVE",
"227 305 CURVE SMOOTH"
);
}
);
width = 459;
}
);
unicode = 002A;
},
{
color = 6;
glyphname = numbersign;
layers = (
{
guideLines = (
{
angle = 73.8967;
position = "{20, 315}";
}
);
layerId = "9372F035-DA38-4B54-966C-CEBA9B53DD02";
paths = (
{
closed = 1;
nodes = (
"376 0 LINE",
"581 710 LINE",
"544 710 LINE",
"339 0 LINE"
);
},
{
closed = 1;
nodes = (
"183 237 LINE",
"192 268 LINE",
"9 268 LINE",
"0 237 LINE"
);
},
{
closed = 1;
nodes = (
"416 237 LINE",
"425 268 LINE",
"212 268 LINE",
"205 237 LINE"
);
},
{
closed = 1;
nodes = (
"143 0 LINE",
"348 710 LINE",
"312 710 LINE",
"106 0 LINE"
);
},
{
closed = 1;
nodes = (
"243 447 LINE",
"252 479 LINE",
"68 479 LINE",
"59 447 LINE"
);
},
{
closed = 1;
nodes = (
"637 237 LINE",
"646 268 LINE",
"445 268 LINE",
"437 237 LINE"
);
},
{
closed = 1;
nodes = (
"476 447 LINE",
"485 479 LINE",
"273 479 LINE",
"265 447 LINE"
);
},
{
closed = 1;
nodes = (
"697 447 LINE",
"706 479 LINE",
"505 479 LINE",
"498 447 LINE"
);
}
);
width = 706;
}
);
leftMetricsKey = slash;
rightMetricsKey = slash;
unicode = 0023;
},
{
color = 6;
glyphname = slash;
layers = (
{
layerId = "9372F035-DA38-4B54-966C-CEBA9B53DD02";
paths = (
{
closed = 1;
nodes = (
"36 -135 LINE",
"296 834 LINE",
"260 834 LINE",
"0 -135 LINE"
);
}
);
width = 296;
}
);
unicode = 002F;
},
{
color = 3;
glyphname = exclam.sc;
layers = (
{
components = (
{
name = period.sc;
}
);
layerId = "9372F035-DA38-4B54-966C-CEBA9B53DD02";
paths = (
{
closed = 1;
nodes = (
"126 165 LINE",
"128 250 OFFCURVE",
"140 332 OFFCURVE",
"151 415 CURVE SMOOTH",
"156 453 OFFCURVE",
"134 469 OFFCURVE",
"111 469 CURVE SMOOTH",
"87 469 OFFCURVE",
"66 453 OFFCURVE",
"71 415 CURVE SMOOTH",
"82 332 OFFCURVE",
"92 249 OFFCURVE",
"94 165 CURVE"
);
}
);
width = 221;
}
);
leftMetricsKey = period;
rightMetricsKey = "=period";
},
{
color = 3;
glyphname = question.sc;
layers = (
{
components = (
{
name = period.sc;
transform = "{1, 0, 0, 1, -22, 0}";
}
);
layerId = "9372F035-DA38-4B54-966C-CEBA9B53DD02";
paths = (
{
closed = 1;
nodes = (
"105 132 OFFCURVE",
"122 144 OFFCURVE",
"115 166 CURVE",
"104 193 OFFCURVE",
"89 219 OFFCURVE",
"76 280 CURVE",
"70 261 LINE",
"88 248 OFFCURVE",
"115 237 OFFCURVE",
"139 237 CURVE SMOOTH",
"226 237 OFFCURVE",
"280 287 OFFCURVE",
"283 349 CURVE SMOOTH",
"286 422 OFFCURVE",
"220 469 OFFCURVE",
"146 469 CURVE SMOOTH",
"96 469 OFFCURVE",
"37 440 OFFCURVE",
"37 399 CURVE SMOOTH",
"37 379 OFFCURVE",
"52 364 OFFCURVE",
"72 364 CURVE SMOOTH",
"96 364 OFFCURVE",
"105 379 OFFCURVE",
"105 392 CURVE SMOOTH",
"105 401 OFFCURVE",
"101 410 OFFCURVE",
"101 417 CURVE SMOOTH",
"101 433 OFFCURVE",
"118 444 OFFCURVE",
"143 444 CURVE SMOOTH",
"196 444 OFFCURVE",
"219 413 OFFCURVE",
"216 349 CURVE SMOOTH",
"213 301 OFFCURVE",
"186 262 OFFCURVE",
"134 262 CURVE SMOOTH",
"105 262 OFFCURVE",
"85 277 OFFCURVE",
"69 301 CURVE",
"51 301 LINE",
"60 156 LINE SMOOTH",
"61 139 OFFCURVE",
"75 132 OFFCURVE",
"89 132 CURVE SMOOTH"
);
}
);
width = 274;
}
);
},
{
color = 6;
glyphname = hyphen;
layers = (
{
layerId = "9372F035-DA38-4B54-966C-CEBA9B53DD02";
paths = (
{
closed = 1;
nodes = (
"327 198 LINE",
"327 238 LINE",
"60 238 LINE",
"60 198 LINE"
);
}
);
width = 387;
}
);
leftKerningGroup = hyphen;
rightKerningGroup = hyphen;
unicode = 002D;
},
{
color = 6;
glyphname = endash;
layers = (
{
layerId = "9372F035-DA38-4B54-966C-CEBA9B53DD02";
paths = (
{
closed = 1;
nodes = (
"504 196 LINE",
"504 240 LINE",
"50 240 LINE",
"50 196 LINE"
);
}
);
width = 554;
}
);
leftKerningGroup = hyphen;
rightKerningGroup = hyphen;
unicode = 2013;
},
{
color = 6;
glyphname = emdash;
layers = (
{
layerId = "9372F035-DA38-4B54-966C-CEBA9B53DD02";
paths = (
{
closed = 1;
nodes = (
"715 204 LINE",
"715 240 LINE",
"20 240 LINE",
"20 204 LINE"
);
}
);
width = 735;
}
);
leftKerningGroup = hyphen;
rightKerningGroup = hyphen;
unicode = 2014;
},
{
color = 6;
glyphname = hyphen.case;
layers = (
{
layerId = "9372F035-DA38-4B54-966C-CEBA9B53DD02";
paths = (
{
closed = 1;
nodes = (
"327 306 LINE",
"327 346 LINE",
"60 346 LINE",
"60 306 LINE"
);
}
);
width = 387;
}
);
leftKerningGroup = hyphen;
rightKerningGroup = hyphen;
},
{
color = 6;
glyphname = endash.case;
layers = (
{
layerId = "9372F035-DA38-4B54-966C-CEBA9B53DD02";
paths = (
{
closed = 1;
nodes = (
"504 302 LINE",
"504 342 LINE",
"50 342 LINE",
"50 302 LINE"
);
}
);
width = 554;
}
);
leftKerningGroup = hyphen;
rightKerningGroup = hyphen;
},
{
color = 6;
glyphname = emdash.case;
layers = (
{
layerId = "9372F035-DA38-4B54-966C-CEBA9B53DD02";
paths = (
{
closed = 1;
nodes = (
"715 310 LINE",
"715 350 LINE",
"20 350 LINE",
"20 310 LINE"
);
}
);
width = 735;
}
);
leftKerningGroup = hyphen;
rightKerningGroup = hyphen;
},
{
color = 6;
glyphname = parenright;
layers = (
{
layerId = "9372F035-DA38-4B54-966C-CEBA9B53DD02";
paths = (
{
closed = 1;
nodes = (
"211 -59 OFFCURVE",
"308 128 OFFCURVE",
"308 321 CURVE SMOOTH",
"308 514 OFFCURVE",
"211 701 OFFCURVE",
"65 796 CURVE",
"50 773 LINE",
"155 699 OFFCURVE",
"233 508 OFFCURVE",
"233 321 CURVE SMOOTH",
"233 134 OFFCURVE",
"155 -57 OFFCURVE",
"50 -131 CURVE",
"65 -154 LINE"
);
}
);
width = 368;
}
);
leftKerningGroup = parent;
rightKerningGroup = parent;
unicode = 0029;
},
{
color = 6;
glyphname = braceleft;
layers = (
{
layerId = "9372F035-DA38-4B54-966C-CEBA9B53DD02";
paths = (
{
closed = 1;
nodes = (
"340 -119 LINE",
"277 -119 OFFCURVE",
"223 -88 OFFCURVE",
"223 -25 CURVE SMOOTH",
"223 33 OFFCURVE",
"242 90 OFFCURVE",
"242 159 CURVE SMOOTH",
"242 239 OFFCURVE",
"180 318 OFFCURVE",
"108 318 CURVE",
"108 324 LINE",
"180 324 OFFCURVE",
"242 403 OFFCURVE",
"242 483 CURVE SMOOTH",
"242 552 OFFCURVE",
"223 609 OFFCURVE",
"223 667 CURVE SMOOTH",
"223 730 OFFCURVE",
"277 761 OFFCURVE",
"340 761 CURVE",
"340 784 LINE",
"231 784 OFFCURVE",
"151 700 OFFCURVE",
"151 601 CURVE SMOOTH",
"151 540 OFFCURVE",
"176 501 OFFCURVE",
"176 438 CURVE SMOOTH",
"176 384 OFFCURVE",
"122 332 OFFCURVE",
"60 332 CURVE",
"60 309 LINE",
"122 309 OFFCURVE",
"176 258 OFFCURVE",
"176 204 CURVE SMOOTH",
"176 141 OFFCURVE",
"151 102 OFFCURVE",
"151 41 CURVE SMOOTH",
"151 -58 OFFCURVE",
"231 -142 OFFCURVE",
"340 -142 CURVE"
);
}
);
width = 390;
}
);
leftKerningGroup = parent;
leftMetricsKey = parenleft;
rightKerningGroup = parent;
rightMetricsKey = parenleft;
unicode = 007B;
},
{
color = 6;
glyphname = bracketleft;
layers = (
{
guideLines = (
{
position = "{255, 679}";
},
{
position = "{-414, 805}";
}
);
layerId = "9372F035-DA38-4B54-966C-CEBA9B53DD02";
paths = (
{
closed = 1;
nodes = (
"244 -142 LINE",
"244 -101 LINE",
"105 -101 LINE",
"105 743 LINE",
"244 743 LINE",
"244 784 LINE",
"60 784 LINE",
"60 -142 LINE"
);
}
);
width = 294;
}
);
leftKerningGroup = parent;
leftMetricsKey = parenleft;
rightKerningGroup = parent;
rightMetricsKey = parenleft;
unicode = 005B;
},
{
color = 6;
glyphname = parenleft.sc;
layers = (
{
layerId = "9372F035-DA38-4B54-966C-CEBA9B53DD02";
paths = (
{
closed = 1;
nodes = (
"271 -131 LINE",
"188 -76 OFFCURVE",
"133 64 OFFCURVE",
"133 216 CURVE SMOOTH",
"133 365 OFFCURVE",
"185 508 OFFCURVE",
"271 562 CURVE",
"259 581 LINE",
"77 478 OFFCURVE",
"60 292 OFFCURVE",
"60 216 CURVE SMOOTH",
"60 23 OFFCURVE",
"157 -92 OFFCURVE",
"259 -150 CURVE"
);
}
);
visible = 1;
width = 321;
}
);
leftKerningGroup = parent;
leftMetricsKey = parenleft;
rightKerningGroup = parent;
rightMetricsKey = parenleft;
},
{
color = 6;
glyphname = braceleft.sc;
layers = (
{
layerId = "9372F035-DA38-4B54-966C-CEBA9B53DD02";
paths = (
{
closed = 1;
nodes = (
"290 -122 LINE",
"245 -122 OFFCURVE",
"207 -99 OFFCURVE",
"207 -53 CURVE SMOOTH",
"207 -8 OFFCURVE",
"222 36 OFFCURVE",
"222 90 CURVE SMOOTH",
"222 152 OFFCURVE",
"166 214 OFFCURVE",
"100 214 CURVE",
"100 219 LINE",
"166 219 OFFCURVE",
"222 280 OFFCURVE",
"222 343 CURVE SMOOTH",
"222 397 OFFCURVE",
"207 443 OFFCURVE",
"207 486 CURVE SMOOTH",
"207 532 OFFCURVE",
"245 555 OFFCURVE",
"290 555 CURVE",
"290 578 LINE",
"200 578 OFFCURVE",
"135 512 OFFCURVE",
"135 435 CURVE SMOOTH",
"135 387 OFFCURVE",
"155 357 OFFCURVE",
"155 308 CURVE SMOOTH",
"155 267 OFFCURVE",
"111 228 OFFCURVE",
"60 228 CURVE",
"60 205 LINE",
"111 205 OFFCURVE",
"155 166 OFFCURVE",
"155 125 CURVE SMOOTH",
"155 76 OFFCURVE",
"135 46 OFFCURVE",
"135 -2 CURVE SMOOTH",
"135 -79 OFFCURVE",
"200 -145 OFFCURVE",
"290 -145 CURVE"
);
}
);
width = 340;
}
);
leftKerningGroup = parent;
leftMetricsKey = parenleft;
rightKerningGroup = parent;
rightMetricsKey = parenleft;
},
{
color = 6;
glyphname = bracketleft.sc;
layers = (
{
layerId = "9372F035-DA38-4B54-966C-CEBA9B53DD02";
paths = (
{
closed = 1;
nodes = (
"234 -140 LINE",
"234 -102 LINE",
"93 -102 LINE",
"93 537 LINE",
"234 537 LINE",
"234 575 LINE",
"50 575 LINE",
"50 -140 LINE"
);
}
);
width = 294;
}
);
leftKerningGroup = parent;
leftMetricsKey = parenright;
rightKerningGroup = parent;
rightMetricsKey = parenright;
},
{
color = 6;
glyphname = quoteright;
layers = (
{
layerId = "9372F035-DA38-4B54-966C-CEBA9B53DD02";
paths = (
{
closed = 1;
nodes = (
"154 492 OFFCURVE",
"197 532 OFFCURVE",
"197 613 CURVE SMOOTH",
"197 680 OFFCURVE",
"165 722 OFFCURVE",
"117 722 CURVE SMOOTH",
"78 722 OFFCURVE",
"52 696 OFFCURVE",
"52 657 CURVE SMOOTH",
"52 622 OFFCURVE",
"76 598 OFFCURVE",
"111 598 CURVE SMOOTH",
"135 598 OFFCURVE",
"158 616 OFFCURVE",
"158 635 CURVE SMOOTH",
"158 644 OFFCURVE",
"154 650 OFFCURVE",
"154 654 CURVE SMOOTH",
"154 655 OFFCURVE",
"154 656 OFFCURVE",
"156 657 CURVE SMOOTH",
"168 663 OFFCURVE",
"175 635 OFFCURVE",
"175 611 CURVE SMOOTH",
"175 548 OFFCURVE",
"132 508 OFFCURVE",
"84 476 CURVE",
"97 455 LINE"
);
}
);
width = 257;
}
);
leftKerningGroup = quote;
rightKerningGroup = quote;
unicode = 2019;
},
{
color = 6;
glyphname = guilsinglleft;
layers = (
{
layerId = "9372F035-DA38-4B54-966C-CEBA9B53DD02";
paths = (
{
closed = 1;
nodes = (
"198 67 LINE",
"130 86 OFFCURVE",
"105 147 OFFCURVE",
"105 218 CURVE SMOOTH",
"105 289 OFFCURVE",
"130 350 OFFCURVE",
"198 369 CURVE",
"188 399 LINE",
"99 378 OFFCURVE",
"50 307 OFFCURVE",
"50 218 CURVE SMOOTH",
"50 130 OFFCURVE",
"99 58 OFFCURVE",
"188 37 CURVE"
);
}
);
width = 263;
}
);
leftKerningGroup = guillemets;
rightKerningGroup = guillemets;
unicode = 2039;
},
{
color = 6;
glyphname = quotesingle;
layers = (
{
layerId = "9372F035-DA38-4B54-966C-CEBA9B53DD02";
paths = (
{
closed = 1;
nodes = (
"114 469 LINE",
"140 652 LINE SMOOTH",
"141 659 OFFCURVE",
"141 665 OFFCURVE",
"141 671 CURVE SMOOTH",
"141 700 OFFCURVE",
"131 724 OFFCURVE",
"102 724 CURVE SMOOTH",
"73 724 OFFCURVE",
"63 700 OFFCURVE",
"63 671 CURVE SMOOTH",
"63 665 OFFCURVE",
"63 659 OFFCURVE",
"64 652 CURVE SMOOTH",
"90 469 LINE"
);
}
);
width = 204;
}
);
leftKerningGroup = quote;
rightKerningGroup = quote;
unicode = 0027;
},
{
color = 6;
glyphname = quotedblright.case;
layers = (
{
layerId = "9372F035-DA38-4B54-966C-CEBA9B53DD02";
paths = (
{
closed = 1;
nodes = (
"501 155 OFFCURVE",
"568 214 OFFCURVE",
"568 323 CURVE SMOOTH",
"568 412 OFFCURVE",
"520 469 OFFCURVE",
"456 469 CURVE SMOOTH",
"402 469 OFFCURVE",
"368 434 OFFCURVE",
"368 382 CURVE SMOOTH",
"368 336 OFFCURVE",
"399 302 OFFCURVE",
"447 302 CURVE SMOOTH",
"485 302 OFFCURVE",
"514 332 OFFCURVE",
"514 370 CURVE SMOOTH",
"514 379 OFFCURVE",
"512 388 OFFCURVE",
"509 398 CURVE SMOOTH",
"508 401 OFFCURVE",
"508 406 OFFCURVE",
"512 406 CURVE SMOOTH",
"522 406 OFFCURVE",
"535 359 OFFCURVE",
"535 320 CURVE SMOOTH",
"535 235 OFFCURVE",
"475 170 OFFCURVE",
"409 130 CURVE",
"424 104 LINE"
);
},
{
closed = 1;
nodes = (
"190 155 OFFCURVE",
"257 214 OFFCURVE",
"257 323 CURVE SMOOTH",
"257 412 OFFCURVE",
"209 469 OFFCURVE",
"145 469 CURVE SMOOTH",
"91 469 OFFCURVE",
"57 434 OFFCURVE",
"57 382 CURVE SMOOTH",
"57 336 OFFCURVE",
"88 302 OFFCURVE",
"136 302 CURVE SMOOTH",
"174 302 OFFCURVE",
"203 332 OFFCURVE",
"203 370 CURVE SMOOTH",
"203 379 OFFCURVE",
"201 388 OFFCURVE",
"198 398 CURVE SMOOTH",
"197 401 OFFCURVE",
"197 406 OFFCURVE",
"201 406 CURVE SMOOTH",
"211 406 OFFCURVE",
"224 359 OFFCURVE",
"224 320 CURVE SMOOTH",
"224 235 OFFCURVE",
"164 170 OFFCURVE",
"98 130 CURVE",
"113 104 LINE"
);
}
);
width = 600;
}
);
leftKerningGroup = guillemets;
rightKerningGroup = guillemets;
},
